<?xml version="1.0" standalone="no"?>
<!DOCTYPE svg PUBLIC "-//W3C//DTD SVG 1.1//EN" "http://www.w3.org/Graphics/SVG/1.1/DTD/svg11.dtd" >
<svg xmlns="http://www.w3.org/2000/svg" xmlns:xlink="http://www.w3.org/1999/xlink" version="1.1">
<metadata>
Created by FontForge 20161013 at Mon Mar 13 22:25:01 2017
 By ,,,
Copyright (c) 1995 ParaGraph Intl., (c) 1998 ParaType Inc., ParaType Ltd. All rights reserved.
</metadata>
<defs>
<font id="FuturaPT-BookItalic" horiz-adv-x="500" >
  <font-face 
    font-family="Futura PT Book"
    font-weight="400"
    font-style="italic"
    font-stretch="normal"
    units-per-em="1000"
    panose-1="2 11 5 2 2 2 4 9 3 3"
    ascent="763"
    descent="-237"
    x-height="415"
    cap-height="667"
    bbox="-305 -250 1091 926"
    underline-thickness="50"
    underline-position="-150"
    slope="-7"
    unicode-range="U+000D-FB02"
  />
<missing-glyph horiz-adv-x="233" 
 />
    <glyph glyph-name="afii10017.var.accented" unicode="&#x410;`" horiz-adv-x="622" 
d="M479 188h-284l-103 -188h-84l393 699l213 -699h-80zM459 258l-80 267l-146 -267h226zM566 837l-168 -117l-39 32l142 130z" />
    <glyph glyph-name="afii10022.var.accented" unicode="&#x415;`" horiz-adv-x="482" 
d="M505 597h-272l-24 -198h264l-9 -70h-264l-31 -259h272l-9 -70h-346l82 667h346zM496 837l-168 -117l-39 32l142 130z" />
    <glyph glyph-name="afii10026.var.accented" unicode="&#x418;`" horiz-adv-x="710" 
d="M612 509l-530 -539l86 697h74l-63 -511l530 539l-85 -695h-74zM610 837l-168 -117l-39 32l142 130z" />
    <glyph glyph-name="afii10032.var.accented" unicode="&#x41e;`" horiz-adv-x="800" 
d="M399 -12q-55 0 -113.5 18t-108.5 69q-15 16 -30.5 37.5t-28 49t-20 61t-7.5 73.5q0 51 10 93.5t26.5 77t37 61t40.5 45.5q110 105 274 105q55 0 113.5 -16.5t110.5 -67.5q16 -16 32 -37t28.5 -48t20 -60t7.5 -73q0 -78 -27.5 -153t-84.5 -130q-44 -42 -114 -73.5
t-166 -31.5zM471 608q-64 0 -118 -21.5t-93 -57.5q-35 -33 -63.5 -87.5t-28.5 -131.5q0 -62 20 -108t49 -76q26 -27 67.5 -47.5t102.5 -20.5q68 0 123.5 22t92.5 58q45 43 68 103.5t23 120.5q0 57 -19.5 102t-50.5 76q-25 25 -67 46.5t-106 21.5zM655 837l-168 -117l-39 32
l142 130z" />
    <glyph glyph-name="afii10037.var.accented" unicode="&#x423;`" horiz-adv-x="568" 
d="M175 667l160 -393l222 393h85l-383 -667h-80l108 186l-197 481h85zM539 837l-168 -117l-39 32l142 130z" />
    <glyph glyph-name="afii10045.var.accented" unicode="&#x42b;`" horiz-adv-x="710" 
d="M706 667l-82 -667h-74l82 667h74zM167 667h75l-34 -277h74q52 0 99.5 -11t80.5 -45q26 -26 35.5 -56t9.5 -63q0 -60 -20 -98.5t-41 -58.5q-22 -21 -48 -32.5t-52.5 -17t-50.5 -7t-43 -1.5h-166zM169 70h86q13 0 30.5 1t36 4.5t36 10.5t30.5 18q18 15 30 41.5t12 60.5
q0 43 -16.5 64.5t-28.5 28.5q-8 5 -32 13t-78 8h-76zM610 837l-168 -117l-39 32l142 130z" />
    <glyph glyph-name="afii10047.var.accented" unicode="&#x42d;`" horiz-adv-x="649" 
d="M125 612q17 10 42.5 23t47.5 21q24 9 55 15.5t69 6.5q72 0 125.5 -21.5t88.5 -53.5q39 -36 63 -91t24 -133q0 -29 -4 -66.5t-16 -78t-34 -80.5t-58 -75q-53 -51 -114 -71t-134 -20q-38 0 -72.5 5.5t-67.5 17.5q-44 15 -83 44l11 90q18 -20 39 -34.5t45 -25.5
q31 -14 63 -20.5t70 -6.5q21 0 45 2.5t48.5 10t49 21t46.5 35.5q27 26 43 55.5t24.5 56t11.5 46t4 25.5h-389l9 70h386q0 56 -20 100t-47 70q-19 19 -40.5 30.5t-42.5 17.5t-41 8t-37 2q-36 0 -68.5 -7t-68.5 -24q-23 -11 -43.5 -25t-40.5 -32zM509 837l-168 -117l-39 32
l142 130z" />
    <glyph glyph-name="afii10048.var.accented" unicode="&#x42e;`" horiz-adv-x="993" 
d="M308 389q14 61 40.5 105.5t53.5 73.5q45 48 110.5 79t154.5 31q73 0 132 -23.5t100 -64.5q15 -15 30 -36t27.5 -48.5t20 -62.5t7.5 -78q0 -94 -33 -164t-79 -115q-53 -51 -115 -74.5t-140 -23.5q-63 0 -123 19.5t-111 73.5q-42 45 -64 103.5t-21 134.5h-99l-39 -319h-74
l82 667h74l-34 -278h100zM659 608q-60 0 -110 -22t-85 -55q-39 -38 -64.5 -96.5t-25.5 -124.5q0 -54 19.5 -101.5t50.5 -79.5q30 -32 76 -51.5t104 -19.5q56 0 106 18.5t87 53.5q39 36 64.5 96t25.5 132q0 49 -16 94t-45 78q-30 34 -78.5 56t-108.5 22zM751 837l-168 -117
l-39 32l142 130z" />
    <glyph glyph-name="afii10049.var.accented" unicode="&#x42f;`" horiz-adv-x="510" 
d="M262 297q-31 4 -60 17t-49 33q-26 25 -34 53.5t-8 60.5q0 56 17 91t37 55q37 38 88 49t117 11h136l-82 -667h-74l36 292h-38l-226 -292h-92zM351 597q-34 0 -69.5 -6.5t-60.5 -32.5q-20 -21 -26 -45t-6 -43q0 -26 8 -49.5t37 -40.5q20 -12 45.5 -17t50.5 -5h64l29 239
h-72zM510 837l-168 -117l-39 32l142 130z" />
    <glyph glyph-name="afii10023.var.accented" unicode="&#x401;`" horiz-adv-x="482" 
d="M505 597h-272l-24 -198h264l-9 -70h-264l-31 -259h272l-9 -70h-346l82 667h346zM436 845l-142 -119l-33 26l121 130zM158 781q0 7 3 16.5t11 19.5q15 18 40 18q17 0 30 -11q5 -4 9 -11.5t4 -18.5q0 -22 -15 -39q-5 -6 -14.5 -11.5t-23.5 -5.5q-11 0 -19.5 4t-13.5 9
t-8 13.5t-3 16.5zM417 781q0 21 14 36q6 7 16 12.5t24 5.5q8 0 17 -3t14 -8q6 -5 9 -13.5t3 -16.5q0 -22 -15 -39q-5 -6 -14.5 -11.5t-23.5 -5.5q-20 0 -32 13q-12 12 -12 30z" />
    <glyph glyph-name="afii10065.var.accented" unicode="&#x430;`" horiz-adv-x="528" 
d="M439 415h72l-51 -415h-72l7 58q-10 -14 -23 -27t-29 -22q-23 -13 -45 -17t-41 -4q-38 0 -72 10t-63 41q-23 25 -38.5 61t-15.5 87q0 64 21.5 110t50.5 74q57 54 149 54q21 0 43 -4t45 -16q19 -10 32 -22t23 -27zM295 361q-35 0 -59.5 -12t-40.5 -27q-23 -22 -38 -57
t-15 -73q0 -31 11 -60t32 -49q19 -18 40.5 -24.5t43.5 -6.5q65 0 103 41q23 23 35 60t12 75q0 42 -14 66t-25 34q-13 12 -33.5 22.5t-51.5 10.5zM478 632l-151 -135l-42 24l123 145z" />
    <glyph glyph-name="afii10070.var.accented" unicode="&#x435;`" horiz-adv-x="483" 
d="M456 106q-14 -24 -35 -48t-42 -38q-31 -20 -62.5 -26t-57.5 -6q-37 0 -71.5 10t-65.5 42q-19 20 -37 55.5t-18 93.5q0 54 19 99.5t52 78.5q32 32 67.5 45t77.5 13q53 0 85 -15.5t50 -33.5q23 -23 39 -67t8 -116h-323q-1 -45 11 -70.5t26 -39.5q18 -18 38.5 -24.5
t43.5 -6.5q18 0 39 4.5t41 18.5q16 11 30.5 29t23.5 35zM396 253q-1 23 -10 45t-25 37q-17 17 -38 21.5t-38 4.5q-28 0 -50 -8t-41 -27q-14 -14 -24.5 -32.5t-15.5 -40.5h242zM455 632l-151 -135l-42 24l123 145z" />
    <glyph glyph-name="afii10074.var.accented" unicode="&#x438;`" horiz-adv-x="492" 
d="M191 415l-34 -276l322 308l-55 -447h-72l34 279l-322 -308l55 444h72zM460 632l-151 -135l-42 24l123 145z" />
    <glyph glyph-name="afii10080.var.accented" unicode="&#x43e;`" horiz-adv-x="528" 
d="M268 -12q-45 0 -81.5 12.5t-66.5 44.5q-22 23 -37.5 58.5t-15.5 86.5q0 45 16.5 90t58.5 83q68 62 166 62q51 0 88.5 -15.5t63.5 -41.5q32 -32 41.5 -68t9.5 -68q0 -68 -22.5 -112t-47.5 -68q-40 -39 -85.5 -51.5t-87.5 -12.5zM307 361q-21 0 -52 -8.5t-61 -37.5
q-26 -26 -39.5 -59t-13.5 -71q0 -35 12 -58t24 -36q11 -12 34.5 -25.5t61.5 -13.5q39 0 67 14t46 34q23 25 36.5 60t13.5 71q0 32 -10 55t-24 37q-16 17 -40 27.5t-55 10.5zM478 632l-151 -135l-42 24l123 145z" />
    <glyph glyph-name="afii10085.var.accented" unicode="&#x443;`" horiz-adv-x="460" 
d="M204 39l-145 376h80l110 -297l172 297h82l-384 -645h-80zM444 632l-151 -135l-42 24l123 145z" />
    <glyph glyph-name="afii10093.var.accented" unicode="&#x44b;`" horiz-adv-x="562" 
d="M473 415h72l-51 -415h-72zM119 415h72l-20 -159h75q21 0 51.5 -4.5t56.5 -27.5q22 -20 28.5 -42t6.5 -43q0 -35 -10.5 -58t-25.5 -38t-32 -23.5t-34.5 -13t-33 -5.5t-26.5 -1h-86h-73zM223 64q19 0 37.5 4t30.5 13q8 6 16 18t8 33q0 20 -7 31t-15 16q-13 9 -31.5 11
t-29.5 2h-68l-16 -128h75zM495 632l-151 -135l-42 24l123 145z" />
    <glyph glyph-name="afii10095.var.accented" unicode="&#x44d;`" horiz-adv-x="426" 
d="M91 400q17 8 46.5 16.5t71.5 8.5q53 0 88 -14.5t56 -34.5q35 -32 45.5 -72t10.5 -75q0 -66 -20.5 -108.5t-44.5 -67.5q-38 -38 -82.5 -51.5t-89.5 -13.5q-48 0 -79 9t-50 19l9 70q30 -21 59 -27.5t56 -6.5q28 0 59 7t59 34q15 14 27 36t17 51h-219l8 64h217
q-2 31 -13.5 51t-25.5 32q-23 20 -50.5 27t-54.5 7q-20 0 -48.5 -5.5t-60.5 -25.5zM377 632l-151 -135l-42 24l123 145z" />
    <glyph glyph-name="afii10096.var.accented" unicode="&#x44e;`" horiz-adv-x="692" 
d="M244 245q10 40 28.5 68t37.5 47q26 26 67 45.5t99 19.5q30 0 53.5 -5.5t41 -14t30 -17.5t19.5 -16q21 -20 38 -55t17 -86q0 -48 -17 -97t-54 -85q-41 -40 -84.5 -50.5t-81.5 -10.5q-44 0 -82.5 11.5t-70.5 45.5q-21 22 -36 56t-15 78h-72l-22 -179h-72l51 415h72
l-21 -170h74zM470 361q-30 0 -57.5 -9.5t-51.5 -33.5q-26 -26 -39 -61.5t-13 -70.5t10.5 -59t24.5 -38q18 -19 44 -28t51 -9q32 0 61 12t49 33q23 23 37 58t14 75q0 32 -10.5 55.5t-24.5 38.5q-12 13 -34.5 25t-60.5 12zM560 632l-151 -135l-42 24l123 145z" />
    <glyph glyph-name="afii10097.var.accented" unicode="&#x44f;`" horiz-adv-x="408" 
d="M170 171q-2 0 -9.5 1t-18 4.5t-22.5 10t-23 16.5q-17 17 -22 36t-5 35q0 39 12.5 63.5t26.5 37.5q29 29 65.5 34.5t71.5 5.5h145l-51 -415h-72l21 167h-40l-139 -167h-90zM311 351h-74q-14 0 -34 -2.5t-35 -13.5q-16 -11 -20 -24.5t-4 -23.5q0 -11 3.5 -23.5t18.5 -22.5
q14 -9 33 -11.5t33 -2.5h64zM418 632l-151 -135l-42 24l123 145z" />
    <glyph glyph-name="afii10071.var.accented" unicode="&#x451;`" horiz-adv-x="483" 
d="M456 106q-14 -24 -35 -48t-42 -38q-31 -20 -62.5 -26t-57.5 -6q-37 0 -71.5 10t-65.5 42q-19 20 -37 55.5t-18 93.5q0 54 19 99.5t52 78.5q32 32 67.5 45t77.5 13q53 0 85 -15.5t50 -33.5q23 -23 39 -67t8 -116h-323q-1 -45 11 -70.5t26 -39.5q18 -18 38.5 -24.5
t43.5 -6.5q18 0 39 4.5t41 18.5q16 11 30.5 29t23.5 35zM396 253q-1 23 -10 45t-25 37q-17 17 -38 21.5t-38 4.5q-28 0 -50 -8t-41 -27q-14 -14 -24.5 -32.5t-15.5 -40.5h242zM364 543q0 11 4.5 21.5t12.5 18.5q6 6 16 11.5t24 5.5q19 0 31 -12q13 -12 13 -32q0 -22 -18 -40
q-16 -16 -38 -16q-18 0 -32 12q-5 5 -9 13.5t-4 17.5zM127 543q0 11 4.5 21.5t12.5 18.5q6 6 16 11.5t24 5.5q19 0 31 -12q13 -12 13 -32q0 -22 -18 -40q-16 -16 -38 -16q-18 0 -32 12q-5 5 -9 13.5t-4 17.5zM417 638l-151 -135l-31 18l123 145z" />
    <glyph glyph-name="fi" unicode="fi" horiz-adv-x="459" 
d="M185 349l-43 -349h-72l43 349h-40l8 66h40l19 156q4 30 13 62.5t35 60.5q26 27 57.5 37t63.5 10q48 0 77.5 -14t44.5 -30q13 -14 23 -35.5t10 -55.5q0 -12 -1.5 -29.5t-2.5 -22.5h-72q1 8 2 19t1 19q0 10 -3.5 26t-18.5 30q-11 11 -28 15.5t-34 4.5t-35.5 -5t-33.5 -22
q-14 -16 -19 -34.5t-7 -35.5l-19 -156h102l-8 -66h-102zM443 415l-51 -415h-72l51 415h72z" />
    <glyph glyph-name="fl" unicode="fl" horiz-adv-x="459" 
d="M185 349l-43 -349h-72l43 349h-40l8 66h40l19 156q4 30 13 62.5t35 60.5q18 19 48 33t75 14q41 0 71 -12t49 -32q21 -23 27 -47.5t6 -44.5q0 -14 -1.5 -30.5t-4.5 -39.5l-66 -535h-72l65 532q2 13 4 28.5t2 31.5q0 14 -4 29t-18 27q-11 10 -27.5 15t-33.5 5q-27 0 -44 -8
t-26 -19q-13 -14 -18.5 -33.5t-7.5 -36.5l-19 -156h102l-8 -66h-102z" />
    <glyph glyph-name=".notdef" horiz-adv-x="233" 
 />
    <glyph glyph-name=".null" horiz-adv-x="0" 
 />
    <glyph glyph-name=".null" horiz-adv-x="0" 
 />
    <glyph glyph-name="nonmarkingreturn" unicode="&#xd;" horiz-adv-x="250" 
 />
    <glyph glyph-name="space" unicode=" " horiz-adv-x="233" 
 />
    <glyph glyph-name="exclam" unicode="!" horiz-adv-x="281" 
d="M122 135l65 532h72l-65 -532h-72zM95 35q0 16 6 25.5t10 13.5q8 8 18 12t21 4q20 0 33 -13t13 -34q0 -8 -3.5 -18.5t-15.5 -21.5q-16 -13 -36 -13q-13 0 -21 4t-13 9t-8.5 13t-3.5 19z" />
    <glyph glyph-name="quotedbl" unicode="&#x22;" horiz-adv-x="330" 
d="M170 399h-54l20 268h80zM312 399h-54l20 268h80z" />
    <glyph glyph-name="numbersign" unicode="#" horiz-adv-x="600" 
d="M321 0l57 207h-136l-57 -207h-73l57 207h-110l19 66h110l36 133h-110l18 66h110l54 195h73l-54 -195h136l54 195h73l-54 -195h110l-18 -66h-110l-36 -133h110l-19 -66h-110l-57 -207h-73zM433 406h-136l-36 -133h136z" />
    <glyph glyph-name="dollar" unicode="$" horiz-adv-x="568" 
d="M475 535q-4 20 -13 31.5t-14 16.5q-7 6 -18 12t-26 8l-27 -221q3 -1 13.5 -5.5t24.5 -12.5t30 -19.5t30 -27.5q21 -24 32 -53t11 -65q0 -54 -18 -90.5t-38 -56.5q-7 -7 -18.5 -17t-28 -19t-38 -16.5t-48.5 -9.5l-11 -91h-60l11 90q-42 0 -71.5 16t-46.5 33
q-21 21 -36.5 52.5t-19.5 69.5l74 20q2 -24 12 -48t24 -39q14 -14 33.5 -23t39.5 -11l33 271l-25 12q-20 10 -41 22.5t-38 29.5q-20 21 -29 46t-9 56q0 41 14 72t38 55q19 19 51.5 36.5t81.5 17.5l10 86h60l-11 -88q20 -3 39 -11t39 -24q18 -14 29 -30.5t18 -35.5zM338 61
q27 5 44 17.5t27 23.5q14 17 22.5 40t8.5 52q0 22 -5.5 39t-19.5 33q-14 17 -28.5 25.5t-19.5 10.5zM345 607q-25 -1 -42 -10t-26 -17q-15 -14 -24 -34t-9 -42q0 -36 24 -62q10 -11 24 -19.5t29 -13.5z" />
    <glyph glyph-name="percent" unicode="%" horiz-adv-x="714" 
d="M615 680l37 -22l-472 -671l-36 23zM559 283q33 0 59 -11t44 -29q20 -20 28 -43.5t8 -49.5q0 -40 -13 -69t-32 -48q-26 -25 -53.5 -32.5t-56.5 -7.5q-27 0 -51 6.5t-47 29.5q-22 21 -31 46t-9 51q0 30 11 59.5t33 52.5q21 21 49 33t61 12zM549 48q36 0 60 24
q13 13 20.5 32t7.5 42t-8 38.5t-17 23.5q-8 8 -22.5 14t-34.5 6q-40 0 -65 -28q-13 -14 -19 -32t-6 -37q0 -20 6.5 -35.5t17.5 -25.5q8 -8 22.5 -15t37.5 -7zM252 673q33 0 59 -11t44 -29q20 -20 28 -43.5t8 -49.5q0 -40 -13 -69t-32 -48q-26 -25 -53.5 -32.5t-56.5 -7.5
q-27 0 -51 6.5t-47 29.5q-18 18 -29 42t-11 55q0 30 11 59.5t33 52.5q21 21 49 33t61 12zM242 438q36 0 60 24q13 13 20.5 32t7.5 42t-8 38.5t-17 23.5q-8 8 -22.5 14t-34.5 6q-40 0 -65 -28q-13 -14 -19 -32t-6 -37q0 -20 6.5 -35.5t17.5 -25.5q8 -8 22.5 -15t37.5 -7z" />
    <glyph glyph-name="ampersand" unicode="&#x26;" horiz-adv-x="638" 
d="M631 244q-25 -27 -49 -51.5t-48 -47.5l94 -145h-92l-61 93q-19 -17 -44.5 -37.5t-51.5 -34.5q-30 -17 -58.5 -25t-66.5 -8q-39 0 -71.5 10t-61.5 40q-20 21 -33 49t-13 65q0 51 20.5 87t44.5 60q27 27 66 53t70 42l-21 37q-11 20 -19.5 42.5t-8.5 53.5q0 36 12 63.5
t29 45.5q26 27 57 34.5t57 7.5q25 0 52.5 -7.5t50.5 -30.5q31 -31 31 -80q0 -32 -8.5 -53.5t-18.5 -35.5q-4 -5 -17.5 -19.5t-42.5 -35.5l-50 -36l117 -179q23 21 44.5 43t41.5 45zM313 339q-32 -17 -65.5 -40.5t-54.5 -44.5q-20 -20 -31.5 -42t-11.5 -54q0 -21 6 -39
t22 -34t35.5 -22.5t42.5 -6.5q26 0 50.5 7t50.5 23q18 11 39.5 28t40.5 34zM342 434l41 28q8 5 22.5 17t22.5 21t12.5 22t4.5 27q0 17 -7 29.5t-16 20.5t-21 11.5t-24 3.5q-17 0 -32 -6t-25 -15q-11 -11 -17 -26t-6 -31q0 -20 8 -36.5t16 -30.5z" />
    <glyph glyph-name="quotesingle" unicode="'" horiz-adv-x="188" 
d="M170 399h-54l20 268h80z" />
    <glyph glyph-name="parenleft" unicode="(" horiz-adv-x="298" 
d="M321 711q-34 -72 -57.5 -137t-43.5 -140q-19 -70 -30.5 -137.5t-11.5 -142.5q0 -19 1.5 -51t5.5 -71t11 -83.5t19 -89.5l-66 -29q-24 88 -34.5 170t-10.5 148q0 82 13.5 160.5t33.5 150.5q26 93 56.5 164.5t53.5 116.5z" />
    <glyph glyph-name="parenright" unicode=")" horiz-adv-x="298" 
d="M45 -141q34 73 59 142t43 136q11 39 18.5 74.5t12.5 71.5t7.5 73.5t2.5 80.5q0 57 -7 123.5t-30 150.5l66 29q14 -51 22.5 -94t13.5 -80t7 -69.5t2 -64.5q0 -46 -2.5 -84t-7.5 -74t-13.5 -72.5t-20.5 -78.5q-20 -73 -45 -142t-68 -151z" />
    <glyph glyph-name="asterisk" unicode="*" horiz-adv-x="568" 
d="M329 605l11 124h68l-21 -124l122 43l13 -63l-124 -34l65 -97l-59 -39l-56 103l-82 -103l-49 39l89 97l-116 34l29 63z" />
    <glyph glyph-name="plus" unicode="+" 
d="M74 366h181v172h72v-172h181v-66h-181v-172h-72v172h-181v66z" />
    <glyph glyph-name="comma" unicode="," horiz-adv-x="274" 
d="M118 98l63 -24l-129 -226l-44 19z" />
    <glyph glyph-name="hyphen" unicode="-" horiz-adv-x="320" 
d="M81 250h220l-9 -74h-220z" />
    <glyph glyph-name="period" unicode="." horiz-adv-x="229" 
d="M69 35q0 16 6 25.5t10 13.5q8 8 18 12t21 4q20 0 33 -13t13 -34q0 -8 -3.5 -18.5t-15.5 -21.5q-16 -13 -36 -13q-13 0 -21 4t-13 9t-8.5 13t-3.5 19z" />
    <glyph glyph-name="slash" unicode="/" horiz-adv-x="605" 
d="M613 759l60 -30l-631 -927l-61 28z" />
    <glyph glyph-name="zero" unicode="0" horiz-adv-x="568" 
d="M282 -12q-35 0 -65 9.5t-61 41.5q-26 27 -41 57.5t-23 61t-10 58t-2 48.5q0 51 8.5 100.5t24.5 94.5t39 84t52 68q36 37 73.5 52t82.5 15q37 0 69 -11.5t59 -37.5q31 -29 53.5 -82t22.5 -141q0 -49 -7 -99t-21.5 -97t-37.5 -88t-56 -73q-38 -36 -75 -48.5t-85 -12.5z
M355 610q-32 0 -57 -12t-47 -34q-23 -23 -41 -56t-30.5 -71.5t-19 -80t-6.5 -81.5q0 -7 1 -28.5t6.5 -49.5t17 -57t31.5 -50q33 -34 82 -34q30 0 53 9.5t43 28.5q26 24 45.5 60t32 77.5t18.5 84.5t6 80q0 22 -3 47.5t-9.5 50.5t-17 47.5t-26.5 37.5q-17 17 -36.5 24t-42.5 7
z" />
    <glyph glyph-name="one" unicode="1" horiz-adv-x="568" 
d="M339 597h-112l48 70h147l-82 -667h-74z" />
    <glyph glyph-name="two" unicode="2" horiz-adv-x="568" 
d="M50 0l278 279l26.5 26.5t28 29.5t25.5 28.5t20 24.5q18 25 29 51t11 58q0 30 -10 50t-23 32q-12 11 -33.5 21t-55.5 10q-41 0 -65 -12.5t-35 -24.5q-18 -18 -29 -46t-13 -55h-74q5 42 23 81.5t46 66.5q29 28 68 43t85 15q45 0 80.5 -14t58.5 -36q27 -26 39 -57t12 -66
q0 -47 -15.5 -84t-44.5 -75q-25 -32 -55.5 -61.5t-60.5 -59.5l-159 -157h282l-8 -68h-431z" />
    <glyph glyph-name="three" unicode="3" horiz-adv-x="568" 
d="M151 502q5 36 21 69t37 55q29 30 64.5 41t70.5 11q51 0 81.5 -14t47.5 -30q20 -18 34.5 -48.5t14.5 -77.5q0 -26 -6 -50.5t-22 -47.5q-11 -15 -29 -32t-48 -28q14 -7 28 -18t27 -31q14 -22 19 -44t5 -45q0 -45 -16 -88.5t-48 -76.5q-38 -38 -77.5 -48.5t-74.5 -10.5
t-71.5 9t-67.5 41q-23 23 -38.5 59t-17.5 76h74q2 -25 11.5 -49t24.5 -39q20 -20 44.5 -24.5t40.5 -4.5q19 0 46.5 6t51.5 30q23 23 32.5 56t9.5 60q0 31 -10.5 49.5t-20.5 28.5q-12 11 -33.5 21t-54.5 10h-8l8 66h10q65 0 100 29q24 20 31 46.5t7 49.5q0 17 -5 37t-23 37
q-15 14 -36 21t-44 7q-26 0 -46.5 -8.5t-34.5 -21.5q-15 -15 -24 -36t-11 -42h-74z" />
    <glyph glyph-name="four" unicode="4" horiz-adv-x="568" 
d="M458 194h82l-9 -68h-82l-15 -126h-74l15 126h-342l487 578zM383 194l36 288l-243 -288h207z" />
    <glyph glyph-name="five" unicode="5" horiz-adv-x="568" 
d="M553 599h-214l-60 -145q51 8 97.5 -5t78.5 -45q26 -26 42.5 -63.5t16.5 -89.5q0 -36 -7 -65.5t-17.5 -53.5t-23.5 -42t-25 -31q-41 -42 -86.5 -56.5t-96.5 -14.5q-37 0 -68.5 7t-63.5 28q-25 17 -45 39.5t-34 45.5l64 42q3 -6 15 -25.5t34 -36.5q24 -19 49 -25.5t50 -6.5
q50 0 81.5 15t49.5 34q24 25 37 62.5t13 80.5q0 24 -9 54t-38 54q-22 19 -51 27t-56 8q-34 0 -66 -10.5t-59 -30.5l135 317h265z" />
    <glyph glyph-name="six" unicode="6" horiz-adv-x="568" 
d="M471 641l-173 -207q51 8 103 -6.5t89 -52.5q31 -32 42 -67t11 -75q0 -57 -17 -99.5t-50 -75.5q-42 -42 -89.5 -56t-98.5 -14q-38 0 -77 10.5t-72 42.5q-26 25 -43.5 63.5t-17.5 86.5q0 68 35 129q14 25 33.5 49.5t41.5 49.5l228 264zM297 56q45 0 75 13.5t47 30.5
q18 18 33 49.5t15 81.5q0 22 -6.5 48.5t-32.5 50.5q-22 20 -52 29.5t-58 9.5q-30 0 -60 -12t-54 -35q-23 -22 -37 -55t-14 -71q0 -28 9.5 -53t28.5 -45q23 -24 50 -33t56 -9z" />
    <glyph glyph-name="seven" unicode="7" horiz-adv-x="568" 
d="M501 599h-361l8 68h490l-530 -683l-57 39z" />
    <glyph glyph-name="eight" unicode="8" horiz-adv-x="568" 
d="M429 345q24 -11 38 -25.5t19 -22.5q14 -21 20 -44t6 -46q0 -60 -19 -98.5t-42 -61.5q-37 -37 -78 -48.5t-83 -11.5q-35 0 -73 10t-69 42q-25 26 -36.5 61t-11.5 71q0 29 9 61.5t27 56.5q16 21 39 37t48 24q-15 10 -26 22t-18 24q-12 20 -16 40t-4 39q0 59 19 95t35 53
q32 33 70 44t73 11q29 0 64.5 -9t64.5 -39q30 -31 37 -65t7 -57q0 -25 -5.5 -50.5t-22.5 -51.5q-10 -15 -27 -32t-45 -29zM335 377q24 0 47 8t40 24q15 14 25.5 37.5t10.5 56.5q0 18 -5.5 39.5t-24.5 39.5q-18 18 -39.5 23t-39.5 5q-25 0 -45.5 -7t-37.5 -24
q-17 -16 -27.5 -41t-10.5 -55q0 -29 9.5 -47t18.5 -28q11 -11 30 -21t49 -10zM294 56q22 0 49.5 5.5t52.5 29.5q19 18 30 46t11 60q0 40 -14.5 61t-22.5 28q-11 10 -32 18.5t-54 8.5q-28 0 -53 -8t-46 -31q-17 -18 -28 -43.5t-11 -57.5q0 -27 8.5 -49t22.5 -36
q19 -19 42 -25.5t45 -6.5z" />
    <glyph glyph-name="nine" unicode="9" horiz-adv-x="568" 
d="M177 25l175 208q-51 -11 -105.5 6.5t-90.5 53.5q-29 30 -40 63.5t-11 68.5q0 66 21.5 111t49.5 73q38 38 83.5 53.5t94.5 15.5q61 0 100.5 -19.5t61.5 -41.5q29 -29 41 -63.5t12 -74.5q0 -32 -6 -59.5t-20 -56.5q-17 -34 -36.5 -58.5t-42.5 -50.5l-236 -270zM347 610
q-32 0 -61 -9t-55 -35q-22 -21 -36.5 -55t-14.5 -80q0 -20 7 -44.5t27 -46.5q17 -18 45.5 -30.5t65.5 -12.5q44 0 73.5 16.5t46.5 34.5q21 23 35 55.5t14 68.5q0 38 -13.5 63t-30.5 39q-15 14 -40 25t-63 11z" />
    <glyph glyph-name="colon" unicode=":" horiz-adv-x="229" 
d="M69 33q0 16 6 25.5t10 13.5q8 8 18 12t21 4q20 0 33 -13t13 -34q0 -8 -3.5 -18.5t-15.5 -21.5q-16 -13 -36 -13q-13 0 -21 4t-13 9t-8.5 13t-3.5 19zM110 370q0 16 6 25.5t10 13.5q8 8 18 12t21 4q20 0 33 -13t13 -34q0 -8 -3.5 -18.5t-15.5 -21.5q-16 -13 -36 -13
q-13 0 -21 4t-13 9t-8.5 13t-3.5 19z" />
    <glyph glyph-name="semicolon" unicode=";" horiz-adv-x="274" 
d="M118 98l63 -24l-129 -226l-44 19zM123 370q0 16 6 25.5t10 13.5q8 8 18 12t21 4q20 0 33 -13t13 -34q0 -8 -3.5 -18.5t-15.5 -21.5q-16 -13 -36 -13q-13 0 -21 4t-13 9t-8.5 13t-3.5 19z" />
    <glyph glyph-name="less" unicode="&#x3c;" 
d="M520 168v-72l-434 203v62l434 203v-72l-357 -162z" />
    <glyph glyph-name="equal" unicode="=" 
d="M75 450h434v-66h-434v66zM75 296h434v-66h-434v66z" />
    <glyph glyph-name="greater" unicode="&#x3e;" 
d="M61 492v72l434 -203v-62l-434 -203v72l357 162z" />
    <glyph glyph-name="question" unicode="?" horiz-adv-x="438" 
d="M395 289q0 -31 -11 -61t-31 -51q-14 -14 -40 -27.5t-69 -13.5q-20 0 -48.5 6t-54.5 31q-19 19 -26.5 41t-7.5 46q0 35 11.5 61t28.5 43q20 21 47.5 33t56.5 20l33 10q10 3 28.5 11t33.5 25q8 8 16 24t8 42q0 27 -9.5 41.5t-16.5 20.5q-22 19 -59 19q-23 0 -38.5 -7
t-26.5 -18q-14 -14 -20.5 -35.5t-6.5 -44.5q0 -7 0.5 -13t1.5 -12h-74q-1 7 -1 13v12q0 51 16.5 81.5t32.5 46.5q29 29 61 37t61 8q26 0 57.5 -7t57.5 -33q14 -14 26 -38t12 -66q0 -33 -10 -61t-33 -52q-17 -18 -40.5 -31.5t-46.5 -20.5l-44 -14q-20 -6 -37.5 -13t-31.5 -21
q-7 -8 -14 -20.5t-7 -32.5q0 -18 5.5 -30t13.5 -18q9 -8 22.5 -12t27.5 -4q20 0 33 6t20 13q11 12 16 30.5t5 35.5h72zM173 30q0 16 6 25.5t10 13.5q8 8 18 12t21 4q20 0 33 -13t13 -34q0 -8 -3.5 -18.5t-15.5 -21.5q-16 -13 -36 -13q-13 0 -21 4t-13 9t-8.5 13t-3.5 19z
" />
    <glyph glyph-name="at" unicode="@" horiz-adv-x="737" 
d="M555 491h52l-66 -210l-7.5 -27.5t-4.5 -27.5q0 -9 1.5 -16t8.5 -13q9 -9 24 -9q17 0 35 8t32 21q32 30 50.5 81t18.5 105q0 58 -20 99t-51 68q-27 23 -69.5 40.5t-101.5 17.5q-43 0 -79.5 -8.5t-65.5 -22.5t-52 -31.5t-40 -34.5q-51 -52 -73 -115.5t-22 -123.5
q0 -48 16.5 -97t50.5 -84q35 -35 90 -55.5t124 -20.5q15 0 38 1.5t50 6.5t57 14t60 24l9 -46q-10 -5 -29 -13t-48 -16t-67.5 -13.5t-86.5 -5.5q-72 0 -129.5 21t-105.5 70q-38 40 -59 90t-21 116q0 83 30 154t78 122q19 20 46 40.5t61.5 37.5t77.5 27.5t94 10.5
q77 0 129 -24t84 -56q31 -31 52 -75.5t21 -105.5q0 -22 -4 -51.5t-13 -60t-24.5 -60t-38.5 -52.5q-22 -21 -49 -34t-55 -13q-16 0 -29 4.5t-25 15.5q-21 20 -21 47q-21 -32 -49 -49q-19 -12 -38.5 -17t-39.5 -5q-25 0 -48 7.5t-43 27.5q-14 14 -26 39t-12 67q0 45 18 90
t51 79q29 29 61 41.5t65 12.5q26 0 46 -8t32 -19q11 -10 18 -23t11 -27zM372 194q23 0 42 8t38 26q26 26 40.5 64t14.5 72q0 23 -7 39t-17 26t-25 15.5t-30 5.5q-24 0 -48 -10t-42 -30q-23 -24 -35 -58.5t-12 -64.5q0 -32 10 -49.5t18 -25.5q21 -18 53 -18z" />
    <glyph glyph-name="A" unicode="A" horiz-adv-x="622" 
d="M479 188h-284l-103 -188h-84l393 699l213 -699h-80zM459 258l-80 267l-146 -267h226z" />
    <glyph glyph-name="B" unicode="B" horiz-adv-x="532" 
d="M277 667q68 0 107.5 -16.5t58.5 -36.5q17 -17 28 -44t11 -62q0 -23 -6 -49.5t-17 -46.5q-8 -14 -23 -29.5t-39 -26.5q17 -7 35 -18t32 -25q23 -23 32 -50.5t9 -60.5q0 -54 -17.5 -89.5t-43.5 -57.5q-22 -19 -47 -30t-50 -16.5t-47.5 -7t-39.5 -1.5h-174l82 667h109z
M206 374h48q28 0 60 5.5t58 28.5q23 20 29.5 44t6.5 45q0 14 -6 37.5t-31 40.5q-17 12 -41.5 17t-47.5 5h-49zM169 70h90q32 0 67 6t58 23q18 13 32 37.5t14 61.5q0 28 -10.5 51t-38.5 39q-23 14 -51.5 17t-56.5 3h-75z" />
    <glyph glyph-name="C" unicode="C" horiz-adv-x="650" 
d="M664 520q-14 15 -33 31t-45 30q-29 15 -56.5 21t-56.5 6q-66 0 -121 -23t-96 -64q-41 -42 -64 -97.5t-23 -116.5t21 -106t49 -74q36 -38 78 -53.5t90 -15.5q38 0 70 7.5t57 20.5q20 11 43.5 27t40.5 32l-11 -92q-20 -14 -43.5 -27t-41.5 -20q-23 -8 -55.5 -13t-64.5 -5
q-74 0 -130 23t-97 65q-46 47 -65 103t-19 120q0 55 11.5 99.5t28 78.5t36.5 59t36 41q60 59 128 80t142 21q29 0 64 -4.5t67 -18.5q16 -7 35 -18.5t36 -24.5z" />
    <glyph glyph-name="D" unicode="D" horiz-adv-x="636" 
d="M168 667h121q28 0 61 -3t67 -11.5t67.5 -25t61.5 -43.5q31 -30 56 -81.5t25 -134.5q0 -29 -4 -62.5t-15 -69t-29.5 -70t-48.5 -64.5q-31 -31 -66 -51t-74.5 -31.5t-83 -15.5t-91.5 -4h-129zM169 70h49q82 0 145 16.5t109 62.5q25 25 40 54t23.5 58t11 55.5t2.5 45.5
q0 40 -11.5 84t-48.5 82q-23 24 -49.5 38t-52 20.5t-48.5 8.5t-41 2h-65z" />
    <glyph glyph-name="E" unicode="E" horiz-adv-x="482" 
d="M505 597h-272l-24 -198h264l-9 -70h-264l-31 -259h272l-9 -70h-346l82 667h346z" />
    <glyph glyph-name="F" unicode="F" horiz-adv-x="434" 
d="M463 597h-230l-24 -197h222l-8 -70h-222l-41 -330h-74l82 667h304z" />
    <glyph glyph-name="G" unicode="G" horiz-adv-x="760" 
d="M473 335h278l-2 -16q-3 -23 -8.5 -51.5t-16.5 -59t-28.5 -61.5t-44.5 -60q-51 -55 -113 -77t-131 -22q-63 0 -121.5 20t-106.5 68q-37 37 -62.5 91.5t-25.5 131.5q0 90 32 158t78 114q60 61 128.5 84t146.5 23q48 0 90.5 -10t84.5 -36q35 -22 58 -48t37 -51l-61 -50
q-14 27 -33 49t-48 40q-29 19 -60 27.5t-69 8.5q-41 0 -75 -7.5t-61 -19.5t-47.5 -27t-35.5 -29q-46 -46 -67.5 -106.5t-21.5 -117.5q0 -51 18.5 -96.5t50.5 -78.5q40 -42 86.5 -55t91.5 -13q41 0 88.5 12.5t89.5 55.5q29 29 46 66t25 73h-198z" />
    <glyph glyph-name="H" unicode="H" horiz-adv-x="662" 
d="M209 396h342l33 271h74l-82 -667h-74l40 326h-342l-40 -326h-74l82 667h74z" />
    <glyph glyph-name="I" unicode="I" horiz-adv-x="246" 
d="M242 667l-82 -667h-74l82 667h74z" />
    <glyph glyph-name="J" unicode="J" horiz-adv-x="299" 
d="M295 667l-59 -482q-6 -50 -17.5 -90t-37.5 -66q-11 -11 -38 -26t-78 -15q-18 0 -34 3.5t-33 11.5q-12 6 -23.5 14.5t-22.5 19.5l48 58q7 -8 14.5 -14t15.5 -11q11 -6 20 -9t23 -3q15 0 28 4.5t24 15.5t21 35t16 72l59 482h74z" />
    <glyph glyph-name="K" unicode="K" horiz-adv-x="568" 
d="M207 381l319 286h100l-354 -312l278 -355h-98l-235 306l-22 -19l-35 -287h-74l82 667h74z" />
    <glyph glyph-name="L" unicode="L" horiz-adv-x="358" 
d="M242 667l-73 -597h184l-9 -70h-258l82 667h74z" />
    <glyph glyph-name="M" unicode="M" horiz-adv-x="863" 
d="M63 0l197 704l187 -563l331 564l17 -705h-75l-6 464l-287 -492l-164 492l-123 -464h-77z" />
    <glyph glyph-name="N" unicode="N" horiz-adv-x="766" 
d="M86 0l85 695l453 -547l64 519h74l-86 -697l-453 547l-63 -517h-74z" />
    <glyph glyph-name="O" unicode="O" horiz-adv-x="800" 
d="M399 -12q-55 0 -113.5 18t-108.5 69q-15 16 -30.5 37.5t-28 49t-20 61t-7.5 73.5q0 51 10 93.5t26.5 77t37 61t40.5 45.5q110 105 274 105q55 0 113.5 -16.5t110.5 -67.5q16 -16 32 -37t28.5 -48t20 -60t7.5 -73q0 -78 -27.5 -153t-84.5 -130q-44 -42 -114 -73.5
t-166 -31.5zM471 608q-64 0 -118 -21.5t-93 -57.5q-35 -33 -63.5 -87.5t-28.5 -131.5q0 -62 20 -108t49 -76q26 -27 67.5 -47.5t102.5 -20.5q68 0 123.5 22t92.5 58q45 43 68 103.5t23 120.5q0 57 -19.5 102t-50.5 76q-25 25 -67 46.5t-106 21.5z" />
    <glyph glyph-name="P" unicode="P" horiz-adv-x="457" 
d="M289 667q51 0 93 -13t68 -38q20 -20 33 -52t13 -74q0 -49 -16 -85t-38 -57q-21 -20 -65 -39t-124 -19h-57l-36 -290h-74l82 667h121zM204 360h63q27 0 60.5 6t59.5 30q15 14 25.5 36.5t10.5 55.5q0 34 -11.5 54t-25.5 31q-20 16 -47.5 20t-50.5 4h-55z" />
    <glyph glyph-name="Q" unicode="Q" horiz-adv-x="800" 
d="M614 45q-49 -31 -99 -44t-107 -13q-62 0 -122 19t-110 71q-35 36 -60 91.5t-25 128.5q0 69 25.5 141.5t85.5 132.5q20 19 46 38t59.5 34t74.5 24.5t91 9.5q63 0 120 -19t106 -66q51 -48 71.5 -105t20.5 -120q0 -48 -9 -89.5t-25 -74.5q-5 -11 -25.5 -44t-62.5 -68l81 -99
h-92zM620 147q17 14 33 32.5t28 38.5q19 32 26 64.5t7 66.5q0 62 -19 107t-48 77t-71.5 53.5t-103.5 21.5q-60 0 -114 -21.5t-99 -63.5q-28 -27 -46 -56t-28 -57.5t-13.5 -55t-3.5 -49.5q0 -56 19 -101.5t50 -77.5q36 -38 81 -53t98 -15q44 0 79.5 10.5t69.5 33.5l-141 166
h92z" />
    <glyph glyph-name="R" unicode="R" horiz-adv-x="505" 
d="M275 667q21 0 42.5 -1t43 -6t42.5 -15t39 -27q29 -27 38.5 -58.5t9.5 -60.5q0 -40 -11 -76.5t-42 -65.5q-27 -26 -65 -41t-75 -18l175 -298h-90l-167 292h-19l-36 -292h-74l82 667h107zM204 358h47q12 0 27.5 1t32.5 4.5t33.5 10.5t30.5 19q15 14 27 38t12 57
q0 38 -15 59.5t-30 30.5t-43 14t-51 5h-42z" />
    <glyph glyph-name="S" unicode="S" horiz-adv-x="518" 
d="M450 535q-6 17 -16 30t-21 22q-19 14 -38.5 17.5t-36.5 3.5q-19 0 -41.5 -5t-42.5 -23q-15 -14 -25 -35t-10 -44q0 -16 6.5 -31.5t21.5 -29.5q10 -9 27.5 -19.5t28.5 -15.5l60 -28q23 -11 45 -24.5t40 -32.5q29 -29 37 -57t8 -60q0 -15 -2 -33t-8 -38t-17 -40.5
t-29 -39.5q-21 -22 -44 -34.5t-46 -19t-44 -8.5t-39 -2q-41 0 -74.5 10t-63.5 40q-22 23 -37 54.5t-19 67.5l74 20q3 -53 36 -87q22 -23 46 -29t49 -6q24 0 52.5 6.5t51.5 30.5q19 20 27.5 46.5t8.5 50.5q0 30 -11 51.5t-25 33.5q-10 9 -29.5 20.5t-35.5 19.5l-53 25
q-14 6 -38 20t-41 31q-14 14 -26 39t-12 64q0 35 11.5 66.5t40.5 59.5q32 31 68.5 43.5t78.5 12.5q22 0 52.5 -5t57.5 -23q20 -13 35.5 -33t24.5 -43z" />
    <glyph glyph-name="T" unicode="T" horiz-adv-x="426" 
d="M323 597l-73 -597h-74l73 597h-162l9 70h398l-9 -70h-162z" />
    <glyph glyph-name="U" unicode="U" horiz-adv-x="646" 
d="M194 275q-3 -23 -5 -41.5t-2 -38.5q0 -28 10 -54t33 -47q26 -24 54.5 -30t57.5 -6q12 0 28 1t32.5 5.5t33.5 14t32 26.5q14 16 23 36t14.5 41t8 41t4.5 35l50 409h74l-53 -429q-7 -55 -21 -102t-57 -88q-21 -20 -44 -32t-46 -18t-45 -8t-42 -2q-47 0 -87.5 11.5
t-75.5 44.5q-23 23 -40.5 56.5t-17.5 81.5q0 8 1 22t2 29.5t2 29t2 20.5l48 384h74z" />
    <glyph glyph-name="V" unicode="V" horiz-adv-x="556" 
d="M171 667l125 -509l251 509h83l-357 -707l-183 707h81z" />
    <glyph glyph-name="W" unicode="W" horiz-adv-x="958" 
d="M171 667l115 -500l274 534l133 -534l256 500h83l-366 -702l-131 534l-275 -534l-170 702h81z" />
    <glyph glyph-name="X" unicode="X" horiz-adv-x="502" 
d="M253 345l-139 322h82l107 -251l173 251h84l-223 -322l151 -345h-82l-119 274l-189 -274h-84z" />
    <glyph glyph-name="Y" unicode="Y" horiz-adv-x="530" 
d="M262 287l-172 380h84l133 -298l209 298h88l-268 -380l-35 -287h-74z" />
    <glyph glyph-name="Z" unicode="Z" horiz-adv-x="536" 
d="M157 70h354l-9 -70h-478l437 597h-317l9 70h441z" />
    <glyph glyph-name="bracketleft" unicode="[" horiz-adv-x="289" 
d="M232 663l-94 -767h96l-8 -66h-168l111 899h168l-9 -66h-96z" />
    <glyph glyph-name="backslash" unicode="\" horiz-adv-x="588" 
d="M512 -198l-404 927l58 30l403 -929z" />
    <glyph glyph-name="bracketright" unicode="]" horiz-adv-x="289" 
d="M124 -104l94 767h-96l9 66h168l-111 -899h-168l8 66h96z" />
    <glyph glyph-name="asciicircum" unicode="^" 
d="M149 365h-78l177 302h94l177 -302h-78l-146 247z" />
    <glyph glyph-name="underscore" unicode="_" 
d="M0 -68h500v-64h-500v64z" />
    <glyph glyph-name="grave" unicode="`" 
d="M192 632l78 34l87 -145l-47 -24z" />
    <glyph glyph-name="a" unicode="a" horiz-adv-x="528" 
d="M439 415h72l-51 -415h-72l7 58q-10 -14 -23 -27t-29 -22q-23 -13 -45 -17t-41 -4q-38 0 -72 10t-63 41q-23 25 -38.5 61t-15.5 87q0 64 21.5 110t50.5 74q57 54 149 54q21 0 43 -4t45 -16q19 -10 32 -22t23 -27zM295 361q-35 0 -59.5 -12t-40.5 -27q-23 -22 -38 -57
t-15 -73q0 -31 11 -60t32 -49q19 -18 40.5 -24.5t43.5 -6.5q65 0 103 41q23 23 35 60t12 75q0 42 -14 66t-25 34q-13 12 -33.5 22.5t-51.5 10.5z" />
    <glyph glyph-name="b" unicode="b" horiz-adv-x="528" 
d="M140 0h-72l90 729h72l-46 -372q23 31 54 48q36 20 83 20q36 0 71.5 -10t64.5 -39q18 -17 28.5 -36.5t16 -38.5t7.5 -36t2 -30q0 -56 -18.5 -105t-53.5 -84t-73 -46.5t-77 -11.5q-21 0 -45 4t-47 18q-21 13 -33 27.5t-17 22.5zM290 52q33 0 56.5 11.5t37.5 25.5
q27 26 40 64t13 70t-10.5 58t-27.5 43t-40 27t-50 10q-20 0 -46 -7.5t-52 -32.5q-24 -23 -38 -57t-14 -69q0 -33 11 -60.5t31 -47.5q14 -14 36 -24.5t53 -10.5z" />
    <glyph glyph-name="c" unicode="c" horiz-adv-x="440" 
d="M432 299q-11 12 -24.5 24t-27.5 20q-15 8 -35 13t-40 5q-35 0 -62 -11.5t-49 -31.5q-20 -20 -36.5 -50.5t-16.5 -75.5q0 -39 13 -64.5t27 -39.5q21 -21 45.5 -28.5t50.5 -7.5q22 0 40 4t37 14q20 11 34 23.5t24 23.5l-10 -86q-31 -23 -60 -32q-18 -6 -37 -8.5t-37 -2.5
q-38 0 -76 11t-70 44q-27 28 -41 65t-14 80q0 48 18.5 94t53.5 80q10 10 25.5 21t36 20.5t47 15.5t59.5 6q32 0 67 -8.5t68 -31.5z" />
    <glyph glyph-name="d" unicode="d" horiz-adv-x="528" 
d="M478 729h72l-90 -729h-72l7 58q-12 -18 -27 -31t-31 -21q-19 -10 -39 -14t-42 -4q-35 0 -66.5 10t-60.5 37q-23 23 -42 61t-19 92q0 51 19 99.5t53 80.5q26 26 64.5 41.5t83.5 15.5q20 0 45 -5t45 -15q14 -8 28.5 -20t25.5 -29zM291 361q-26 0 -50.5 -8.5t-46.5 -28.5
q-21 -20 -36.5 -52.5t-15.5 -76.5q0 -40 12.5 -66t26.5 -40q21 -23 45 -30t47 -7q24 0 49.5 6.5t48.5 29.5q26 26 37 63t11 68q0 32 -10 59t-28 47q-19 20 -42 28t-48 8z" />
    <glyph glyph-name="e" unicode="e" horiz-adv-x="483" 
d="M456 106q-14 -24 -35 -48t-42 -38q-31 -20 -62.5 -26t-57.5 -6q-37 0 -71.5 10t-65.5 42q-19 20 -37 55.5t-18 93.5q0 54 19 99.5t52 78.5q32 32 67.5 45t77.5 13q53 0 85 -15.5t50 -33.5q23 -23 39 -67t8 -116h-323q-1 -45 11 -70.5t26 -39.5q18 -18 38.5 -24.5
t43.5 -6.5q18 0 39 4.5t41 18.5q16 11 30.5 29t23.5 35zM396 253q-1 23 -10 45t-25 37q-17 17 -38 21.5t-38 4.5q-28 0 -50 -8t-41 -27q-14 -14 -24.5 -32.5t-15.5 -40.5h242z" />
    <glyph glyph-name="f" unicode="f" horiz-adv-x="240" 
d="M185 349l-43 -349h-72l43 349h-40l8 66h40l22 181q3 26 10.5 56t31.5 54q20 20 44 27t47 7q31 0 58 -9l-9 -70q-11 4 -22.5 6.5t-21.5 2.5q-18 0 -28.5 -5.5t-15.5 -10.5q-8 -8 -14 -23.5t-9 -42.5l-21 -173h102l-8 -66h-102z" />
    <glyph glyph-name="g" unicode="g" horiz-adv-x="526" 
d="M437 415h72l-49 -405q-6 -49 -17 -96t-48 -84q-20 -21 -59 -40.5t-103 -19.5q-54 0 -87.5 15t-52.5 34q-17 17 -26.5 37t-14 38.5t-5.5 34.5t-1 25v6h71v-4q0 -22 5 -47t28 -46q20 -18 43 -23.5t43 -5.5q41 0 66 11.5t39 25.5q28 27 35.5 62.5t10.5 64.5l6 60
q-7 -11 -21 -25.5t-38 -26.5q-17 -8 -37.5 -13t-42.5 -5q-87 0 -137 53q-32 33 -42 71t-10 70q0 51 17 99.5t50 82.5q22 23 59 42t95 19q16 0 42 -3t50 -17q13 -7 27 -19t25 -30zM294 361q-59 0 -100 -38q-26 -24 -40 -59t-14 -77q0 -33 10 -59t27 -43q18 -18 40 -25.5
t45 -7.5q38 0 63 11.5t39 24.5q27 25 40 64t13 74q0 26 -9 53t-27 47q-14 14 -34.5 24.5t-52.5 10.5z" />
    <glyph glyph-name="h" unicode="h" horiz-adv-x="469" 
d="M158 729h72l-45 -362q2 2 13.5 15t28.5 24q20 12 39.5 15.5t36.5 3.5q23 0 50 -6.5t50 -29.5q21 -21 27 -45.5t6 -47.5q0 -16 -2 -33t-4 -36l-28 -227h-72l25 207q2 13 4 35t2 36q0 13 -3.5 30.5t-17.5 31.5q-9 9 -23.5 15t-34.5 6q-24 0 -43 -8t-31 -21
q-21 -22 -29 -54.5t-12 -60.5l-27 -217h-72z" />
    <glyph glyph-name="i" unicode="i" horiz-adv-x="208" 
d="M191 415l-51 -415h-72l51 415h72zM123 566q0 11 4 21t10 17q6 8 17 13.5t26 5.5q20 0 32 -12q13 -13 13 -33q0 -14 -4.5 -23.5t-11.5 -16.5q-10 -11 -21 -14t-19 -3q-20 0 -34 14q-12 12 -12 31z" />
    <glyph glyph-name="j" unicode="j" horiz-adv-x="207" 
d="M191 415l-80 -645h-72l80 645h72zM122 566q0 11 4 21t10 17q6 8 17 13.5t26 5.5q20 0 32 -12q13 -13 13 -33q0 -14 -4.5 -23.5t-11.5 -16.5q-10 -11 -21 -14t-19 -3q-20 0 -34 14q-12 12 -12 31z" />
    <glyph glyph-name="k" unicode="k" horiz-adv-x="422" 
d="M230 729l-58 -468l171 154h94l-202 -178l181 -237h-92l-143 189l-20 -18l-21 -171h-72l90 729h72z" />
    <glyph glyph-name="l" unicode="l" horiz-adv-x="208" 
d="M230 729l-90 -729h-72l90 729h72z" />
    <glyph glyph-name="m" unicode="m" horiz-adv-x="684" 
d="M119 415h72l-5 -44q8 11 17 20.5t23 17.5q17 9 32 12.5t32 3.5q18 0 36.5 -4t32.5 -13q14 -8 25 -22t17 -28q8 15 19.5 27t24.5 20q18 11 38 15.5t40 4.5q26 0 51 -7.5t46 -27.5q20 -19 26.5 -40.5t6.5 -44.5q0 -17 -2.5 -36.5t-5.5 -46.5l-27 -222h-72l28 222
q2 17 4 32.5t2 29.5q0 11 -3 27t-17 30q-6 6 -18.5 13t-33.5 7q-20 0 -35.5 -7t-26.5 -17q-20 -19 -27.5 -46t-11.5 -60l-28 -231h-72l30 246q3 22 3 48.5t-20 46.5q-8 8 -20.5 14t-32.5 6q-35 0 -59 -24q-22 -22 -29.5 -53t-10.5 -58l-28 -226h-72z" />
    <glyph glyph-name="n" unicode="n" horiz-adv-x="469" 
d="M119 415h72l-6 -48q2 2 13.5 15t28.5 24q20 12 40 15.5t37 3.5q23 0 49.5 -6.5t49.5 -29.5q21 -21 27 -45.5t6 -47.5q0 -16 -2 -33t-4 -36l-28 -227h-72l25 207q2 13 4 35t2 36q0 13 -3.5 30.5t-17.5 31.5q-9 9 -23.5 15t-34.5 6q-24 0 -43 -8t-31 -21q-21 -22 -29 -54.5
t-12 -60.5l-27 -217h-72z" />
    <glyph glyph-name="o" unicode="o" horiz-adv-x="528" 
d="M268 -12q-45 0 -81.5 12.5t-66.5 44.5q-22 23 -37.5 58.5t-15.5 86.5q0 45 16.5 90t58.5 83q68 62 166 62q51 0 88.5 -15.5t63.5 -41.5q32 -32 41.5 -68t9.5 -68q0 -68 -22.5 -112t-47.5 -68q-40 -39 -85.5 -51.5t-87.5 -12.5zM307 361q-21 0 -52 -8.5t-61 -37.5
q-26 -26 -39.5 -59t-13.5 -71q0 -35 12 -58t24 -36q11 -12 34.5 -25.5t61.5 -13.5q39 0 67 14t46 34q23 25 36.5 60t13.5 71q0 32 -10 55t-24 37q-16 17 -40 27.5t-55 10.5z" />
    <glyph glyph-name="p" unicode="p" horiz-adv-x="528" 
d="M111 -230h-72l80 645h72l-7 -58q14 19 29.5 30.5t28.5 18.5q21 11 41.5 15t43.5 4q27 0 62.5 -8.5t67.5 -39.5q24 -23 39 -57.5t15 -85.5q0 -60 -20 -110t-53 -82q-35 -34 -72.5 -44t-76.5 -10q-20 0 -45.5 4t-49.5 19q-14 9 -26.5 21.5t-20.5 25.5zM287 52
q26 0 49.5 7.5t44.5 27.5q29 26 42.5 65t13.5 77t-12 61.5t-24 35.5q-14 14 -36 24.5t-56 10.5t-58.5 -11.5t-44.5 -32.5q-23 -24 -34.5 -57t-11.5 -69q0 -24 7 -50t27 -49q20 -22 43.5 -31t49.5 -9z" />
    <glyph glyph-name="q" unicode="q" horiz-adv-x="529" 
d="M440 415h72l-80 -645h-72l36 288q-8 -11 -22 -25.5t-36 -25.5q-24 -12 -46 -15.5t-42 -3.5q-38 0 -70.5 10.5t-61.5 41.5q-32 33 -41 70.5t-9 67.5q0 57 19 106.5t53 82.5q37 36 79 47t80 11q23 0 43 -4t42 -17q17 -10 29 -22t20 -26zM294 361q-29 0 -53.5 -9t-45.5 -31
q-26 -27 -39 -65.5t-13 -76.5q0 -36 11 -58.5t23 -35.5q17 -18 38.5 -25.5t47.5 -7.5q29 0 55.5 9t49.5 32q26 26 39 61t13 72t-11 60.5t-23 36.5q-14 15 -36 26.5t-56 11.5z" />
    <glyph glyph-name="r" unicode="r" horiz-adv-x="296" 
d="M119 415h72l-6 -45q6 10 16 20.5t26 19.5q15 8 29 11.5t31 3.5q35 0 61 -17l-42 -65q-6 5 -16 9.5t-27 4.5q-15 0 -29 -5t-26 -17q-22 -21 -29.5 -53t-11.5 -63l-27 -219h-72z" />
    <glyph glyph-name="s" unicode="s" horiz-adv-x="350" 
d="M276 319q-3 10 -7.5 16.5t-9.5 11.5q-8 8 -16.5 11t-19.5 3t-21 -2.5t-19 -10.5q-16 -15 -16 -37q0 -11 3.5 -17.5t8.5 -11.5q8 -8 19 -13.5t22 -10.5l38 -19q12 -6 27.5 -16.5t25.5 -20.5q15 -17 21 -35.5t6 -38.5q0 -29 -9 -53.5t-26 -42.5q-14 -15 -30 -24t-32 -13.5
t-31 -5.5t-26 -1q-23 0 -44.5 5t-42.5 22q-36 30 -49 79l63 26q3 -11 9.5 -25t15.5 -24q11 -11 23.5 -15t26.5 -4q10 0 26 2.5t30 15.5q11 10 16 24t5 29q0 26 -22 43q-5 5 -18.5 12.5t-24.5 12.5l-23 11q-13 6 -29 16.5t-26 21.5q-13 14 -18 30.5t-5 34.5q0 29 10.5 50
t24.5 35q22 22 46 28.5t48 6.5q20 0 38 -5t37 -20q26 -21 38 -50z" />
    <glyph glyph-name="t" unicode="t" horiz-adv-x="214" 
d="M185 349l-43 -349h-72l43 349h-44l8 66h44l18 150h72l-18 -150h72l-8 -66h-72z" />
    <glyph glyph-name="u" unicode="u" horiz-adv-x="465" 
d="M163 196q-2 -14 -3 -26.5t-1 -27.5q0 -20 4 -37.5t21 -31.5q12 -11 28.5 -16t33.5 -5q22 0 39 7t28 18q18 18 24 45.5t11 62.5l28 230h72l-29 -238q-5 -42 -14 -79.5t-37 -66.5q-29 -29 -63 -36t-57 -7q-42 0 -71.5 10t-49.5 28q-24 21 -32.5 47t-8.5 58q0 15 2 36t4 35
l26 213h72z" />
    <glyph glyph-name="v" unicode="v" horiz-adv-x="424" 
d="M137 415l90 -280l158 280h82l-258 -442l-150 442h78z" />
    <glyph glyph-name="w" unicode="w" horiz-adv-x="682" 
d="M137 415l88 -282l169 314l90 -314l159 282h82l-261 -444l-89 310l-167 -310l-149 444h78z" />
    <glyph glyph-name="x" unicode="x" horiz-adv-x="452" 
d="M212 222l-127 193h86l90 -141l126 141h88l-176 -194l145 -221h-86l-110 169l-152 -169h-88z" />
    <glyph glyph-name="y" unicode="y" horiz-adv-x="460" 
d="M204 39l-145 376h80l110 -297l172 297h82l-384 -645h-80z" />
    <glyph glyph-name="z" unicode="z" horiz-adv-x="460" 
d="M160 66h288l-8 -66h-432l343 349h-242l8 66h386z" />
    <glyph glyph-name="braceleft" unicode="{" horiz-adv-x="503" 
d="M319 392q-2 -19 -6 -35.5t-15 -33.5q-12 -19 -26 -29t-28 -15q13 -5 22 -13t14 -16q8 -12 11 -24t3 -24q0 -9 -1 -18l-2 -18l-22 -182q-2 -10 -3 -20.5t-1 -21.5q0 -12 4 -23.5t18 -19.5q11 -6 24 -7t27 -1h15l-8 -61h-27q-22 0 -46.5 3t-43.5 16q-24 16 -30.5 37.5
t-6.5 40.5q0 13 2 31.5t3 23.5l22 166q3 21 3 36q0 21 -4.5 31.5t-9.5 16.5q-8 10 -17 13.5t-17 4.5l7 58q15 3 27.5 10.5t20.5 17.5q10 12 14 28t6 33l24 196q2 11 4.5 25.5t9 30t17 30.5t27.5 27q24 17 50 20t49 3h27l-7 -61h-15q-13 0 -31.5 -2.5t-32.5 -13.5
q-17 -14 -21.5 -34.5t-6.5 -36.5z" />
    <glyph glyph-name="bar" unicode="|" 
d="M214 750h72v-1000h-72v1000z" />
    <glyph glyph-name="braceright" unicode="}" horiz-adv-x="503" 
d="M245 166q2 17 6.5 35.5t15.5 36.5q12 19 26.5 28t26.5 13q-9 5 -18 11.5t-16 15.5q-10 13 -12.5 25.5t-2.5 24.5q0 8 1 22.5t4 41.5l16 134q4 29 4.5 40.5t0.5 14.5q0 12 -3.5 25t-15.5 22q-11 8 -26.5 10t-26.5 2h-15l7 61h27q25 0 50 -4t41 -15q14 -9 25 -28.5
t11 -54.5q0 -17 -2 -33t-4 -35l-17 -137q-2 -14 -3.5 -25t-1.5 -25q0 -13 2.5 -26t14.5 -24t31 -14l-7 -58q-17 -2 -28.5 -9t-19.5 -18q-11 -14 -15 -33.5t-5 -28.5l-24 -195q-2 -20 -10.5 -50t-29.5 -51q-24 -23 -57.5 -29t-60.5 -6h-27l8 61h15q11 0 31.5 2.5t34.5 14.5
t19 32.5t7 37.5z" />
    <glyph glyph-name="asciitilde" unicode="~" 
d="M524 335q-11 -20 -26.5 -39t-32.5 -34q-22 -20 -45.5 -29.5t-55.5 -9.5q-29 0 -52.5 9.5t-55.5 26.5q-20 11 -42.5 20.5t-45.5 9.5q-28 0 -53 -20q-11 -10 -22.5 -25t-18.5 -27l-41 26q9 17 25.5 40.5t31.5 37.5q22 21 46 29.5t49 8.5q27 0 52.5 -9.5t62.5 -28.5
q20 -11 40.5 -19.5t43.5 -8.5q34 0 59 21q11 9 21.5 22t18.5 25z" />
    <glyph glyph-name="uni00A0" unicode="&#xa0;" horiz-adv-x="233" 
 />
    <glyph glyph-name="exclamdown" unicode="&#xa1;" horiz-adv-x="280" 
d="M222 302l-65 -532h-72l65 532h72zM147 392q0 16 6 25.5t10 13.5q8 8 18 12t21 4q20 0 33 -13t13 -34q0 -8 -3.5 -18.5t-15.5 -21.5q-16 -13 -36 -13q-13 0 -21 4t-13 9t-8.5 13t-3.5 19z" />
    <glyph glyph-name="cent" unicode="&#xa2;" horiz-adv-x="568" 
d="M504 432q-9 12 -21 23t-25 19q-24 15 -53 17l-37 -305q17 1 31.5 5.5t30.5 12.5q15 8 28.5 19t25.5 27l-10 -86q-35 -26 -65.5 -33.5t-48.5 -8.5l-13 -108h-60l13 110q-36 5 -62.5 19.5t-43.5 32.5q-27 28 -41 65t-14 80q0 48 18.5 94.5t53.5 79.5q20 20 55.5 39.5
t87.5 22.5l12 98h60l-13 -100q32 -3 57 -13.5t44 -23.5zM346 492q-17 -2 -42.5 -12.5t-49.5 -38.5q-18 -21 -29.5 -50.5t-11.5 -64.5q0 -28 7 -51t19 -39q11 -14 28.5 -26.5t40.5 -19.5z" />
    <glyph glyph-name="sterling" unicode="&#xa3;" horiz-adv-x="568" 
d="M476 458q3 17 3 32q0 24 -7 46t-21 37q-14 14 -35.5 23.5t-50.5 9.5t-54 -10t-40 -26q-14 -14 -23 -36.5t-9 -51.5q0 -13 4.5 -41t23.5 -78l19 -50h126l-7 -56h-107q3 -11 5 -23.5t2 -26.5q0 -17 -5.5 -44t-28.5 -61l56 -23q24 -10 41 -15t31 -5q17 0 29.5 6t23.5 17
q11 10 20 22.5t15 23.5l56 -36q-11 -20 -28 -41.5t-33 -33.5q-22 -17 -44 -22.5t-42 -5.5q-25 0 -44 4.5t-37 12.5l-29 12q-32 14 -52.5 18.5t-34.5 4.5q-17 0 -29.5 -5.5t-23.5 -14.5q-8 -7 -17.5 -16.5t-15.5 -17.5l-52 39q13 17 28.5 32t29.5 26q17 12 36 19t42 8
q20 29 26.5 52.5t6.5 40.5q0 14 -2 26.5t-7 26.5h-112l7 56h87l-13 37q-11 30 -20 62t-9 64q0 40 14.5 76t40.5 64q29 30 65 45t86 15q52 0 84.5 -15t50.5 -32q26 -23 38.5 -57t12.5 -72q0 -23 -4 -42h-73z" />
    <glyph glyph-name="currency" unicode="&#xa4;" horiz-adv-x="667" 
d="M233 542q37 32 76.5 41.5t68.5 9.5t68.5 -9.5t76.5 -41.5l95 94l40 -40l-95 -95q32 -37 41.5 -75.5t9.5 -66.5t-9.5 -66.5t-41.5 -75.5l94 -94l-40 -40l-94 93q-37 -32 -76.5 -41.5t-68.5 -9.5t-68.5 9.5t-76.5 41.5l-94 -93l-40 40l94 94q-32 37 -41.5 75.5t-9.5 66.5
t9.5 66.5t41.5 75.5l-95 95l40 40zM378 189q45 0 74 15t46 32q25 26 36.5 58.5t11.5 64.5q0 38 -13.5 69.5t-35.5 53.5q-20 20 -50 33.5t-69 13.5q-38 0 -68.5 -13t-51.5 -34t-34.5 -53t-13.5 -70q0 -26 9.5 -59.5t39.5 -63.5q26 -26 56 -36.5t63 -10.5z" />
    <glyph glyph-name="yen" unicode="&#xa5;" horiz-adv-x="568" 
d="M424 384l-62 -88h192l-7 -56h-198l-29 -240h-74l29 240h-195l7 56h189l-40 88h-138l7 56h106l-103 227h85l133 -298l209 298h89l-161 -227h109l-7 -56h-141z" />
    <glyph glyph-name="brokenbar" unicode="&#xa6;" 
d="M214 750h72v-360h-72v360zM214 110h72v-360h-72v360z" />
    <glyph glyph-name="section" unicode="&#xa7;" horiz-adv-x="566" 
d="M458 540q2 8 2 15v13q0 29 -9 46t-21 27q-9 8 -25.5 15t-42.5 7q-20 0 -39.5 -5.5t-36.5 -22.5q-13 -12 -21 -29.5t-8 -40.5q0 -24 8.5 -40.5t19.5 -26.5q17 -15 39.5 -24.5t42.5 -17.5l26 -11q20 -8 40.5 -21t34.5 -29q16 -18 25.5 -44.5t9.5 -61.5q0 -30 -8 -56
t-26 -49q-14 -18 -34.5 -33t-46.5 -24q14 -11 26 -24t20 -27q10 -17 13.5 -32t3.5 -35q0 -34 -9.5 -67.5t-39.5 -62.5q-20 -20 -53.5 -34.5t-82.5 -14.5q-26 0 -56 7.5t-56 31.5q-25 23 -38.5 59t-13.5 87h72q0 -20 4.5 -42.5t15.5 -39.5q17 -24 37.5 -30.5t39.5 -6.5
q32 0 50 9.5t27 18.5q13 13 20.5 31t7.5 41q0 21 -7 36t-16 24q-6 7 -20.5 16.5t-46.5 23.5l-33 14q-11 5 -36.5 18.5t-45.5 35.5q-15 17 -27 42.5t-12 63.5q0 30 9 57t23 46q14 18 36 34.5t51 26.5q-22 15 -35 31.5t-20 33t-9 32t-2 26.5q0 42 14 71.5t36 50.5q31 30 67 40
t69 10q26 0 57.5 -7.5t57.5 -33.5q19 -18 32 -47.5t13 -74.5v-12.5t-1 -13.5h-72zM325 389q-32 0 -53 -9.5t-34 -23.5q-14 -14 -22.5 -36t-8.5 -48q0 -44 28 -72q19 -19 40.5 -24t38.5 -5q32 0 51 10.5t30 20.5q12 11 22 31.5t10 51.5t-10 49t-19 27q-17 18 -37 23t-36 5z
" />
    <glyph glyph-name="dieresis" unicode="&#xa8;" 
d="M354 543q0 11 4.5 21.5t12.5 18.5q6 6 16 11.5t24 5.5q18 0 31 -12t13 -32q0 -22 -18 -40q-16 -16 -38 -16q-17 0 -31 11.5t-14 31.5zM180 543q0 11 4.5 21.5t12.5 18.5q6 6 16 11.5t24 5.5q18 0 31 -12t13 -32q0 -22 -18 -40q-16 -16 -38 -16q-17 0 -31 11.5t-14 31.5z
" />
    <glyph glyph-name="copyright" unicode="&#xa9;" horiz-adv-x="740" 
d="M555 417q-17 21 -36 32.5t-36.5 17.5t-31 7t-18.5 1q-33 0 -58.5 -12t-43.5 -32q-21 -23 -28.5 -48t-7.5 -51q0 -29 7.5 -55t29.5 -49q14 -15 38.5 -29t61.5 -14q38 0 70.5 17t55.5 44v-81q-36 -26 -68 -33t-56 -7q-41 0 -79 12.5t-70 44.5q-29 29 -44 66.5t-15 79.5
q0 39 15 79t44 70q23 23 59 40.5t89 17.5q29 0 60 -7.5t62 -30.5v-80zM756 334q0 -42 -8.5 -78t-22 -65.5t-30 -53t-33.5 -41.5q-19 -21 -44.5 -40t-57 -34t-68.5 -24t-81 -9q-43 0 -80.5 9t-69 24t-56.5 34t-45 40q-16 18 -33 41.5t-30.5 53t-22 65.5t-8.5 78t8.5 77.5
t22 65t30.5 53t33 41.5q20 21 45 40t56.5 34t69 24t80.5 9q44 0 81 -9t68.5 -24t57 -34t44.5 -40q17 -18 33.5 -41.5t30 -53t22 -65t8.5 -77.5zM411 622q-54 0 -109 -22t-94 -60q-42 -41 -64 -96t-22 -110q0 -56 22 -111t64 -96q39 -38 94 -60t109 -22t109 22t94 60
q42 41 64 96t22 111q0 55 -22 110t-64 96q-39 38 -94 60t-109 22z" />
    <glyph glyph-name="ordfeminine" unicode="&#xaa;" horiz-adv-x="365" 
d="M338 661h51l-33 -266h-51l4 32q-8 -9 -16 -15.5t-18 -11.5q-14 -8 -27 -10.5t-27 -2.5q-32 0 -53.5 9.5t-35.5 22.5q-15 14 -25.5 36t-10.5 55q0 39 15 71t39 52q19 16 44 25t55 9q11 0 24.5 -2t27.5 -9q8 -4 16.5 -11t16.5 -18zM248 623q-17 0 -35 -6t-33 -21
q-15 -14 -24 -35.5t-9 -44.5q0 -17 6 -33t17 -28q10 -11 25.5 -17.5t35.5 -6.5q21 0 38 8t28 20q14 14 21.5 34.5t7.5 45.5q0 24 -8 39t-16 23t-21.5 15t-32.5 7zM349 333l-5 -42h-265l5 42h265z" />
    <glyph glyph-name="guillemotleft" unicode="&#xab;" horiz-adv-x="430" 
d="M240 66l-50 -36l-128 182l173 188l42 -37l-139 -151zM388 66l-50 -36l-128 182l173 188l42 -37l-139 -151z" />
    <glyph glyph-name="logicalnot" unicode="&#xac;" 
d="M410 0v203h-364v64h434v-267h-70z" />
    <glyph glyph-name="uni00AD" unicode="&#xad;" horiz-adv-x="320" 
d="M81 250h220l-9 -74h-220z" />
    <glyph glyph-name="registered" unicode="&#xae;" horiz-adv-x="740" 
d="M480 145l-122 158v-158h-54v374h68q12 0 27 -0.5t30.5 -4t31 -10.5t27.5 -20q12 -12 20 -31t8 -42q0 -25 -8.5 -43t-19.5 -29q-12 -12 -31 -20t-38 -11l129 -163h-68zM358 351h22q17 0 34.5 2.5t30.5 14.5q11 10 14 21t3 22q0 9 -2.5 20.5t-10.5 20.5q-8 8 -23.5 13.5
t-47.5 5.5h-20v-120zM756 332q0 -42 -8.5 -78t-22 -65.5t-30 -53t-33.5 -41.5q-19 -21 -44.5 -40t-57 -34t-68.5 -24t-81 -9q-43 0 -80.5 9t-69 24t-56.5 34t-45 40q-16 18 -33 41.5t-30.5 53t-22 65.5t-8.5 78t8.5 77.5t22 65t30.5 53t33 41.5q20 21 45 40t56.5 34t69 24
t80.5 9q44 0 81 -9t68.5 -24t57 -34t44.5 -40q17 -18 33.5 -41.5t30 -53t22 -65t8.5 -77.5zM411 620q-54 0 -109 -22t-94 -60q-42 -41 -64 -96t-22 -110q0 -56 22 -111t64 -96q39 -38 94 -60t109 -22t109 22t94 60q42 41 64 96t22 111q0 55 -22 110t-64 96q-39 38 -94 60
t-109 22z" />
    <glyph glyph-name="macron" unicode="&#xaf;" 
d="M169 573h302l-7 -60h-302z" />
    <glyph glyph-name="degree" unicode="&#xb0;" horiz-adv-x="495" 
d="M173 520q0 31 11 59t32 50q22 23 47 31.5t54 8.5q39 0 62.5 -11t36.5 -24q22 -21 28.5 -45.5t6.5 -47.5q0 -22 -6.5 -52.5t-35.5 -57.5q-25 -24 -53.5 -31t-51.5 -7q-37 0 -61.5 11.5t-38.5 27.5q-12 14 -21.5 35.5t-9.5 52.5zM223 522q0 -19 6 -34.5t16 -25.5
q6 -7 20.5 -15t40.5 -8q22 0 38 7t27 18q14 13 22 33t8 43q0 25 -8.5 39.5t-16.5 22.5q-5 5 -19.5 13t-40.5 8q-25 0 -40.5 -8.5t-24.5 -17.5q-14 -14 -21 -35t-7 -40z" />
    <glyph glyph-name="plusminus" unicode="&#xb1;" 
d="M62 411h181v171h72v-171h181v-66h-181v-171h-72v171h-181v66zM62 133h434v-66h-434v66z" />
    <glyph glyph-name="twosuperior" unicode="&#xb2;" horiz-adv-x="350" 
d="M64 267l167 169q27 28 39.5 41t17.5 21q11 14 18.5 30t7.5 37q0 10 -3.5 21.5t-14.5 22.5q-12 11 -26 14.5t-28 3.5t-29.5 -4t-28.5 -18q-10 -11 -16 -27.5t-7 -32.5h-50q2 29 14 53t29 41q19 18 42 26t51 8q34 0 55 -9.5t32 -20.5q14 -13 23 -32t9 -43q0 -35 -14 -58.5
t-28 -40.5q-17 -20 -32 -35l-32 -32l-88 -89h163l-6 -46h-265z" />
    <glyph glyph-name="threesuperior" unicode="&#xb3;" horiz-adv-x="350" 
d="M134 376q0 -13 5 -27t14 -24q11 -12 25.5 -15.5t26.5 -3.5q15 0 29.5 4t27.5 17q8 9 15.5 24t7.5 40q0 9 -2.5 22.5t-14.5 24.5t-27 13.5t-27 2.5h-5l5 46h7q12 0 30.5 3.5t32.5 17.5q17 17 17 48q0 25 -14 41q-15 17 -46 17t-48 -17q-9 -9 -14.5 -22.5t-7.5 -24.5h-50
q4 22 14.5 44.5t24.5 36.5q20 20 44.5 24.5t38.5 4.5q35 0 54.5 -10t28.5 -18q17 -15 22.5 -33.5t5.5 -38.5q0 -17 -4 -32t-14 -29q-17 -23 -45 -35q8 -4 17 -11t17 -19q8 -14 10.5 -27t2.5 -24q0 -28 -9 -54t-28 -45q-24 -25 -51 -31t-49 -6q-23 0 -42 5t-36 20
q-18 16 -28 40t-11 51h50z" />
    <glyph glyph-name="acute" unicode="&#xb4;" 
d="M464 632l-151 -135l-42 24l123 145z" />
    <glyph glyph-name="mu" unicode="&#xb5;" horiz-adv-x="522" 
d="M39 -230l79 645h72l-23 -188q-1 -5 -1.5 -14.5t-1.5 -20t-1.5 -20t-0.5 -14.5q0 -16 5 -38t25 -41q11 -11 30.5 -19t48.5 -8q26 0 47.5 8t40.5 26q22 21 33 52t17 79l24 198h72l-51 -415h-72l9 70q-8 -17 -20.5 -33t-25.5 -25q-21 -16 -43 -20t-39 -4q-20 0 -40.5 5
t-40.5 23q-12 11 -21 25.5t-14 29.5l-36 -301h-72z" />
    <glyph glyph-name="mu" unicode="&#x3bc;" horiz-adv-x="522" 
d="M39 -230l79 645h72l-23 -188q-1 -5 -1.5 -14.5t-1.5 -20t-1.5 -20t-0.5 -14.5q0 -16 5 -38t25 -41q11 -11 30.5 -19t48.5 -8q26 0 47.5 8t40.5 26q22 21 33 52t17 79l24 198h72l-51 -415h-72l9 70q-8 -17 -20.5 -33t-25.5 -25q-21 -16 -43 -20t-39 -4q-20 0 -40.5 5
t-40.5 23q-12 11 -21 25.5t-14 29.5l-36 -301h-72z" />
    <glyph glyph-name="paragraph" unicode="&#xb6;" horiz-adv-x="581" 
d="M210 -95l50 409h-15q-38 0 -68.5 12t-50.5 32q-19 18 -31.5 46t-12.5 65q0 36 13 73t41 64q20 20 43 32t48 18.5t50 8.5t48 2h268l-7 -58h-60l-87 -704h-62l87 704h-106l-86 -704h-62z" />
    <glyph glyph-name="periodcentered" unicode="&#xb7;" horiz-adv-x="200" 
d="M78 333q0 14 6 27.5t16 23.5q11 12 23.5 16t23.5 4q28 0 44 -18q6 -6 10.5 -15t4.5 -23q0 -13 -4.5 -26t-15.5 -24q-8 -8 -20.5 -15t-30.5 -7q-24 0 -39 14q-8 8 -13 18.5t-5 24.5z" />
    <glyph glyph-name="cedilla" unicode="&#xb8;" 
d="M322 -79l-116 -128l-46 24l100 131z" />
    <glyph glyph-name="onesuperior" unicode="&#xb9;" horiz-adv-x="350" 
d="M242 621h-78l30 46h106l-49 -400h-52z" />
    <glyph glyph-name="ordmasculine" unicode="&#xba;" horiz-adv-x="367" 
d="M254 667q31 0 57 -10.5t44 -29.5q14 -14 25.5 -38t11.5 -59q0 -32 -11 -55.5t-29 -41.5t-47 -31t-69 -13q-36 0 -60 11.5t-40 26.5q-13 13 -25.5 35t-12.5 57q0 34 13.5 62t34.5 47q42 39 108 39zM357 333l-5 -42h-271l5 42h271zM253 623q-26 0 -44 -7t-29 -18
q-15 -14 -23.5 -34.5t-8.5 -41.5q0 -18 6 -35t17 -29q9 -9 25.5 -17t42.5 -8q25 0 41.5 7t27.5 16q12 11 22.5 30t10.5 48q0 23 -7 38t-16 25q-15 17 -33 21.5t-32 4.5z" />
    <glyph glyph-name="guillemotright" unicode="&#xbb;" horiz-adv-x="430" 
d="M95 364l50 36l128 -182l-173 -188l-42 37l139 151zM243 364l50 36l128 -182l-173 -188l-42 37l139 151z" />
    <glyph glyph-name="onequarter" unicode="&#xbc;" horiz-adv-x="761" 
d="M242 621h-78l30 46h106l-49 -400h-52zM658 680l36 -22l-471 -671l-35 23zM644 122l19 155l-132 -155h113zM694 122h49l-6 -46h-49l-9 -76h-50l9 76h-205l298 346z" />
    <glyph glyph-name="onehalf" unicode="&#xbd;" horiz-adv-x="761" 
d="M242 621h-78l30 46h106l-49 -400h-52zM618 680l36 -22l-471 -671l-35 23zM442 0l167 169q27 28 39.5 41t17.5 21q11 14 18.5 30t7.5 37q0 10 -3.5 21.5t-14.5 22.5q-12 11 -26 14.5t-28 3.5t-29.5 -4t-28.5 -18q-10 -11 -16 -27.5t-7 -32.5h-50q2 29 14 53t29 41
q19 18 42 26t51 8q34 0 55 -9.5t32 -20.5q14 -13 23 -32t9 -43q0 -35 -14 -58.5t-28 -40.5q-17 -20 -32 -35l-32 -32l-88 -89h163l-6 -46h-265z" />
    <glyph glyph-name="threequarters" unicode="&#xbe;" horiz-adv-x="761" 
d="M134 376q0 -13 5 -27t14 -24q11 -12 25.5 -15.5t26.5 -3.5q15 0 29.5 4t27.5 17q8 9 15.5 24t7.5 40q0 9 -2.5 22.5t-14.5 24.5t-27 13.5t-27 2.5h-5l5 46h7q12 0 30.5 3.5t32.5 17.5q17 17 17 48q0 25 -14 41q-15 17 -46 17t-48 -17q-9 -9 -14.5 -22.5t-7.5 -24.5h-50
q4 22 14.5 44.5t24.5 36.5q20 20 44.5 24.5t38.5 4.5q35 0 54.5 -10t28.5 -18q17 -15 22.5 -33.5t5.5 -38.5q0 -17 -4 -32t-14 -29q-17 -23 -45 -35q8 -4 17 -11t17 -19q8 -14 10.5 -27t2.5 -24q0 -28 -9 -54t-28 -45q-24 -25 -51 -31t-49 -6q-23 0 -42 5t-36 20
q-18 16 -28 40t-11 51h50zM678 680l36 -22l-471 -671l-35 23zM694 122h49l-6 -46h-49l-9 -76h-50l9 76h-205l298 346zM644 122l19 155l-132 -155h113z" />
    <glyph glyph-name="questiondown" unicode="&#xbf;" horiz-adv-x="440" 
d="M105 147q3 31 16 63t34 52q15 15 41.5 26.5t64.5 11.5q20 0 47.5 -6t51.5 -30q11 -11 23 -32.5t12 -57.5q0 -35 -12 -60.5t-29 -42.5q-30 -28 -101 -52l-46 -15q-23 -8 -36.5 -18.5t-21.5 -20.5q-7 -9 -12.5 -23.5t-5.5 -37.5q0 -12 4 -27.5t18 -29.5q8 -8 21.5 -14.5
t34.5 -6.5q18 0 37.5 5.5t33.5 18.5q7 6 17.5 25t10.5 57v11.5t-1 12.5h74v-8q0 -38 -9.5 -75.5t-35.5 -65.5q-17 -18 -48.5 -33.5t-85.5 -15.5q-31 0 -55 8t-47 28q-24 22 -34 47.5t-10 56.5q0 40 14 71t34 51t43 30.5t41 16.5l43 14q17 5 37 13.5t34 23.5q19 21 19 54
q0 19 -6.5 29.5t-12.5 15.5q-18 15 -48 15q-23 0 -36.5 -8t-21.5 -18q-8 -11 -13 -27.5t-6 -31.5h-72zM227 392q0 16 6 25.5t10 13.5q8 8 18 12t21 4q20 0 33 -13t13 -34q0 -8 -3.5 -18.5t-15.5 -21.5q-16 -13 -36 -13q-13 0 -21 4t-13 9t-8.5 13t-3.5 19z" />
    <glyph glyph-name="Agrave" unicode="&#xc0;" horiz-adv-x="622" 
d="M479 188h-284l-103 -188h-84l393 699l213 -699h-80zM459 258l-80 267l-146 -267h226zM271 837l75 45l110 -130l-47 -32z" />
    <glyph glyph-name="Aacute" unicode="&#xc1;" horiz-adv-x="622" 
d="M479 188h-284l-103 -188h-84l393 699l213 -699h-80zM459 258l-80 267l-146 -267h226zM566 837l-168 -117l-39 32l142 130z" />
    <glyph glyph-name="Acircumflex" unicode="&#xc2;" horiz-adv-x="622" 
d="M479 188h-284l-103 -188h-84l393 699l213 -699h-80zM459 258l-80 267l-146 -267h226zM315 721l-51 41l154 119l126 -119l-53 -41l-79 76z" />
    <glyph glyph-name="Atilde" unicode="&#xc3;" horiz-adv-x="622" 
d="M479 188h-284l-103 -188h-84l393 699l213 -699h-80zM459 258l-80 267l-146 -267h226zM565 807q-7 -14 -15.5 -24t-19.5 -20q-14 -11 -29.5 -19.5t-38.5 -8.5q-18 0 -31 5t-23 10l-21 12q-11 6 -20.5 10.5t-23.5 4.5q-10 0 -17 -3t-15 -11q-5 -5 -11 -13.5t-10 -16.5
l-40 36q8 12 18.5 25.5t21.5 22.5q28 24 64 24q17 0 31.5 -5.5t25.5 -11.5l25 -14q5 -3 14.5 -7t20.5 -4q7 0 16 3t18 11q13 13 21 29z" />
    <glyph glyph-name="Adieresis" unicode="&#xc4;" horiz-adv-x="622" 
d="M479 188h-284l-103 -188h-84l393 699l213 -699h-80zM459 258l-80 267l-146 -267h226zM448 778q0 8 2.5 17.5t12.5 20.5t21 15t21 4q19 0 32 -12q5 -5 9 -12.5t4 -18.5q0 -24 -16 -42q-6 -6 -16 -11.5t-24 -5.5t-22 4.5t-12 8.5q-12 12 -12 32zM258 778q0 8 2.5 17.5
t12.5 20.5t21 15t21 4q19 0 32 -12q5 -5 9 -12.5t4 -18.5q0 -24 -16 -42q-6 -6 -16 -11.5t-24 -5.5t-22 4.5t-12 8.5q-12 12 -12 32z" />
    <glyph glyph-name="Aring" unicode="&#xc5;" horiz-adv-x="622" 
d="M479 188h-284l-103 -188h-84l393 699l213 -699h-80zM459 258l-80 267l-146 -267h226zM319 809q0 22 8.5 40.5t20.5 30.5t28 19t39 7q25 0 39 -8t22 -16q5 -5 13 -19t8 -39q0 -21 -7.5 -38.5t-20.5 -30.5q-11 -11 -28 -18t-40 -7q-14 0 -29 4t-29 17q-8 8 -16 22t-8 36z
M367 814q0 -7 2 -13.5t8 -12.5q4 -4 10.5 -7.5t17.5 -3.5q19 0 32 12q14 12 14 33q0 19 -12 29q-5 5 -12.5 7.5t-15.5 2.5q-19 0 -31 -12q-3 -3 -8 -11.5t-5 -23.5z" />
    <glyph glyph-name="AE" unicode="&#xc6;" horiz-adv-x="900" 
d="M482 187h-284l-102 -187h-82l379 667h293l20 -70h-269l59 -198h264l20 -70h-262l77 -259h271l20 -70h-348zM462 257l-78 261l-145 -261h223z" />
    <glyph glyph-name="Ccedilla" unicode="&#xc7;" horiz-adv-x="650" 
d="M664 520q-14 15 -33 31t-45 30q-29 15 -56.5 21t-56.5 6q-66 0 -121 -23t-96 -64q-41 -42 -64 -97.5t-23 -116.5t21 -106t49 -74q36 -38 78 -53.5t90 -15.5q38 0 70 7.5t57 20.5q20 11 43.5 27t40.5 32l-11 -92q-20 -14 -43.5 -27t-41.5 -20q-23 -8 -55.5 -13t-64.5 -5
q-74 0 -130 23t-97 65q-46 47 -65 103t-19 120q0 55 11.5 99.5t28 78.5t36.5 59t36 41q60 59 128 80t142 21q29 0 64 -4.5t67 -18.5q16 -7 35 -18.5t36 -24.5zM444 -82l-120 -128l-47 26l101 132z" />
    <glyph glyph-name="Egrave" unicode="&#xc8;" horiz-adv-x="482" 
d="M505 597h-272l-24 -198h264l-9 -70h-264l-31 -259h272l-9 -70h-346l82 667h346zM221 837l75 45l110 -130l-47 -32z" />
    <glyph glyph-name="Eacute" unicode="&#xc9;" horiz-adv-x="482" 
d="M505 597h-272l-24 -198h264l-9 -70h-264l-31 -259h272l-9 -70h-346l82 667h346zM505 837l-168 -117l-39 32l142 130z" />
    <glyph glyph-name="Ecircumflex" unicode="&#xca;" horiz-adv-x="482" 
d="M505 597h-272l-24 -198h264l-9 -70h-264l-31 -259h272l-9 -70h-346l82 667h346zM265 721l-51 41l154 119l126 -119l-53 -41l-79 76z" />
    <glyph glyph-name="Edieresis" unicode="&#xcb;" horiz-adv-x="482" 
d="M505 597h-272l-24 -198h264l-9 -70h-264l-31 -259h272l-9 -70h-346l82 667h346zM400 778q0 8 2.5 17.5t12.5 20.5t21 15t21 4q19 0 32 -12q5 -5 9 -12.5t4 -18.5q0 -24 -16 -42q-6 -6 -16 -11.5t-24 -5.5t-22 4.5t-12 8.5q-12 12 -12 32zM210 778q0 8 2.5 17.5t12.5 20.5
t21 15t21 4q19 0 32 -12q5 -5 9 -12.5t4 -18.5q0 -24 -16 -42q-6 -6 -16 -11.5t-24 -5.5t-22 4.5t-12 8.5q-12 12 -12 32z" />
    <glyph glyph-name="Igrave" unicode="&#xcc;" horiz-adv-x="246" 
d="M242 667l-82 -667h-74l82 667h74zM74 837l75 45l110 -130l-47 -32z" />
    <glyph glyph-name="Iacute" unicode="&#xcd;" horiz-adv-x="246" 
d="M242 667l-82 -667h-74l82 667h74zM383 837l-168 -117l-39 32l142 130z" />
    <glyph glyph-name="Icircumflex" unicode="&#xce;" horiz-adv-x="246" 
d="M242 667l-82 -667h-74l82 667h74zM126 721l-51 41l154 119l126 -119l-53 -41l-79 76z" />
    <glyph glyph-name="Idieresis" unicode="&#xcf;" horiz-adv-x="246" 
d="M242 667l-82 -667h-74l82 667h74zM234 778q0 11 4 23t14 21q13 13 33 13q7 0 14.5 -2.5t14.5 -9.5q12 -13 12 -35q0 -23 -16 -41q-14 -14 -34 -14q-18 0 -30 12t-12 33zM112 778q0 11 4 23t14 21q13 13 33 13q7 0 14.5 -2.5t14.5 -9.5q12 -13 12 -35q0 -23 -16 -41
q-14 -14 -34 -14q-18 0 -30 12t-12 33z" />
    <glyph glyph-name="Eth" unicode="&#xd0;" horiz-adv-x="634" 
d="M126 336h-86l8 64h86l32 267h121q28 0 61 -3t67 -11.5t67.5 -25t61.5 -43.5q31 -30 56 -81.5t25 -134.5q0 -29 -4 -62.5t-15 -69t-29.5 -70t-48.5 -64.5q-31 -31 -66 -51t-74.5 -31.5t-83 -15.5t-91.5 -4h-129zM207 400h136l-8 -64h-136l-32 -266h49q82 0 145 16.5
t109 62.5q25 25 40 54t23.5 58t11 55.5t2.5 45.5q0 40 -11.5 84t-48.5 82q-23 24 -49.5 38t-52 20.5t-48.5 8.5t-41 2h-65z" />
    <glyph glyph-name="Ntilde" unicode="&#xd1;" horiz-adv-x="766" 
d="M86 0l85 695l453 -547l64 519h74l-86 -697l-453 547l-63 -517h-74zM637 807q-7 -14 -15.5 -24t-19.5 -20q-14 -11 -29.5 -19.5t-38.5 -8.5q-18 0 -31 5t-23 10l-21 12q-11 6 -20.5 10.5t-23.5 4.5q-10 0 -17 -3t-15 -11q-5 -5 -11 -13.5t-10 -16.5l-40 36q8 12 18.5 25.5
t21.5 22.5q28 24 64 24q17 0 31.5 -5.5t25.5 -11.5l25 -14q5 -3 14.5 -7t20.5 -4q7 0 16 3t18 11q13 13 21 29z" />
    <glyph glyph-name="Ograve" unicode="&#xd2;" horiz-adv-x="800" 
d="M399 -12q-55 0 -113.5 18t-108.5 69q-15 16 -30.5 37.5t-28 49t-20 61t-7.5 73.5q0 51 10 93.5t26.5 77t37 61t40.5 45.5q110 105 274 105q55 0 113.5 -16.5t110.5 -67.5q16 -16 32 -37t28.5 -48t20 -60t7.5 -73q0 -78 -27.5 -153t-84.5 -130q-44 -42 -114 -73.5
t-166 -31.5zM471 608q-64 0 -118 -21.5t-93 -57.5q-35 -33 -63.5 -87.5t-28.5 -131.5q0 -62 20 -108t49 -76q26 -27 67.5 -47.5t102.5 -20.5q68 0 123.5 22t92.5 58q45 43 68 103.5t23 120.5q0 57 -19.5 102t-50.5 76q-25 25 -67 46.5t-106 21.5zM361 837l75 45l110 -130
l-47 -32z" />
    <glyph glyph-name="Oacute" unicode="&#xd3;" horiz-adv-x="800" 
d="M399 -12q-55 0 -113.5 18t-108.5 69q-15 16 -30.5 37.5t-28 49t-20 61t-7.5 73.5q0 51 10 93.5t26.5 77t37 61t40.5 45.5q110 105 274 105q55 0 113.5 -16.5t110.5 -67.5q16 -16 32 -37t28.5 -48t20 -60t7.5 -73q0 -78 -27.5 -153t-84.5 -130q-44 -42 -114 -73.5
t-166 -31.5zM471 608q-64 0 -118 -21.5t-93 -57.5q-35 -33 -63.5 -87.5t-28.5 -131.5q0 -62 20 -108t49 -76q26 -27 67.5 -47.5t102.5 -20.5q68 0 123.5 22t92.5 58q45 43 68 103.5t23 120.5q0 57 -19.5 102t-50.5 76q-25 25 -67 46.5t-106 21.5zM635 837l-168 -117l-39 32
l142 130z" />
    <glyph glyph-name="Ocircumflex" unicode="&#xd4;" horiz-adv-x="800" 
d="M399 -12q-55 0 -113.5 18t-108.5 69q-15 16 -30.5 37.5t-28 49t-20 61t-7.5 73.5q0 51 10 93.5t26.5 77t37 61t40.5 45.5q110 105 274 105q55 0 113.5 -16.5t110.5 -67.5q16 -16 32 -37t28.5 -48t20 -60t7.5 -73q0 -78 -27.5 -153t-84.5 -130q-44 -42 -114 -73.5
t-166 -31.5zM471 608q-64 0 -118 -21.5t-93 -57.5q-35 -33 -63.5 -87.5t-28.5 -131.5q0 -62 20 -108t49 -76q26 -27 67.5 -47.5t102.5 -20.5q68 0 123.5 22t92.5 58q45 43 68 103.5t23 120.5q0 57 -19.5 102t-50.5 76q-25 25 -67 46.5t-106 21.5zM402 721l-51 41l154 119
l126 -119l-53 -41l-79 76z" />
    <glyph glyph-name="Otilde" unicode="&#xd5;" horiz-adv-x="800" 
d="M399 -12q-55 0 -113.5 18t-108.5 69q-15 16 -30.5 37.5t-28 49t-20 61t-7.5 73.5q0 51 10 93.5t26.5 77t37 61t40.5 45.5q110 105 274 105q55 0 113.5 -16.5t110.5 -67.5q16 -16 32 -37t28.5 -48t20 -60t7.5 -73q0 -78 -27.5 -153t-84.5 -130q-44 -42 -114 -73.5
t-166 -31.5zM471 608q-64 0 -118 -21.5t-93 -57.5q-35 -33 -63.5 -87.5t-28.5 -131.5q0 -62 20 -108t49 -76q26 -27 67.5 -47.5t102.5 -20.5q68 0 123.5 22t92.5 58q45 43 68 103.5t23 120.5q0 57 -19.5 102t-50.5 76q-25 25 -67 46.5t-106 21.5zM651 807q-7 -14 -15.5 -24
t-19.5 -20q-14 -11 -29.5 -19.5t-38.5 -8.5q-18 0 -31 5t-23 10l-21 12q-11 6 -20.5 10.5t-23.5 4.5q-10 0 -17 -3t-15 -11q-5 -5 -11 -13.5t-10 -16.5l-40 36q8 12 18.5 25.5t21.5 22.5q28 24 64 24q17 0 31.5 -5.5t25.5 -11.5l25 -14q5 -3 14.5 -7t20.5 -4q7 0 16 3t18 11
q13 13 21 29z" />
    <glyph glyph-name="Odieresis" unicode="&#xd6;" horiz-adv-x="800" 
d="M399 -12q-55 0 -113.5 18t-108.5 69q-15 16 -30.5 37.5t-28 49t-20 61t-7.5 73.5q0 51 10 93.5t26.5 77t37 61t40.5 45.5q110 105 274 105q55 0 113.5 -16.5t110.5 -67.5q16 -16 32 -37t28.5 -48t20 -60t7.5 -73q0 -78 -27.5 -153t-84.5 -130q-44 -42 -114 -73.5
t-166 -31.5zM471 608q-64 0 -118 -21.5t-93 -57.5q-35 -33 -63.5 -87.5t-28.5 -131.5q0 -62 20 -108t49 -76q26 -27 67.5 -47.5t102.5 -20.5q68 0 123.5 22t92.5 58q45 43 68 103.5t23 120.5q0 57 -19.5 102t-50.5 76q-25 25 -67 46.5t-106 21.5zM530 778q0 8 2.5 17.5
t12.5 20.5t21 15t21 4q19 0 32 -12q5 -5 9 -12.5t4 -18.5q0 -24 -16 -42q-6 -6 -16 -11.5t-24 -5.5t-22 4.5t-12 8.5q-12 12 -12 32zM340 778q0 8 2.5 17.5t12.5 20.5t21 15t21 4q19 0 32 -12q5 -5 9 -12.5t4 -18.5q0 -24 -16 -42q-6 -6 -16 -11.5t-24 -5.5t-22 4.5t-12 8.5
q-12 12 -12 32z" />
    <glyph glyph-name="multiply" unicode="&#xd7;" 
d="M247 333l-149 149l47 47l149 -149l149 149l47 -47l-149 -149l143 -143l-47 -47l-143 143l-143 -143l-47 47z" />
    <glyph glyph-name="Oslash" unicode="&#xd8;" horiz-adv-x="800" 
d="M737 554q23 -34 39 -76.5t16 -101.5q0 -78 -27.5 -153t-84.5 -130q-45 -43 -114.5 -74t-163.5 -31q-72 0 -122.5 20.5t-92.5 57.5l-89 -79l-43 50l90 80q-26 38 -39.5 80.5t-13.5 98.5q0 91 30.5 158.5t83.5 118.5q110 105 274 105q64 0 114.5 -16.5t98.5 -57.5l91 81
l44 -50zM633 551q-38 34 -76.5 45.5t-84.5 11.5q-75 0 -127 -24.5t-84 -54.5q-37 -35 -64.5 -88t-27.5 -131q0 -42 8 -75t28 -65zM246 119q33 -30 71 -45.5t91 -15.5q69 0 123.5 22t92.5 58q38 37 64.5 94.5t26.5 129.5q0 43 -9.5 75t-29.5 63z" />
    <glyph glyph-name="Ugrave" unicode="&#xd9;" horiz-adv-x="646" 
d="M194 275q-3 -23 -5 -41.5t-2 -38.5q0 -28 10 -54t33 -47q26 -24 54.5 -30t57.5 -6q12 0 28 1t32.5 5.5t33.5 14t32 26.5q14 16 23 36t14.5 41t8 41t4.5 35l50 409h74l-53 -429q-7 -55 -21 -102t-57 -88q-21 -20 -44 -32t-46 -18t-45 -8t-42 -2q-47 0 -87.5 11.5
t-75.5 44.5q-23 23 -40.5 56.5t-17.5 81.5q0 8 1 22t2 29.5t2 29t2 20.5l48 384h74zM281 837l75 45l110 -130l-47 -32z" />
    <glyph glyph-name="Uacute" unicode="&#xda;" horiz-adv-x="646" 
d="M194 275q-3 -23 -5 -41.5t-2 -38.5q0 -28 10 -54t33 -47q26 -24 54.5 -30t57.5 -6q12 0 28 1t32.5 5.5t33.5 14t32 26.5q14 16 23 36t14.5 41t8 41t4.5 35l50 409h74l-53 -429q-7 -55 -21 -102t-57 -88q-21 -20 -44 -32t-46 -18t-45 -8t-42 -2q-47 0 -87.5 11.5
t-75.5 44.5q-23 23 -40.5 56.5t-17.5 81.5q0 8 1 22t2 29.5t2 29t2 20.5l48 384h74zM571 837l-168 -117l-39 32l142 130z" />
    <glyph glyph-name="Ucircumflex" unicode="&#xdb;" horiz-adv-x="646" 
d="M194 275q-3 -23 -5 -41.5t-2 -38.5q0 -28 10 -54t33 -47q26 -24 54.5 -30t57.5 -6q12 0 28 1t32.5 5.5t33.5 14t32 26.5q14 16 23 36t14.5 41t8 41t4.5 35l50 409h74l-53 -429q-7 -55 -21 -102t-57 -88q-21 -20 -44 -32t-46 -18t-45 -8t-42 -2q-47 0 -87.5 11.5
t-75.5 44.5q-23 23 -40.5 56.5t-17.5 81.5q0 8 1 22t2 29.5t2 29t2 20.5l48 384h74zM328 721l-51 41l154 119l126 -119l-53 -41l-79 76z" />
    <glyph glyph-name="Udieresis" unicode="&#xdc;" horiz-adv-x="646" 
d="M194 275q-3 -23 -5 -41.5t-2 -38.5q0 -28 10 -54t33 -47q26 -24 54.5 -30t57.5 -6q12 0 28 1t32.5 5.5t33.5 14t32 26.5q14 16 23 36t14.5 41t8 41t4.5 35l50 409h74l-53 -429q-7 -55 -21 -102t-57 -88q-21 -20 -44 -32t-46 -18t-45 -8t-42 -2q-47 0 -87.5 11.5
t-75.5 44.5q-23 23 -40.5 56.5t-17.5 81.5q0 8 1 22t2 29.5t2 29t2 20.5l48 384h74zM463 778q0 8 2.5 17.5t12.5 20.5t21 15t21 4q19 0 32 -12q5 -5 9 -12.5t4 -18.5q0 -24 -16 -42q-6 -6 -16 -11.5t-24 -5.5t-22 4.5t-12 8.5q-12 12 -12 32zM273 778q0 8 2.5 17.5
t12.5 20.5t21 15t21 4q19 0 32 -12q5 -5 9 -12.5t4 -18.5q0 -24 -16 -42q-6 -6 -16 -11.5t-24 -5.5t-22 4.5t-12 8.5q-12 12 -12 32z" />
    <glyph glyph-name="Yacute" unicode="&#xdd;" horiz-adv-x="530" 
d="M262 287l-172 380h84l133 -298l209 298h88l-268 -380l-35 -287h-74zM520 837l-168 -117l-39 32l142 130z" />
    <glyph glyph-name="Thorn" unicode="&#xde;" horiz-adv-x="457" 
d="M242 667l-12 -100h46q51 0 93 -13t68 -38q20 -20 33 -52t13 -74q0 -49 -16 -85t-38 -57q-21 -20 -65 -39t-124 -19h-57l-23 -190h-74l82 667h74zM192 260h63q27 0 60.5 6t59.5 30q15 14 25.5 36.5t10.5 55.5q0 34 -11.5 54t-25.5 31q-20 16 -47.5 20t-50.5 4h-55z" />
    <glyph glyph-name="germandbls" unicode="&#xdf;" horiz-adv-x="529" 
d="M71 0l43 349h-66l8 66h66l17 138q4 29 15.5 66.5t41.5 69.5q20 21 52 36.5t80 15.5q42 0 71 -14t47 -31q28 -27 36 -58t8 -58t-6 -50t-21 -45q-14 -21 -31.5 -33t-35.5 -19q23 -9 41.5 -22.5t37.5 -32.5q26 -30 33 -61t7 -60q0 -51 -16 -98.5t-60 -89.5
q-25 -24 -52 -39.5t-54.5 -24.5t-53.5 -12.5t-48 -4.5l8 70q40 2 78.5 17t64.5 39q26 23 41.5 57.5t15.5 76.5q0 34 -11.5 60.5t-29.5 43.5q-22 21 -54 32t-62 12l8 64q24 0 50.5 8.5t44.5 25.5q9 8 20.5 28.5t11.5 57.5q0 15 -4 35t-21 37q-11 11 -28 18t-39 7
q-42 0 -71 -27q-13 -13 -21.5 -30t-14 -34.5t-7.5 -34t-4 -30.5l-64 -521h-72z" />
    <glyph glyph-name="agrave" unicode="&#xe0;" horiz-adv-x="528" 
d="M439 415h72l-51 -415h-72l7 58q-10 -14 -23 -27t-29 -22q-23 -13 -45 -17t-41 -4q-38 0 -72 10t-63 41q-23 25 -38.5 61t-15.5 87q0 64 21.5 110t50.5 74q57 54 149 54q21 0 43 -4t45 -16q19 -10 32 -22t23 -27zM295 361q-35 0 -59.5 -12t-40.5 -27q-23 -22 -38 -57
t-15 -73q0 -31 11 -60t32 -49q19 -18 40.5 -24.5t43.5 -6.5q65 0 103 41q23 23 35 60t12 75q0 42 -14 66t-25 34q-13 12 -33.5 22.5t-51.5 10.5zM192 632l78 34l87 -145l-47 -24z" />
    <glyph glyph-name="aacute" unicode="&#xe1;" horiz-adv-x="528" 
d="M439 415h72l-51 -415h-72l7 58q-10 -14 -23 -27t-29 -22q-23 -13 -45 -17t-41 -4q-38 0 -72 10t-63 41q-23 25 -38.5 61t-15.5 87q0 64 21.5 110t50.5 74q57 54 149 54q21 0 43 -4t45 -16q19 -10 32 -22t23 -27zM295 361q-35 0 -59.5 -12t-40.5 -27q-23 -22 -38 -57
t-15 -73q0 -31 11 -60t32 -49q19 -18 40.5 -24.5t43.5 -6.5q65 0 103 41q23 23 35 60t12 75q0 42 -14 66t-25 34q-13 12 -33.5 22.5t-51.5 10.5zM464 632l-151 -135l-42 24l123 145z" />
    <glyph glyph-name="acircumflex" unicode="&#xe2;" horiz-adv-x="528" 
d="M439 415h72l-51 -415h-72l7 58q-10 -14 -23 -27t-29 -22q-23 -13 -45 -17t-41 -4q-38 0 -72 10t-63 41q-23 25 -38.5 61t-15.5 87q0 64 21.5 110t50.5 74q57 54 149 54q21 0 43 -4t45 -16q19 -10 32 -22t23 -27zM295 361q-35 0 -59.5 -12t-40.5 -27q-23 -22 -38 -57
t-15 -73q0 -31 11 -60t32 -49q19 -18 40.5 -24.5t43.5 -6.5q65 0 103 41q23 23 35 60t12 75q0 42 -14 66t-25 34q-13 12 -33.5 22.5t-51.5 10.5zM229 497l-46 36l153 121l123 -121l-46 -36l-82 81z" />
    <glyph glyph-name="atilde" unicode="&#xe3;" horiz-adv-x="528" 
d="M439 415h72l-51 -415h-72l7 58q-10 -14 -23 -27t-29 -22q-23 -13 -45 -17t-41 -4q-38 0 -72 10t-63 41q-23 25 -38.5 61t-15.5 87q0 64 21.5 110t50.5 74q57 54 149 54q21 0 43 -4t45 -16q19 -10 32 -22t23 -27zM295 361q-35 0 -59.5 -12t-40.5 -27q-23 -22 -38 -57
t-15 -73q0 -31 11 -60t32 -49q19 -18 40.5 -24.5t43.5 -6.5q65 0 103 41q23 23 35 60t12 75q0 42 -14 66t-25 34q-13 12 -33.5 22.5t-51.5 10.5zM161 531q16 24 40 45q13 11 27 17.5t35 6.5q22 0 37 -6.5t28 -13.5l17 -9q8 -4 17 -7.5t20 -3.5q20 0 35 15q5 5 10.5 13.5
t9.5 14.5l37 -34q-7 -12 -16.5 -25.5t-19.5 -21.5q-14 -12 -29 -17t-32 -5t-31 4.5t-24 9.5l-22 11l-22 10t-22 5t-19 -4.5t-15 -11.5q-9 -8 -15.5 -16.5t-7.5 -10.5z" />
    <glyph glyph-name="adieresis" unicode="&#xe4;" horiz-adv-x="528" 
d="M439 415h72l-51 -415h-72l7 58q-10 -14 -23 -27t-29 -22q-23 -13 -45 -17t-41 -4q-38 0 -72 10t-63 41q-23 25 -38.5 61t-15.5 87q0 64 21.5 110t50.5 74q57 54 149 54q21 0 43 -4t45 -16q19 -10 32 -22t23 -27zM295 361q-35 0 -59.5 -12t-40.5 -27q-23 -22 -38 -57
t-15 -73q0 -31 11 -60t32 -49q19 -18 40.5 -24.5t43.5 -6.5q65 0 103 41q23 23 35 60t12 75q0 42 -14 66t-25 34q-13 12 -33.5 22.5t-51.5 10.5zM371 543q0 11 4.5 21.5t12.5 18.5q6 6 16 11.5t24 5.5q18 0 31 -12t13 -32q0 -22 -18 -40q-16 -16 -38 -16q-17 0 -31 11.5
t-14 31.5zM197 543q0 11 4.5 21.5t12.5 18.5q6 6 16 11.5t24 5.5q18 0 31 -12t13 -32q0 -22 -18 -40q-16 -16 -38 -16q-17 0 -31 11.5t-14 31.5z" />
    <glyph glyph-name="aring" unicode="&#xe5;" horiz-adv-x="528" 
d="M439 415h72l-51 -415h-72l7 58q-10 -14 -23 -27t-29 -22q-23 -13 -45 -17t-41 -4q-38 0 -72 10t-63 41q-23 25 -38.5 61t-15.5 87q0 64 21.5 110t50.5 74q57 54 149 54q21 0 43 -4t45 -16q19 -10 32 -22t23 -27zM295 361q-35 0 -59.5 -12t-40.5 -27q-23 -22 -38 -57
t-15 -73q0 -31 11 -60t32 -49q19 -18 40.5 -24.5t43.5 -6.5q65 0 103 41q23 23 35 60t12 75q0 42 -14 66t-25 34q-13 12 -33.5 22.5t-51.5 10.5zM235 575q0 22 7.5 40.5t19.5 29.5q14 14 30.5 19t32.5 5q23 0 38 -7t23 -15q14 -14 18 -30t4 -30q0 -19 -5.5 -35t-19.5 -30
q-15 -14 -31 -19.5t-36 -5.5q-17 0 -31.5 4t-27.5 17q-8 8 -15 21.5t-7 35.5zM280 579q0 -16 10 -26q10 -12 30 -12q12 0 19.5 4t11.5 8q13 13 13 34q0 19 -11 28q-5 5 -13 7.5t-16 2.5q-19 0 -31 -12q-7 -7 -10 -16t-3 -18z" />
    <glyph glyph-name="ae" unicode="&#xe6;" horiz-adv-x="776" 
d="M415 348q14 19 31.5 32.5t34.5 22.5q20 10 44 16t53 6q50 0 82 -15t50 -34q23 -23 39 -67t8 -115h-327v-8q0 -38 11.5 -63.5t25.5 -39.5q18 -18 38.5 -24.5t43.5 -6.5q21 0 42.5 4.5t41.5 18.5q16 11 30.5 29t23.5 35l61 -33q-14 -24 -35 -48t-42 -38q-17 -12 -46.5 -22
t-73.5 -10q-27 0 -55 6t-48 18q-17 10 -32 26t-26 33q-11 -18 -28.5 -35t-36.5 -27q-21 -11 -50.5 -16t-53.5 -5q-26 0 -59 6t-57 23q-16 11 -32 34t-16 61q0 37 16 66.5t42 47.5q11 8 41 21t86 13q39 0 68 -9t53 -26q3 32 -0.5 62t-25.5 50q-11 10 -30.5 17t-53.5 7
q-27 0 -57 -6t-66 -20l8 68q32 11 65.5 16.5t62.5 5.5q26 0 52 -5t47 -17q22 -12 33.5 -27t16.5 -28zM240 196q-4 0 -13.5 -0.5t-21.5 -2.5t-24.5 -7t-23.5 -13q-9 -7 -18 -20t-9 -33q0 -19 8 -31t19 -20q14 -9 34 -13t41 -4q32 0 50 6.5t26 10.5q24 14 31 31t7 31
q0 17 -8 29t-22 20t-35 12t-41 4zM690 254q-1 26 -11 46.5t-24 34.5q-18 17 -38 21.5t-40 4.5q-26 0 -49 -6.5t-45 -28.5q-14 -14 -24.5 -32.5t-15.5 -39.5h247z" />
    <glyph glyph-name="ccedilla" unicode="&#xe7;" horiz-adv-x="440" 
d="M432 299q-11 12 -24.5 24t-27.5 20q-15 8 -35 13t-40 5q-35 0 -62 -11.5t-49 -31.5q-20 -20 -36.5 -50.5t-16.5 -75.5q0 -39 13 -64.5t27 -39.5q21 -21 45.5 -28.5t50.5 -7.5q22 0 40 4t37 14q20 11 34 23.5t24 23.5l-10 -86q-31 -23 -60 -32q-18 -6 -37 -8.5t-37 -2.5
q-38 0 -76 11t-70 44q-27 28 -41 65t-14 80q0 48 18.5 94t53.5 80q10 10 25.5 21t36 20.5t47 15.5t59.5 6q32 0 67 -8.5t68 -31.5zM302 -79l-116 -128l-46 24l100 131z" />
    <glyph glyph-name="egrave" unicode="&#xe8;" horiz-adv-x="483" 
d="M456 106q-14 -24 -35 -48t-42 -38q-31 -20 -62.5 -26t-57.5 -6q-37 0 -71.5 10t-65.5 42q-19 20 -37 55.5t-18 93.5q0 54 19 99.5t52 78.5q32 32 67.5 45t77.5 13q53 0 85 -15.5t50 -33.5q23 -23 39 -67t8 -116h-323q-1 -45 11 -70.5t26 -39.5q18 -18 38.5 -24.5
t43.5 -6.5q18 0 39 4.5t41 18.5q16 11 30.5 29t23.5 35zM396 253q-1 23 -10 45t-25 37q-17 17 -38 21.5t-38 4.5q-28 0 -50 -8t-41 -27q-14 -14 -24.5 -32.5t-15.5 -40.5h242zM192 632l78 34l87 -145l-47 -24z" />
    <glyph glyph-name="eacute" unicode="&#xe9;" horiz-adv-x="483" 
d="M456 106q-14 -24 -35 -48t-42 -38q-31 -20 -62.5 -26t-57.5 -6q-37 0 -71.5 10t-65.5 42q-19 20 -37 55.5t-18 93.5q0 54 19 99.5t52 78.5q32 32 67.5 45t77.5 13q53 0 85 -15.5t50 -33.5q23 -23 39 -67t8 -116h-323q-1 -45 11 -70.5t26 -39.5q18 -18 38.5 -24.5
t43.5 -6.5q18 0 39 4.5t41 18.5q16 11 30.5 29t23.5 35zM396 253q-1 23 -10 45t-25 37q-17 17 -38 21.5t-38 4.5q-28 0 -50 -8t-41 -27q-14 -14 -24.5 -32.5t-15.5 -40.5h242zM444 632l-151 -135l-42 24l123 145z" />
    <glyph glyph-name="ecircumflex" unicode="&#xea;" horiz-adv-x="483" 
d="M456 106q-14 -24 -35 -48t-42 -38q-31 -20 -62.5 -26t-57.5 -6q-37 0 -71.5 10t-65.5 42q-19 20 -37 55.5t-18 93.5q0 54 19 99.5t52 78.5q32 32 67.5 45t77.5 13q53 0 85 -15.5t50 -33.5q23 -23 39 -67t8 -116h-323q-1 -45 11 -70.5t26 -39.5q18 -18 38.5 -24.5
t43.5 -6.5q18 0 39 4.5t41 18.5q16 11 30.5 29t23.5 35zM396 253q-1 23 -10 45t-25 37q-17 17 -38 21.5t-38 4.5q-28 0 -50 -8t-41 -27q-14 -14 -24.5 -32.5t-15.5 -40.5h242zM203 497l-46 36l153 121l123 -121l-46 -36l-82 81z" />
    <glyph glyph-name="edieresis" unicode="&#xeb;" horiz-adv-x="483" 
d="M456 106q-14 -24 -35 -48t-42 -38q-31 -20 -62.5 -26t-57.5 -6q-37 0 -71.5 10t-65.5 42q-19 20 -37 55.5t-18 93.5q0 54 19 99.5t52 78.5q32 32 67.5 45t77.5 13q53 0 85 -15.5t50 -33.5q23 -23 39 -67t8 -116h-323q-1 -45 11 -70.5t26 -39.5q18 -18 38.5 -24.5
t43.5 -6.5q18 0 39 4.5t41 18.5q16 11 30.5 29t23.5 35zM396 253q-1 23 -10 45t-25 37q-17 17 -38 21.5t-38 4.5q-28 0 -50 -8t-41 -27q-14 -14 -24.5 -32.5t-15.5 -40.5h242zM333 543q0 11 4.5 21.5t12.5 18.5q6 6 16 11.5t24 5.5q18 0 31 -12t13 -32q0 -22 -18 -40
q-16 -16 -38 -16q-17 0 -31 11.5t-14 31.5zM159 543q0 11 4.5 21.5t12.5 18.5q6 6 16 11.5t24 5.5q18 0 31 -12t13 -32q0 -22 -18 -40q-16 -16 -38 -16q-17 0 -31 11.5t-14 31.5z" />
    <glyph glyph-name="igrave" unicode="&#xec;" horiz-adv-x="208" 
d="M191 415l-51 -415h-72l51 415h72zM65 640l80 27l72 -153l-47 -21z" />
    <glyph glyph-name="iacute" unicode="&#xed;" horiz-adv-x="208" 
d="M191 415l-51 -415h-72l51 415h72zM301 640l-141 -147l-45 21l112 153z" />
    <glyph glyph-name="icircumflex" unicode="&#xee;" horiz-adv-x="208" 
d="M191 415l-51 -415h-72l51 415h72zM91 505l-39 35l131 106l105 -106l-47 -35l-67 67z" />
    <glyph glyph-name="idieresis" unicode="&#xef;" horiz-adv-x="208" 
d="M191 415l-51 -415h-72l51 415h72zM204 543q0 11 4.5 21.5t12.5 18.5q6 6 16 11.5t24 5.5q18 0 31 -12t13 -32q0 -22 -18 -40q-16 -16 -38 -16q-17 0 -31 11.5t-14 31.5zM30 543q0 11 4.5 21.5t12.5 18.5q6 6 16 11.5t24 5.5q18 0 31 -12t13 -32q0 -22 -18 -40
q-16 -16 -38 -16q-17 0 -31 11.5t-14 31.5z" />
    <glyph glyph-name="eth" unicode="&#xf0;" horiz-adv-x="519" 
d="M186 673q39 -3 71.5 -11.5t58 -19.5t44 -21.5t28.5 -18.5l128 39l17 -51l-98 -31q17 -17 30.5 -36.5t26.5 -48.5q20 -45 24 -79t4 -69q0 -90 -17 -158t-68 -117q-38 -36 -80 -49.5t-90 -13.5q-38 0 -73 11.5t-65 41.5q-27 27 -43 65.5t-16 83.5q0 49 18 96t49 80
q23 26 65.5 48.5t107.5 22.5q50 0 82 -15.5t52 -32.5q-4 29 -20.5 67.5t-62.5 78.5l-191 -60l-14 54l146 45q-35 19 -69.5 27.5t-69.5 10.5zM439 241q0 21 -7 47t-30 49q-14 14 -36.5 25t-57.5 11q-42 0 -69.5 -14.5t-42.5 -28.5q-23 -22 -37.5 -58t-14.5 -82
q0 -40 12 -64.5t25 -37.5q12 -12 34 -24t58 -12q38 0 66 12.5t48 32.5t36 55.5t16 88.5z" />
    <glyph glyph-name="ntilde" unicode="&#xf1;" horiz-adv-x="469" 
d="M119 415h72l-6 -48q2 2 13.5 15t28.5 24q20 12 40 15.5t37 3.5q23 0 49.5 -6.5t49.5 -29.5q21 -21 27 -45.5t6 -47.5q0 -16 -2 -33t-4 -36l-28 -227h-72l25 207q2 13 4 35t2 36q0 13 -3.5 30.5t-17.5 31.5q-9 9 -23.5 15t-34.5 6q-24 0 -43 -8t-31 -21q-21 -22 -29 -54.5
t-12 -60.5l-27 -217h-72zM141 531q16 24 40 45q13 11 27 17.5t35 6.5q22 0 37 -6.5t28 -13.5l17 -9q8 -4 17 -7.5t20 -3.5q20 0 35 15q5 5 10.5 13.5t9.5 14.5l37 -34q-7 -12 -16.5 -25.5t-19.5 -21.5q-14 -12 -29 -17t-32 -5t-31 4.5t-24 9.5l-22 11l-22 10t-22 5t-19 -4.5
t-15 -11.5q-9 -8 -15.5 -16.5t-7.5 -10.5z" />
    <glyph glyph-name="ograve" unicode="&#xf2;" horiz-adv-x="528" 
d="M268 -12q-45 0 -81.5 12.5t-66.5 44.5q-22 23 -37.5 58.5t-15.5 86.5q0 45 16.5 90t58.5 83q68 62 166 62q51 0 88.5 -15.5t63.5 -41.5q32 -32 41.5 -68t9.5 -68q0 -68 -22.5 -112t-47.5 -68q-40 -39 -85.5 -51.5t-87.5 -12.5zM307 361q-21 0 -52 -8.5t-61 -37.5
q-26 -26 -39.5 -59t-13.5 -71q0 -35 12 -58t24 -36q11 -12 34.5 -25.5t61.5 -13.5q39 0 67 14t46 34q23 25 36.5 60t13.5 71q0 32 -10 55t-24 37q-16 17 -40 27.5t-55 10.5zM204 632l78 34l87 -145l-47 -24z" />
    <glyph glyph-name="oacute" unicode="&#xf3;" horiz-adv-x="528" 
d="M268 -12q-45 0 -81.5 12.5t-66.5 44.5q-22 23 -37.5 58.5t-15.5 86.5q0 45 16.5 90t58.5 83q68 62 166 62q51 0 88.5 -15.5t63.5 -41.5q32 -32 41.5 -68t9.5 -68q0 -68 -22.5 -112t-47.5 -68q-40 -39 -85.5 -51.5t-87.5 -12.5zM307 361q-21 0 -52 -8.5t-61 -37.5
q-26 -26 -39.5 -59t-13.5 -71q0 -35 12 -58t24 -36q11 -12 34.5 -25.5t61.5 -13.5q39 0 67 14t46 34q23 25 36.5 60t13.5 71q0 32 -10 55t-24 37q-16 17 -40 27.5t-55 10.5zM476 632l-151 -135l-42 24l123 145z" />
    <glyph glyph-name="ocircumflex" unicode="&#xf4;" horiz-adv-x="528" 
d="M268 -12q-45 0 -81.5 12.5t-66.5 44.5q-22 23 -37.5 58.5t-15.5 86.5q0 45 16.5 90t58.5 83q68 62 166 62q51 0 88.5 -15.5t63.5 -41.5q32 -32 41.5 -68t9.5 -68q0 -68 -22.5 -112t-47.5 -68q-40 -39 -85.5 -51.5t-87.5 -12.5zM307 361q-21 0 -52 -8.5t-61 -37.5
q-26 -26 -39.5 -59t-13.5 -71q0 -35 12 -58t24 -36q11 -12 34.5 -25.5t61.5 -13.5q39 0 67 14t46 34q23 25 36.5 60t13.5 71q0 32 -10 55t-24 37q-16 17 -40 27.5t-55 10.5zM229 497l-46 36l153 121l123 -121l-46 -36l-82 81z" />
    <glyph glyph-name="otilde" unicode="&#xf5;" horiz-adv-x="528" 
d="M268 -12q-45 0 -81.5 12.5t-66.5 44.5q-22 23 -37.5 58.5t-15.5 86.5q0 45 16.5 90t58.5 83q68 62 166 62q51 0 88.5 -15.5t63.5 -41.5q32 -32 41.5 -68t9.5 -68q0 -68 -22.5 -112t-47.5 -68q-40 -39 -85.5 -51.5t-87.5 -12.5zM307 361q-21 0 -52 -8.5t-61 -37.5
q-26 -26 -39.5 -59t-13.5 -71q0 -35 12 -58t24 -36q11 -12 34.5 -25.5t61.5 -13.5q39 0 67 14t46 34q23 25 36.5 60t13.5 71q0 32 -10 55t-24 37q-16 17 -40 27.5t-55 10.5zM173 531q16 24 40 45q13 11 27 17.5t35 6.5q22 0 37 -6.5t28 -13.5l17 -9q8 -4 17 -7.5t20 -3.5
q20 0 35 15q5 5 10.5 13.5t9.5 14.5l37 -34q-7 -12 -16.5 -25.5t-19.5 -21.5q-14 -12 -29 -17t-32 -5t-31 4.5t-24 9.5l-22 11l-22 10t-22 5t-19 -4.5t-15 -11.5q-9 -8 -15.5 -16.5t-7.5 -10.5z" />
    <glyph glyph-name="odieresis" unicode="&#xf6;" horiz-adv-x="528" 
d="M268 -12q-45 0 -81.5 12.5t-66.5 44.5q-22 23 -37.5 58.5t-15.5 86.5q0 45 16.5 90t58.5 83q68 62 166 62q51 0 88.5 -15.5t63.5 -41.5q32 -32 41.5 -68t9.5 -68q0 -68 -22.5 -112t-47.5 -68q-40 -39 -85.5 -51.5t-87.5 -12.5zM307 361q-21 0 -52 -8.5t-61 -37.5
q-26 -26 -39.5 -59t-13.5 -71q0 -35 12 -58t24 -36q11 -12 34.5 -25.5t61.5 -13.5q39 0 67 14t46 34q23 25 36.5 60t13.5 71q0 32 -10 55t-24 37q-16 17 -40 27.5t-55 10.5zM366 543q0 11 4.5 21.5t12.5 18.5q6 6 16 11.5t24 5.5q18 0 31 -12t13 -32q0 -22 -18 -40
q-16 -16 -38 -16q-17 0 -31 11.5t-14 31.5zM192 543q0 11 4.5 21.5t12.5 18.5q6 6 16 11.5t24 5.5q18 0 31 -12t13 -32q0 -22 -18 -40q-16 -16 -38 -16q-17 0 -31 11.5t-14 31.5z" />
    <glyph glyph-name="divide" unicode="&#xf7;" 
d="M242 515q0 20 14.5 34.5t34.5 14.5t34.5 -14.5t14.5 -34.5t-14.5 -34.5t-34.5 -14.5t-34.5 14.5t-14.5 34.5zM242 151q0 20 14.5 34.5t34.5 14.5t34.5 -14.5t14.5 -34.5t-14.5 -34.5t-34.5 -14.5t-34.5 14.5t-14.5 34.5zM74 366h434v-66h-434v66z" />
    <glyph glyph-name="oslash" unicode="&#xf8;" horiz-adv-x="524" 
d="M478 339q15 -26 21.5 -52t6.5 -57q0 -66 -22 -109.5t-48 -68.5q-40 -39 -85.5 -51.5t-88.5 -12.5q-37 0 -68 8t-63 34l-68 -60l-40 45l69 61q-16 27 -23 55t-7 59q0 63 23 105t52 68q68 62 166 62q42 0 74 -10.5t61 -31.5l70 62l38 -45zM386 334q-17 12 -37.5 19.5
t-46.5 7.5q-33 0 -63 -12t-52 -34q-24 -24 -37.5 -59t-13.5 -72q0 -32 14 -60zM186 79q17 -13 36.5 -20t45.5 -7q68 0 113 48q23 25 36.5 59.5t13.5 76.5q0 29 -11 52z" />
    <glyph glyph-name="ugrave" unicode="&#xf9;" horiz-adv-x="465" 
d="M163 196q-2 -14 -3 -26.5t-1 -27.5q0 -20 4 -37.5t21 -31.5q12 -11 28.5 -16t33.5 -5q22 0 39 7t28 18q18 18 24 45.5t11 62.5l28 230h72l-29 -238q-5 -42 -14 -79.5t-37 -66.5q-29 -29 -63 -36t-57 -7q-42 0 -71.5 10t-49.5 28q-24 21 -32.5 47t-8.5 58q0 15 2 36t4 35
l26 213h72zM182 632l78 34l87 -145l-47 -24z" />
    <glyph glyph-name="uacute" unicode="&#xfa;" horiz-adv-x="465" 
d="M163 196q-2 -14 -3 -26.5t-1 -27.5q0 -20 4 -37.5t21 -31.5q12 -11 28.5 -16t33.5 -5q22 0 39 7t28 18q18 18 24 45.5t11 62.5l28 230h72l-29 -238q-5 -42 -14 -79.5t-37 -66.5q-29 -29 -63 -36t-57 -7q-42 0 -71.5 10t-49.5 28q-24 21 -32.5 47t-8.5 58q0 15 2 36t4 35
l26 213h72zM438 632l-151 -135l-42 24l123 145z" />
    <glyph glyph-name="ucircumflex" unicode="&#xfb;" horiz-adv-x="465" 
d="M163 196q-2 -14 -3 -26.5t-1 -27.5q0 -20 4 -37.5t21 -31.5q12 -11 28.5 -16t33.5 -5q22 0 39 7t28 18q18 18 24 45.5t11 62.5l28 230h72l-29 -238q-5 -42 -14 -79.5t-37 -66.5q-29 -29 -63 -36t-57 -7q-42 0 -71.5 10t-49.5 28q-24 21 -32.5 47t-8.5 58q0 15 2 36t4 35
l26 213h72zM206 497l-46 36l153 121l123 -121l-46 -36l-82 81z" />
    <glyph glyph-name="udieresis" unicode="&#xfc;" horiz-adv-x="465" 
d="M163 196q-2 -14 -3 -26.5t-1 -27.5q0 -20 4 -37.5t21 -31.5q12 -11 28.5 -16t33.5 -5q22 0 39 7t28 18q18 18 24 45.5t11 62.5l28 230h72l-29 -238q-5 -42 -14 -79.5t-37 -66.5q-29 -29 -63 -36t-57 -7q-42 0 -71.5 10t-49.5 28q-24 21 -32.5 47t-8.5 58q0 15 2 36t4 35
l26 213h72zM337 543q0 11 4.5 21.5t12.5 18.5q6 6 16 11.5t24 5.5q18 0 31 -12t13 -32q0 -22 -18 -40q-16 -16 -38 -16q-17 0 -31 11.5t-14 31.5zM163 543q0 11 4.5 21.5t12.5 18.5q6 6 16 11.5t24 5.5q18 0 31 -12t13 -32q0 -22 -18 -40q-16 -16 -38 -16q-17 0 -31 11.5
t-14 31.5z" />
    <glyph glyph-name="yacute" unicode="&#xfd;" horiz-adv-x="460" 
d="M204 39l-145 376h80l110 -297l172 297h82l-384 -645h-80zM444 632l-151 -135l-42 24l123 145z" />
    <glyph glyph-name="thorn" unicode="&#xfe;" horiz-adv-x="528" 
d="M111 -230h-72l118 959h72l-45 -372q14 19 29.5 30.5t28.5 18.5q21 11 41.5 15t43.5 4q27 0 62.5 -8.5t67.5 -39.5q24 -23 39 -57.5t15 -85.5q0 -60 -20 -110t-53 -82q-35 -34 -72.5 -44t-76.5 -10q-20 0 -45.5 4t-49.5 19q-14 9 -26.5 21.5t-20.5 25.5zM287 52
q26 0 49.5 7.5t44.5 27.5q29 26 42.5 65t13.5 77t-12 61.5t-24 35.5q-14 14 -36 24.5t-56 10.5t-58.5 -11.5t-44.5 -32.5q-23 -24 -34.5 -57t-11.5 -69q0 -24 7 -50t27 -49q20 -22 43.5 -31t49.5 -9z" />
    <glyph glyph-name="ydieresis" unicode="&#xff;" horiz-adv-x="460" 
d="M204 39l-145 376h80l110 -297l172 297h82l-384 -645h-80zM334 543q0 11 4.5 21.5t12.5 18.5q6 6 16 11.5t24 5.5q18 0 31 -12t13 -32q0 -22 -18 -40q-16 -16 -38 -16q-17 0 -31 11.5t-14 31.5zM160 543q0 11 4.5 21.5t12.5 18.5q6 6 16 11.5t24 5.5q18 0 31 -12t13 -32
q0 -22 -18 -40q-16 -16 -38 -16q-17 0 -31 11.5t-14 31.5z" />
    <glyph glyph-name="Amacron" unicode="&#x100;" horiz-adv-x="622" 
d="M479 188h-284l-103 -188h-84l393 699l213 -699h-80zM459 258l-80 267l-146 -267h226zM248 797h320l-8 -64h-320z" />
    <glyph glyph-name="amacron" unicode="&#x101;" horiz-adv-x="528" 
d="M439 415h72l-51 -415h-72l7 58q-10 -14 -23 -27t-29 -22q-23 -13 -45 -17t-41 -4q-38 0 -72 10t-63 41q-23 25 -38.5 61t-15.5 87q0 64 21.5 110t50.5 74q57 54 149 54q21 0 43 -4t45 -16q19 -10 32 -22t23 -27zM295 361q-35 0 -59.5 -12t-40.5 -27q-23 -22 -38 -57
t-15 -73q0 -31 11 -60t32 -49q19 -18 40.5 -24.5t43.5 -6.5q65 0 103 41q23 23 35 60t12 75q0 42 -14 66t-25 34q-13 12 -33.5 22.5t-51.5 10.5zM183 573h302l-7 -60h-302z" />
    <glyph glyph-name="Abreve" unicode="&#x102;" horiz-adv-x="622" 
d="M479 188h-284l-103 -188h-84l393 699l213 -699h-80zM459 258l-80 267l-146 -267h226zM568 841q-8 -32 -23.5 -53.5t-32.5 -33.5q-19 -14 -46.5 -23.5t-62.5 -9.5q-22 0 -51.5 6.5t-55.5 32.5q-12 12 -23.5 32t-14.5 49h64q4 -14 11.5 -24.5t15.5 -16.5q12 -9 27.5 -12
t29.5 -3t30.5 3t28.5 11q23 13 35 42h68z" />
    <glyph glyph-name="abreve" unicode="&#x103;" horiz-adv-x="528" 
d="M439 415h72l-51 -415h-72l7 58q-10 -14 -23 -27t-29 -22q-23 -13 -45 -17t-41 -4q-38 0 -72 10t-63 41q-23 25 -38.5 61t-15.5 87q0 64 21.5 110t50.5 74q57 54 149 54q21 0 43 -4t45 -16q19 -10 32 -22t23 -27zM295 361q-35 0 -59.5 -12t-40.5 -27q-23 -22 -38 -57
t-15 -73q0 -31 11 -60t32 -49q19 -18 40.5 -24.5t43.5 -6.5q65 0 103 41q23 23 35 60t12 75q0 42 -14 66t-25 34q-13 12 -33.5 22.5t-51.5 10.5zM240 617q2 -12 8 -23.5t14 -19.5q7 -6 19.5 -11.5t34.5 -5.5q38 0 61 18q11 8 18.5 19.5t12.5 22.5h63q-6 -20 -17 -41t-28 -38
q-25 -25 -52.5 -33t-55.5 -8q-38 0 -61.5 10t-36.5 22q-16 15 -26.5 38t-12.5 50h59z" />
    <glyph glyph-name="Aogonek" unicode="&#x104;" horiz-adv-x="622" 
d="M401 699l213 -699h-18q-11 -8 -24 -18.5t-23 -20.5q-9 -9 -19 -24t-10 -33q0 -11 4.5 -17.5t9.5 -9.5q6 -4 13.5 -5.5t13.5 -1.5q25 0 51 13l-16 -59q-12 -6 -27 -10t-30 -4q-16 0 -33.5 5t-28.5 15q-10 9 -17 24t-7 34q0 21 8 36.5t19 28.5q17 19 33 31.5t21 15.5
l-55 188h-284l-103 -188h-84zM459 258l-80 267l-146 -267h226z" />
    <glyph glyph-name="aogonek" unicode="&#x105;" horiz-adv-x="528" 
d="M439 415h72l-51 -415h-14q-12 -8 -26.5 -18t-25.5 -21q-21 -21 -25 -36.5t-4 -20.5q0 -14 8 -22t19.5 -10t18.5 -2q11 0 23 2.5t28 10.5l-15 -55q-17 -9 -33 -11.5t-27 -2.5q-22 0 -37.5 7t-25.5 16q-8 8 -14.5 20t-6.5 30q0 14 6 33.5t26 40.5q10 11 23 21t30 18l7 58
q-10 -14 -23 -27t-29 -22q-23 -13 -45 -17t-41 -4q-38 0 -72 10t-63 41q-23 25 -38.5 61t-15.5 87q0 64 21.5 110t50.5 74q57 54 149 54q21 0 43 -4t45 -16q19 -10 32 -22t23 -27zM295 361q-35 0 -59.5 -12t-40.5 -27q-23 -22 -38 -57t-15 -73q0 -31 11 -60t32 -49
q19 -18 40.5 -24.5t43.5 -6.5q65 0 103 41q23 23 35 60t12 75q0 42 -14 66t-25 34q-13 12 -33.5 22.5t-51.5 10.5z" />
    <glyph glyph-name="Cacute" unicode="&#x106;" horiz-adv-x="650" 
d="M664 520q-14 15 -33 31t-45 30q-29 15 -56.5 21t-56.5 6q-66 0 -121 -23t-96 -64q-41 -42 -64 -97.5t-23 -116.5t21 -106t49 -74q36 -38 78 -53.5t90 -15.5q38 0 70 7.5t57 20.5q20 11 43.5 27t40.5 32l-11 -92q-20 -14 -43.5 -27t-41.5 -20q-23 -8 -55.5 -13t-64.5 -5
q-74 0 -130 23t-97 65q-46 47 -65 103t-19 120q0 55 11.5 99.5t28 78.5t36.5 59t36 41q60 59 128 80t142 21q29 0 64 -4.5t67 -18.5q16 -7 35 -18.5t36 -24.5zM625 837l-168 -117l-39 32l142 130z" />
    <glyph glyph-name="cacute" unicode="&#x107;" horiz-adv-x="440" 
d="M432 299q-11 12 -24.5 24t-27.5 20q-15 8 -35 13t-40 5q-35 0 -62 -11.5t-49 -31.5q-20 -20 -36.5 -50.5t-16.5 -75.5q0 -39 13 -64.5t27 -39.5q21 -21 45.5 -28.5t50.5 -7.5q22 0 40 4t37 14q20 11 34 23.5t24 23.5l-10 -86q-31 -23 -60 -32q-18 -6 -37 -8.5t-37 -2.5
q-38 0 -76 11t-70 44q-27 28 -41 65t-14 80q0 48 18.5 94t53.5 80q10 10 25.5 21t36 20.5t47 15.5t59.5 6q32 0 67 -8.5t68 -31.5zM453 632l-151 -135l-42 24l123 145z" />
    <glyph glyph-name="Ccircumflex" unicode="&#x108;" horiz-adv-x="650" 
d="M664 520q-14 15 -33 31t-45 30q-29 15 -56.5 21t-56.5 6q-66 0 -121 -23t-96 -64q-41 -42 -64 -97.5t-23 -116.5t21 -106t49 -74q36 -38 78 -53.5t90 -15.5q38 0 70 7.5t57 20.5q20 11 43.5 27t40.5 32l-11 -92q-20 -14 -43.5 -27t-41.5 -20q-23 -8 -55.5 -13t-64.5 -5
q-74 0 -130 23t-97 65q-46 47 -65 103t-19 120q0 55 11.5 99.5t28 78.5t36.5 59t36 41q60 59 128 80t142 21q29 0 64 -4.5t67 -18.5q16 -7 35 -18.5t36 -24.5zM395 721l-51 41l154 119l126 -119l-53 -41l-79 76z" />
    <glyph glyph-name="ccircumflex" unicode="&#x109;" horiz-adv-x="440" 
d="M432 299q-11 12 -24.5 24t-27.5 20q-15 8 -35 13t-40 5q-35 0 -62 -11.5t-49 -31.5q-20 -20 -36.5 -50.5t-16.5 -75.5q0 -39 13 -64.5t27 -39.5q21 -21 45.5 -28.5t50.5 -7.5q22 0 40 4t37 14q20 11 34 23.5t24 23.5l-10 -86q-31 -23 -60 -32q-18 -6 -37 -8.5t-37 -2.5
q-38 0 -76 11t-70 44q-27 28 -41 65t-14 80q0 48 18.5 94t53.5 80q10 10 25.5 21t36 20.5t47 15.5t59.5 6q32 0 67 -8.5t68 -31.5zM223 497l-46 36l153 121l123 -121l-46 -36l-82 81z" />
    <glyph glyph-name="Cdotaccent" unicode="&#x10a;" horiz-adv-x="650" 
d="M664 520q-14 15 -33 31t-45 30q-29 15 -56.5 21t-56.5 6q-66 0 -121 -23t-96 -64q-41 -42 -64 -97.5t-23 -116.5t21 -106t49 -74q36 -38 78 -53.5t90 -15.5q38 0 70 7.5t57 20.5q20 11 43.5 27t40.5 32l-11 -92q-20 -14 -43.5 -27t-41.5 -20q-23 -8 -55.5 -13t-64.5 -5
q-74 0 -130 23t-97 65q-46 47 -65 103t-19 120q0 55 11.5 99.5t28 78.5t36.5 59t36 41q60 59 128 80t142 21q29 0 64 -4.5t67 -18.5q16 -7 35 -18.5t36 -24.5zM449 776q0 17 6 28t14 19q17 16 41 16q12 0 21 -4t16 -10q8 -8 10.5 -16.5t2.5 -18.5q0 -26 -16 -43
q-10 -11 -20 -14.5t-23 -3.5q-26 0 -39 13q-5 5 -9 13t-4 21z" />
    <glyph glyph-name="cdotaccent" unicode="&#x10b;" horiz-adv-x="440" 
d="M432 299q-11 12 -24.5 24t-27.5 20q-15 8 -35 13t-40 5q-35 0 -62 -11.5t-49 -31.5q-20 -20 -36.5 -50.5t-16.5 -75.5q0 -39 13 -64.5t27 -39.5q21 -21 45.5 -28.5t50.5 -7.5q22 0 40 4t37 14q20 11 34 23.5t24 23.5l-10 -86q-31 -23 -60 -32q-18 -6 -37 -8.5t-37 -2.5
q-38 0 -76 11t-70 44q-27 28 -41 65t-14 80q0 48 18.5 94t53.5 80q10 10 25.5 21t36 20.5t47 15.5t59.5 6q32 0 67 -8.5t68 -31.5zM279 546q0 14 4.5 24.5t12.5 18.5q17 17 42 17q13 0 21 -4t13 -9t9 -13t4 -22q0 -15 -5.5 -25.5t-11.5 -16.5q-10 -10 -19.5 -13t-20.5 -3
q-7 0 -17.5 2t-19.5 11q-2 3 -7 11t-5 22z" />
    <glyph glyph-name="Ccaron" unicode="&#x10c;" horiz-adv-x="650" 
d="M664 520q-14 15 -33 31t-45 30q-29 15 -56.5 21t-56.5 6q-66 0 -121 -23t-96 -64q-41 -42 -64 -97.5t-23 -116.5t21 -106t49 -74q36 -38 78 -53.5t90 -15.5q38 0 70 7.5t57 20.5q20 11 43.5 27t40.5 32l-11 -92q-20 -14 -43.5 -27t-41.5 -20q-23 -8 -55.5 -13t-64.5 -5
q-74 0 -130 23t-97 65q-46 47 -65 103t-19 120q0 55 11.5 99.5t28 78.5t36.5 59t36 41q60 59 128 80t142 21q29 0 64 -4.5t67 -18.5q16 -7 35 -18.5t36 -24.5zM582 881l51 -41l-154 -119l-126 119l53 41l79 -76z" />
    <glyph glyph-name="ccaron" unicode="&#x10d;" horiz-adv-x="440" 
d="M432 299q-11 12 -24.5 24t-27.5 20q-15 8 -35 13t-40 5q-35 0 -62 -11.5t-49 -31.5q-20 -20 -36.5 -50.5t-16.5 -75.5q0 -39 13 -64.5t27 -39.5q21 -21 45.5 -28.5t50.5 -7.5q22 0 40 4t37 14q20 11 34 23.5t24 23.5l-10 -86q-31 -23 -60 -32q-18 -6 -37 -8.5t-37 -2.5
q-38 0 -76 11t-70 44q-27 28 -41 65t-14 80q0 48 18.5 94t53.5 80q10 10 25.5 21t36 20.5t47 15.5t59.5 6q32 0 67 -8.5t68 -31.5zM418 654l46 -36l-153 -121l-123 121l46 36l82 -81z" />
    <glyph glyph-name="Dcaron" unicode="&#x10e;" horiz-adv-x="636" 
d="M168 667h121q28 0 61 -3t67 -11.5t67.5 -25t61.5 -43.5q31 -30 56 -81.5t25 -134.5q0 -29 -4 -62.5t-15 -69t-29.5 -70t-48.5 -64.5q-31 -31 -66 -51t-74.5 -31.5t-83 -15.5t-91.5 -4h-129zM169 70h49q82 0 145 16.5t109 62.5q25 25 40 54t23.5 58t11 55.5t2.5 45.5
q0 40 -11.5 84t-48.5 82q-23 24 -49.5 38t-52 20.5t-48.5 8.5t-41 2h-65zM462 881l51 -41l-154 -119l-126 119l53 41l79 -76z" />
    <glyph glyph-name="dcaron" unicode="&#x10f;" horiz-adv-x="600" 
d="M478 729h72l-90 -729h-72l7 58q-12 -18 -27 -31t-31 -21q-19 -10 -39 -14t-42 -4q-35 0 -66.5 10t-60.5 37q-23 23 -42 61t-19 92q0 51 19 99.5t53 80.5q26 26 64.5 41.5t83.5 15.5q20 0 45 -5t45 -15q14 -8 28.5 -20t25.5 -29zM291 361q-26 0 -50.5 -8.5t-46.5 -28.5
q-21 -20 -36.5 -52.5t-15.5 -76.5q0 -40 12.5 -66t26.5 -40q21 -23 45 -30t47 -7q24 0 49.5 6.5t48.5 29.5q26 26 37 63t11 68q0 32 -10 59t-28 47q-19 20 -42 28t-48 8zM636 690l64 -30l-94 -150l-46 22z" />
    <glyph glyph-name="Dcroat" unicode="&#x110;" horiz-adv-x="634" 
d="M126 336h-86l8 64h86l32 267h121q28 0 61 -3t67 -11.5t67.5 -25t61.5 -43.5q31 -30 56 -81.5t25 -134.5q0 -29 -4 -62.5t-15 -69t-29.5 -70t-48.5 -64.5q-31 -31 -66 -51t-74.5 -31.5t-83 -15.5t-91.5 -4h-129zM207 400h136l-8 -64h-136l-32 -266h49q82 0 145 16.5
t109 62.5q25 25 40 54t23.5 58t11 55.5t2.5 45.5q0 40 -11.5 84t-48.5 82q-23 24 -49.5 38t-52 20.5t-48.5 8.5t-41 2h-65z" />
    <glyph glyph-name="dcroat" unicode="&#x111;" horiz-adv-x="528" 
d="M395 58q-12 -18 -27 -31t-31 -21q-19 -10 -39 -14t-42 -4q-35 0 -66.5 10t-60.5 37q-23 23 -42 61t-19 92q0 51 19 99.5t53 80.5q26 26 64.5 41.5t83.5 15.5q20 0 45 -5t45 -15q14 -8 28.5 -20t25.5 -29l24 198h-200l7 60h200l15 115h72l-15 -115h98l-7 -60h-98l-68 -554
h-72zM291 361q-26 0 -50.5 -8.5t-46.5 -28.5q-21 -20 -36.5 -52.5t-15.5 -76.5q0 -40 12.5 -66t26.5 -40q21 -23 45 -30t47 -7q24 0 49.5 6.5t48.5 29.5q26 26 37 63t11 68q0 32 -10 59t-28 47q-19 20 -42 28t-48 8z" />
    <glyph glyph-name="Emacron" unicode="&#x112;" horiz-adv-x="482" 
d="M505 597h-272l-24 -198h264l-9 -70h-264l-31 -259h272l-9 -70h-346l82 667h346zM198 797h320l-8 -64h-320z" />
    <glyph glyph-name="emacron" unicode="&#x113;" horiz-adv-x="483" 
d="M456 106q-14 -24 -35 -48t-42 -38q-31 -20 -62.5 -26t-57.5 -6q-37 0 -71.5 10t-65.5 42q-19 20 -37 55.5t-18 93.5q0 54 19 99.5t52 78.5q32 32 67.5 45t77.5 13q53 0 85 -15.5t50 -33.5q23 -23 39 -67t8 -116h-323q-1 -45 11 -70.5t26 -39.5q18 -18 38.5 -24.5
t43.5 -6.5q18 0 39 4.5t41 18.5q16 11 30.5 29t23.5 35zM396 253q-1 23 -10 45t-25 37q-17 17 -38 21.5t-38 4.5q-28 0 -50 -8t-41 -27q-14 -14 -24.5 -32.5t-15.5 -40.5h242zM148 573h302l-7 -60h-302z" />
    <glyph glyph-name="Edotaccent" unicode="&#x116;" horiz-adv-x="482" 
d="M505 597h-272l-24 -198h264l-9 -70h-264l-31 -259h272l-9 -70h-346l82 667h346zM300 776q0 17 6 28t14 19q17 16 41 16q12 0 21 -4t16 -10q8 -8 10.5 -16.5t2.5 -18.5q0 -26 -16 -43q-10 -11 -20 -14.5t-23 -3.5q-26 0 -39 13q-5 5 -9 13t-4 21z" />
    <glyph glyph-name="edotaccent" unicode="&#x117;" horiz-adv-x="483" 
d="M456 106q-14 -24 -35 -48t-42 -38q-31 -20 -62.5 -26t-57.5 -6q-37 0 -71.5 10t-65.5 42q-19 20 -37 55.5t-18 93.5q0 54 19 99.5t52 78.5q32 32 67.5 45t77.5 13q53 0 85 -15.5t50 -33.5q23 -23 39 -67t8 -116h-323q-1 -45 11 -70.5t26 -39.5q18 -18 38.5 -24.5
t43.5 -6.5q18 0 39 4.5t41 18.5q16 11 30.5 29t23.5 35zM396 253q-1 23 -10 45t-25 37q-17 17 -38 21.5t-38 4.5q-28 0 -50 -8t-41 -27q-14 -14 -24.5 -32.5t-15.5 -40.5h242zM244 546q0 14 4.5 24.5t12.5 18.5q17 17 42 17q13 0 21 -4t13 -9t9 -13t4 -22q0 -15 -5.5 -25.5
t-11.5 -16.5q-10 -10 -19.5 -13t-20.5 -3q-7 0 -17.5 2t-19.5 11q-2 3 -7 11t-5 22z" />
    <glyph glyph-name="Eogonek" unicode="&#x118;" horiz-adv-x="482" 
d="M505 597h-272l-24 -198h264l-9 -70h-264l-31 -259h272l-9 -70h-40q-11 -8 -24 -18.5t-23 -20.5q-9 -9 -19 -24t-10 -33q0 -11 4.5 -17.5t9.5 -9.5q6 -4 13.5 -5.5t13.5 -1.5q25 0 51 13l-16 -59q-12 -6 -27 -10t-30 -4q-16 0 -33.5 5t-28.5 15q-10 9 -17 24t-7 34
q0 21 8 36.5t19 28.5q17 19 33 31.5t21 15.5h-244l82 667h346z" />
    <glyph glyph-name="eogonek" unicode="&#x119;" horiz-adv-x="483" 
d="M456 106q-4 -8 -14.5 -24.5t-28.5 -33.5q-14 -14 -31.5 -26.5t-25.5 -17.5q-12 -8 -26.5 -17.5t-29.5 -25.5q-17 -17 -23 -31.5t-6 -25.5q0 -14 8 -22t19.5 -10t18.5 -2q11 0 23 2.5t28 10.5l-15 -55q-17 -9 -33 -11.5t-27 -2.5q-22 0 -37.5 7t-25.5 16q-21 19 -21 51
t21 59q8 10 18.5 21.5t20.5 19.5q-46 0 -81.5 10t-65.5 42q-19 20 -37 55.5t-18 93.5q0 54 19 99.5t52 78.5q32 32 67.5 45t77.5 13q53 0 85 -15.5t50 -33.5q19 -20 34 -54t15 -88v-20t-2 -21h-323q0 -45 11.5 -70.5t25.5 -39.5q18 -18 38.5 -24.5t43.5 -6.5q18 0 39 4.5
t41 18.5q16 11 30.5 29t23.5 35zM396 253q-1 23 -10 45t-25 37q-17 17 -38 21.5t-38 4.5q-28 0 -50 -8t-41 -27q-14 -14 -24.5 -32.5t-15.5 -40.5h242z" />
    <glyph glyph-name="Ecaron" unicode="&#x11a;" horiz-adv-x="482" 
d="M505 597h-272l-24 -198h264l-9 -70h-264l-31 -259h272l-9 -70h-346l82 667h346zM452 881l51 -41l-154 -119l-126 119l53 41l79 -76z" />
    <glyph glyph-name="ecaron" unicode="&#x11b;" horiz-adv-x="483" 
d="M456 106q-14 -24 -35 -48t-42 -38q-31 -20 -62.5 -26t-57.5 -6q-37 0 -71.5 10t-65.5 42q-19 20 -37 55.5t-18 93.5q0 54 19 99.5t52 78.5q32 32 67.5 45t77.5 13q53 0 85 -15.5t50 -33.5q23 -23 39 -67t8 -116h-323q-1 -45 11 -70.5t26 -39.5q18 -18 38.5 -24.5
t43.5 -6.5q18 0 39 4.5t41 18.5q16 11 30.5 29t23.5 35zM396 253q-1 23 -10 45t-25 37q-17 17 -38 21.5t-38 4.5q-28 0 -50 -8t-41 -27q-14 -14 -24.5 -32.5t-15.5 -40.5h242zM397 654l46 -36l-153 -121l-123 121l46 36l82 -81z" />
    <glyph glyph-name="Gcircumflex" unicode="&#x11c;" horiz-adv-x="760" 
d="M473 335h278l-2 -16q-3 -23 -8.5 -51.5t-16.5 -59t-28.5 -61.5t-44.5 -60q-51 -55 -113 -77t-131 -22q-63 0 -121.5 20t-106.5 68q-37 37 -62.5 91.5t-25.5 131.5q0 90 32 158t78 114q60 61 128.5 84t146.5 23q48 0 90.5 -10t84.5 -36q35 -22 58 -48t37 -51l-61 -50
q-14 27 -33 49t-48 40q-29 19 -60 27.5t-69 8.5q-41 0 -75 -7.5t-61 -19.5t-47.5 -27t-35.5 -29q-46 -46 -67.5 -106.5t-21.5 -117.5q0 -51 18.5 -96.5t50.5 -78.5q40 -42 86.5 -55t91.5 -13q41 0 88.5 12.5t89.5 55.5q29 29 46 66t25 73h-198zM395 721l-51 41l154 119
l126 -119l-53 -41l-79 76z" />
    <glyph glyph-name="gcircumflex" unicode="&#x11d;" horiz-adv-x="526" 
d="M437 415h72l-49 -405q-6 -49 -17 -96t-48 -84q-20 -21 -59 -40.5t-103 -19.5q-54 0 -87.5 15t-52.5 34q-17 17 -26.5 37t-14 38.5t-5.5 34.5t-1 25v6h71v-4q0 -22 5 -47t28 -46q20 -18 43 -23.5t43 -5.5q41 0 66 11.5t39 25.5q28 27 35.5 62.5t10.5 64.5l6 60
q-7 -11 -21 -25.5t-38 -26.5q-17 -8 -37.5 -13t-42.5 -5q-87 0 -137 53q-32 33 -42 71t-10 70q0 51 17 99.5t50 82.5q22 23 59 42t95 19q16 0 42 -3t50 -17q13 -7 27 -19t25 -30zM294 361q-59 0 -100 -38q-26 -24 -40 -59t-14 -77q0 -33 10 -59t27 -43q18 -18 40 -25.5
t45 -7.5q38 0 63 11.5t39 24.5q27 25 40 64t13 74q0 26 -9 53t-27 47q-14 14 -34.5 24.5t-52.5 10.5zM223 497l-46 36l153 121l123 -121l-46 -36l-82 81z" />
    <glyph glyph-name="Gbreve" unicode="&#x11e;" horiz-adv-x="760" 
d="M473 335h278l-2 -16q-3 -23 -8.5 -51.5t-16.5 -59t-28.5 -61.5t-44.5 -60q-51 -55 -113 -77t-131 -22q-63 0 -121.5 20t-106.5 68q-37 37 -62.5 91.5t-25.5 131.5q0 90 32 158t78 114q60 61 128.5 84t146.5 23q48 0 90.5 -10t84.5 -36q35 -22 58 -48t37 -51l-61 -50
q-14 27 -33 49t-48 40q-29 19 -60 27.5t-69 8.5q-41 0 -75 -7.5t-61 -19.5t-47.5 -27t-35.5 -29q-46 -46 -67.5 -106.5t-21.5 -117.5q0 -51 18.5 -96.5t50.5 -78.5q40 -42 86.5 -55t91.5 -13q41 0 88.5 12.5t89.5 55.5q29 29 46 66t25 73h-198zM654 841q-8 -32 -23.5 -53.5
t-32.5 -33.5q-19 -14 -46.5 -23.5t-62.5 -9.5q-22 0 -51.5 6.5t-55.5 32.5q-12 12 -23.5 32t-14.5 49h64q4 -14 11.5 -24.5t15.5 -16.5q12 -9 27.5 -12t29.5 -3t30.5 3t28.5 11q23 13 35 42h68z" />
    <glyph glyph-name="gbreve" unicode="&#x11f;" horiz-adv-x="526" 
d="M437 415h72l-49 -405q-6 -49 -17 -96t-48 -84q-20 -21 -59 -40.5t-103 -19.5q-54 0 -87.5 15t-52.5 34q-17 17 -26.5 37t-14 38.5t-5.5 34.5t-1 25v6h71v-4q0 -22 5 -47t28 -46q20 -18 43 -23.5t43 -5.5q41 0 66 11.5t39 25.5q28 27 35.5 62.5t10.5 64.5l6 60
q-7 -11 -21 -25.5t-38 -26.5q-17 -8 -37.5 -13t-42.5 -5q-87 0 -137 53q-32 33 -42 71t-10 70q0 51 17 99.5t50 82.5q22 23 59 42t95 19q16 0 42 -3t50 -17q13 -7 27 -19t25 -30zM294 361q-59 0 -100 -38q-26 -24 -40 -59t-14 -77q0 -33 10 -59t27 -43q18 -18 40 -25.5
t45 -7.5q38 0 63 11.5t39 24.5q27 25 40 64t13 74q0 26 -9 53t-27 47q-14 14 -34.5 24.5t-52.5 10.5zM240 617q2 -12 8 -23.5t14 -19.5q7 -6 19.5 -11.5t34.5 -5.5q38 0 61 18q11 8 18.5 19.5t12.5 22.5h63q-6 -20 -17 -41t-28 -38q-25 -25 -52.5 -33t-55.5 -8
q-38 0 -61.5 10t-36.5 22q-16 15 -26.5 38t-12.5 50h59z" />
    <glyph glyph-name="Gdotaccent" unicode="&#x120;" horiz-adv-x="760" 
d="M473 335h278l-2 -16q-3 -23 -8.5 -51.5t-16.5 -59t-28.5 -61.5t-44.5 -60q-51 -55 -113 -77t-131 -22q-63 0 -121.5 20t-106.5 68q-37 37 -62.5 91.5t-25.5 131.5q0 90 32 158t78 114q60 61 128.5 84t146.5 23q48 0 90.5 -10t84.5 -36q35 -22 58 -48t37 -51l-61 -50
q-14 27 -33 49t-48 40q-29 19 -60 27.5t-69 8.5q-41 0 -75 -7.5t-61 -19.5t-47.5 -27t-35.5 -29q-46 -46 -67.5 -106.5t-21.5 -117.5q0 -51 18.5 -96.5t50.5 -78.5q40 -42 86.5 -55t91.5 -13q41 0 88.5 12.5t89.5 55.5q29 29 46 66t25 73h-198zM432 776q0 17 6 28t14 19
q17 16 41 16q12 0 21 -4t16 -10q8 -8 10.5 -16.5t2.5 -18.5q0 -26 -16 -43q-10 -11 -20 -14.5t-23 -3.5q-26 0 -39 13q-5 5 -9 13t-4 21z" />
    <glyph glyph-name="gdotaccent" unicode="&#x121;" horiz-adv-x="526" 
d="M437 415h72l-49 -405q-6 -49 -17 -96t-48 -84q-20 -21 -59 -40.5t-103 -19.5q-54 0 -87.5 15t-52.5 34q-17 17 -26.5 37t-14 38.5t-5.5 34.5t-1 25v6h71v-4q0 -22 5 -47t28 -46q20 -18 43 -23.5t43 -5.5q41 0 66 11.5t39 25.5q28 27 35.5 62.5t10.5 64.5l6 60
q-7 -11 -21 -25.5t-38 -26.5q-17 -8 -37.5 -13t-42.5 -5q-87 0 -137 53q-32 33 -42 71t-10 70q0 51 17 99.5t50 82.5q22 23 59 42t95 19q16 0 42 -3t50 -17q13 -7 27 -19t25 -30zM294 361q-59 0 -100 -38q-26 -24 -40 -59t-14 -77q0 -33 10 -59t27 -43q18 -18 40 -25.5
t45 -7.5q38 0 63 11.5t39 24.5q27 25 40 64t13 74q0 26 -9 53t-27 47q-14 14 -34.5 24.5t-52.5 10.5zM263 546q0 14 4.5 24.5t12.5 18.5q17 17 42 17q13 0 21 -4t13 -9t9 -13t4 -22q0 -15 -5.5 -25.5t-11.5 -16.5q-10 -10 -19.5 -13t-20.5 -3q-7 0 -17.5 2t-19.5 11
q-2 3 -7 11t-5 22z" />
    <glyph glyph-name="Gcommaaccent" unicode="&#x122;" horiz-adv-x="760" 
d="M473 335h278l-2 -16q-3 -23 -8.5 -51.5t-16.5 -59t-28.5 -61.5t-44.5 -60q-51 -55 -113 -77t-131 -22q-63 0 -121.5 20t-106.5 68q-37 37 -62.5 91.5t-25.5 131.5q0 90 32 158t78 114q60 61 128.5 84t146.5 23q48 0 90.5 -10t84.5 -36q35 -22 58 -48t37 -51l-61 -50
q-14 27 -33 49t-48 40q-29 19 -60 27.5t-69 8.5q-41 0 -75 -7.5t-61 -19.5t-47.5 -27t-35.5 -29q-46 -46 -67.5 -106.5t-21.5 -117.5q0 -51 18.5 -96.5t50.5 -78.5q40 -42 86.5 -55t91.5 -13q41 0 88.5 12.5t89.5 55.5q29 29 46 66t25 73h-198zM377 -50l64 -30l-92 -150
l-48 24z" />
    <glyph glyph-name="gcommaaccent" unicode="&#x123;" horiz-adv-x="526" 
d="M437 415h72l-49 -405q-6 -49 -17 -96t-48 -84q-20 -21 -59 -40.5t-103 -19.5q-54 0 -87.5 15t-52.5 34q-17 17 -26.5 37t-14 38.5t-5.5 34.5t-1 25v6h71v-4q0 -22 5 -47t28 -46q20 -18 43 -23.5t43 -5.5q41 0 66 11.5t39 25.5q28 27 35.5 62.5t10.5 64.5l6 60
q-7 -11 -21 -25.5t-38 -26.5q-17 -8 -37.5 -13t-42.5 -5q-87 0 -137 53q-32 33 -42 71t-10 70q0 51 17 99.5t50 82.5q22 23 59 42t95 19q16 0 42 -3t50 -17q13 -7 27 -19t25 -30zM294 361q-59 0 -100 -38q-26 -24 -40 -59t-14 -77q0 -33 10 -59t27 -43q18 -18 40 -25.5
t45 -7.5q38 0 63 11.5t39 24.5q27 25 40 64t13 74q0 26 -9 53t-27 47q-14 14 -34.5 24.5t-52.5 10.5zM318 490l-64 30l92 150l48 -24z" />
    <glyph glyph-name="Hcircumflex" unicode="&#x124;" horiz-adv-x="662" 
d="M209 396h342l33 271h74l-82 -667h-74l40 326h-342l-40 -326h-74l82 667h74zM336 721l-51 41l154 119l126 -119l-53 -41l-79 76z" />
    <glyph glyph-name="hcircumflex" unicode="&#x125;" horiz-adv-x="469" 
d="M158 729h72l-45 -362q2 2 13.5 15t28.5 24q20 12 39.5 15.5t36.5 3.5q23 0 50 -6.5t50 -29.5q21 -21 27 -45.5t6 -47.5q0 -16 -2 -33t-4 -36l-28 -227h-72l25 207q2 13 4 35t2 36q0 13 -3.5 30.5t-17.5 31.5q-9 9 -23.5 15t-34.5 6q-24 0 -43 -8t-31 -21
q-21 -22 -29 -54.5t-12 -60.5l-27 -217h-72zM98 737l-46 36l153 121l123 -121l-46 -36l-82 81z" />
    <glyph glyph-name="Hbar" unicode="&#x126;" horiz-adv-x="663" 
d="M235 614h342l7 53h74l-7 -53h60l-7 -62h-60l-68 -552h-74l40 326h-342l-40 -326h-74l68 552h-60l7 62h60l7 53h74zM228 552l-19 -156h342l19 156h-342z" />
    <glyph glyph-name="hbar" unicode="&#x127;" horiz-adv-x="469" 
d="M136 554h-98l7 60h99l14 115h72l-14 -115h199l-7 -60h-200l-23 -187q2 2 13.5 15t28.5 24q20 12 39.5 15.5t36.5 3.5q23 0 50 -6.5t50 -29.5q21 -21 27 -45.5t6 -47.5q0 -16 -2 -33t-4 -36l-28 -227h-72l25 207q2 13 4 35t2 36q0 13 -3.5 30.5t-17.5 31.5q-9 9 -23.5 15
t-34.5 6q-24 0 -43 -8t-31 -21q-21 -22 -29 -54.5t-12 -60.5l-27 -217h-72z" />
    <glyph glyph-name="Imacron" unicode="&#x12a;" horiz-adv-x="246" 
d="M242 667l-82 -667h-74l82 667h74zM98 797h246l-8 -64h-246z" />
    <glyph glyph-name="imacron" unicode="&#x12b;" horiz-adv-x="208" 
d="M191 415l-51 -415h-72l51 415h72zM70 573h208l-7 -60h-208z" />
    <glyph glyph-name="Iogonek" unicode="&#x12e;" horiz-adv-x="246" 
d="M242 667l-82 -667q-11 -8 -24 -18.5t-23 -20.5q-9 -9 -19 -24t-10 -33q0 -11 4.5 -17.5t9.5 -9.5q6 -4 13.5 -5.5t13.5 -1.5q25 0 51 13l-16 -59q-12 -6 -27 -10t-30 -4q-16 0 -33.5 5t-28.5 15q-10 9 -17 24t-7 34q0 21 8 36.5t19 28.5q17 19 33 31.5t21 15.5h-12
l82 667h74z" />
    <glyph glyph-name="iogonek" unicode="&#x12f;" horiz-adv-x="208" 
d="M191 415l-51 -415q-12 -8 -26.5 -18t-25.5 -21q-21 -21 -25 -36.5t-4 -20.5q0 -14 8 -22t19.5 -10t18.5 -2q11 0 23 2.5t28 10.5l-15 -55q-17 -9 -33 -11.5t-27 -2.5q-22 0 -37.5 7t-25.5 16q-8 8 -14.5 20t-6.5 30q0 14 6 33.5t26 40.5q10 11 23 21t30 18h-14l51 415h72
zM123 566q0 11 4 21t10 17q6 8 17 13.5t26 5.5q20 0 32 -12q13 -13 13 -33q0 -14 -4.5 -23.5t-11.5 -16.5q-10 -11 -21 -14t-19 -3q-20 0 -34 14q-12 12 -12 31z" />
    <glyph glyph-name="Idotaccent" unicode="&#x130;" horiz-adv-x="246" 
d="M242 667l-82 -667h-74l82 667h74zM164 776q0 17 6 28t14 19q17 16 41 16q12 0 21 -4t16 -10q8 -8 10.5 -16.5t2.5 -18.5q0 -26 -16 -43q-10 -11 -20 -14.5t-23 -3.5q-26 0 -39 13q-5 5 -9 13t-4 21z" />
    <glyph glyph-name="dotlessi" unicode="&#x131;" horiz-adv-x="208" 
d="M191 415l-51 -415h-72l51 415h72z" />
    <glyph glyph-name="Jcircumflex" unicode="&#x134;" horiz-adv-x="299" 
d="M295 667l-59 -482q-6 -50 -17.5 -90t-37.5 -66q-11 -11 -38 -26t-78 -15q-18 0 -34 3.5t-33 11.5q-12 6 -23.5 14.5t-22.5 19.5l48 58q7 -8 14.5 -14t15.5 -11q11 -6 20 -9t23 -3q15 0 28 4.5t24 15.5t21 35t16 72l59 482h74zM180 721l-51 41l154 119l126 -119l-53 -41
l-79 76z" />
    <glyph glyph-name="jcircumflex" unicode="&#x135;" horiz-adv-x="208" 
d="M191 415l-80 -645h-72l80 645h72zM91 505l-39 35l131 106l105 -106l-47 -35l-67 67z" />
    <glyph glyph-name="Kcommaaccent" unicode="&#x136;" horiz-adv-x="568" 
d="M207 381l319 286h100l-354 -312l278 -355h-98l-235 306l-22 -19l-35 -287h-74l82 667h74zM268 -50l64 -30l-92 -150l-48 24z" />
    <glyph glyph-name="kcommaaccent" unicode="&#x137;" horiz-adv-x="422" 
d="M230 729l-58 -468l171 154h94l-202 -178l181 -237h-92l-143 189l-20 -18l-21 -171h-72l90 729h72zM196 -50l64 -30l-92 -150l-48 24z" />
    <glyph glyph-name="Lacute" unicode="&#x139;" horiz-adv-x="358" 
d="M242 667l-73 -597h184l-9 -70h-258l82 667h74zM415 837l-168 -117l-39 32l142 130z" />
    <glyph glyph-name="lacute" unicode="&#x13a;" horiz-adv-x="208" 
d="M230 729l-90 -729h-72l90 729h72zM323 892l-151 -135l-42 24l123 145z" />
    <glyph glyph-name="Lcommaaccent" unicode="&#x13b;" horiz-adv-x="358" 
d="M242 667l-73 -597h184l-9 -70h-258l82 667h74zM197 -50l64 -30l-92 -150l-48 24z" />
    <glyph glyph-name="lcommaaccent" unicode="&#x13c;" horiz-adv-x="208" 
d="M230 729l-90 -729h-72l90 729h72zM77 -50l64 -30l-92 -150l-48 24z" />
    <glyph glyph-name="Lcaron" unicode="&#x13d;" horiz-adv-x="358" 
d="M242 667l-73 -597h184l-9 -70h-258l82 667h74zM356 680l64 -30l-94 -150l-46 22z" />
    <glyph glyph-name="lcaron" unicode="&#x13e;" horiz-adv-x="280" 
d="M230 729l-90 -729h-72l90 729h72zM316 690l64 -30l-94 -150l-46 22z" />
    <glyph glyph-name="Ldot" unicode="&#x13f;" horiz-adv-x="358" 
d="M242 667l-73 -597h184l-9 -70h-258l82 667h74zM286 326q0 17 6 28t14 19q17 16 41 16q12 0 21 -4t16 -10q8 -8 10.5 -16.5t2.5 -18.5q0 -26 -16 -43q-10 -11 -20 -14.5t-23 -3.5q-26 0 -39 13q-5 5 -9 13t-4 21z" />
    <glyph glyph-name="ldot" unicode="&#x140;" horiz-adv-x="334" 
d="M230 729l-90 -729h-72l90 729h72zM258 357q0 14 4.5 24.5t12.5 18.5q17 17 42 17q13 0 21 -4t13 -9t9 -13t4 -22q0 -15 -5.5 -25.5t-11.5 -16.5q-10 -10 -19.5 -13t-20.5 -3q-7 0 -17.5 2t-19.5 11q-2 3 -7 11t-5 22z" />
    <glyph glyph-name="Lslash" unicode="&#x141;" horiz-adv-x="358" 
d="M242 667l-32 -261l108 64l-8 -64l-108 -64l-33 -272h184l-9 -70h-258l37 305l-92 -55l8 64l92 55l37 298h74z" />
    <glyph glyph-name="lslash" unicode="&#x142;" horiz-adv-x="208" 
d="M230 729l-29 -230l75 53l-8 -60l-74 -53l-54 -439h-72l48 393l-74 -53l7 60l75 53l34 276h72z" />
    <glyph glyph-name="Nacute" unicode="&#x143;" horiz-adv-x="766" 
d="M86 0l85 695l453 -547l64 519h74l-86 -697l-453 547l-63 -517h-74zM638 837l-168 -117l-39 32l142 130z" />
    <glyph glyph-name="nacute" unicode="&#x144;" horiz-adv-x="469" 
d="M119 415h72l-6 -48q2 2 13.5 15t28.5 24q20 12 40 15.5t37 3.5q23 0 49.5 -6.5t49.5 -29.5q21 -21 27 -45.5t6 -47.5q0 -16 -2 -33t-4 -36l-28 -227h-72l25 207q2 13 4 35t2 36q0 13 -3.5 30.5t-17.5 31.5q-9 9 -23.5 15t-34.5 6q-24 0 -43 -8t-31 -21q-21 -22 -29 -54.5
t-12 -60.5l-27 -217h-72zM464 632l-151 -135l-42 24l123 145z" />
    <glyph glyph-name="Ncommaaccent" unicode="&#x145;" horiz-adv-x="766" 
d="M86 0l85 695l453 -547l64 519h74l-86 -697l-453 547l-63 -517h-74zM357 -50l64 -30l-92 -150l-48 24z" />
    <glyph glyph-name="ncommaaccent" unicode="&#x146;" horiz-adv-x="469" 
d="M119 415h72l-6 -48q2 2 13.5 15t28.5 24q20 12 40 15.5t37 3.5q23 0 49.5 -6.5t49.5 -29.5q21 -21 27 -45.5t6 -47.5q0 -16 -2 -33t-4 -36l-28 -227h-72l25 207q2 13 4 35t2 36q0 13 -3.5 30.5t-17.5 31.5q-9 9 -23.5 15t-34.5 6q-24 0 -43 -8t-31 -21q-21 -22 -29 -54.5
t-12 -60.5l-27 -217h-72zM197 -50l64 -30l-92 -150l-48 24z" />
    <glyph glyph-name="Ncaron" unicode="&#x147;" horiz-adv-x="766" 
d="M86 0l85 695l453 -547l64 519h74l-86 -697l-453 547l-63 -517h-74zM575 881l51 -41l-154 -119l-126 119l53 41l79 -76z" />
    <glyph glyph-name="ncaron" unicode="&#x148;" horiz-adv-x="469" 
d="M119 415h72l-6 -48q2 2 13.5 15t28.5 24q20 12 40 15.5t37 3.5q23 0 49.5 -6.5t49.5 -29.5q21 -21 27 -45.5t6 -47.5q0 -16 -2 -33t-4 -36l-28 -227h-72l25 207q2 13 4 35t2 36q0 13 -3.5 30.5t-17.5 31.5q-9 9 -23.5 15t-34.5 6q-24 0 -43 -8t-31 -21q-21 -22 -29 -54.5
t-12 -60.5l-27 -217h-72zM408 654l46 -36l-153 -121l-123 121l46 36l82 -81z" />
    <glyph glyph-name="Omacron" unicode="&#x14c;" horiz-adv-x="800" 
d="M399 -12q-55 0 -113.5 18t-108.5 69q-15 16 -30.5 37.5t-28 49t-20 61t-7.5 73.5q0 51 10 93.5t26.5 77t37 61t40.5 45.5q110 105 274 105q55 0 113.5 -16.5t110.5 -67.5q16 -16 32 -37t28.5 -48t20 -60t7.5 -73q0 -78 -27.5 -153t-84.5 -130q-44 -42 -114 -73.5
t-166 -31.5zM471 608q-64 0 -118 -21.5t-93 -57.5q-35 -33 -63.5 -87.5t-28.5 -131.5q0 -62 20 -108t49 -76q26 -27 67.5 -47.5t102.5 -20.5q68 0 123.5 22t92.5 58q45 43 68 103.5t23 120.5q0 57 -19.5 102t-50.5 76q-25 25 -67 46.5t-106 21.5zM328 797h320l-8 -64h-320z
" />
    <glyph glyph-name="omacron" unicode="&#x14d;" horiz-adv-x="528" 
d="M268 -12q-45 0 -81.5 12.5t-66.5 44.5q-22 23 -37.5 58.5t-15.5 86.5q0 45 16.5 90t58.5 83q68 62 166 62q51 0 88.5 -15.5t63.5 -41.5q32 -32 41.5 -68t9.5 -68q0 -68 -22.5 -112t-47.5 -68q-40 -39 -85.5 -51.5t-87.5 -12.5zM307 361q-21 0 -52 -8.5t-61 -37.5
q-26 -26 -39.5 -59t-13.5 -71q0 -35 12 -58t24 -36q11 -12 34.5 -25.5t61.5 -13.5q39 0 67 14t46 34q23 25 36.5 60t13.5 71q0 32 -10 55t-24 37q-16 17 -40 27.5t-55 10.5zM175 573h302l-7 -60h-302z" />
    <glyph glyph-name="Obreve" unicode="&#x14e;" horiz-adv-x="800" 
d="M399 -12q-55 0 -113.5 18t-108.5 69q-15 16 -30.5 37.5t-28 49t-20 61t-7.5 73.5q0 51 10 93.5t26.5 77t37 61t40.5 45.5q110 105 274 105q55 0 113.5 -16.5t110.5 -67.5q16 -16 32 -37t28.5 -48t20 -60t7.5 -73q0 -78 -27.5 -153t-84.5 -130q-44 -42 -114 -73.5
t-166 -31.5zM471 608q-64 0 -118 -21.5t-93 -57.5q-35 -33 -63.5 -87.5t-28.5 -131.5q0 -62 20 -108t49 -76q26 -27 67.5 -47.5t102.5 -20.5q68 0 123.5 22t92.5 58q45 43 68 103.5t23 120.5q0 57 -19.5 102t-50.5 76q-25 25 -67 46.5t-106 21.5zM648 841
q-8 -32 -23.5 -53.5t-32.5 -33.5q-19 -14 -46.5 -23.5t-62.5 -9.5q-22 0 -51.5 6.5t-55.5 32.5q-12 12 -23.5 32t-14.5 49h64q4 -14 11.5 -24.5t15.5 -16.5q12 -9 27.5 -12t29.5 -3t30.5 3t28.5 11q23 13 35 42h68z" />
    <glyph glyph-name="obreve" unicode="&#x14f;" horiz-adv-x="528" 
d="M268 -12q-45 0 -81.5 12.5t-66.5 44.5q-22 23 -37.5 58.5t-15.5 86.5q0 45 16.5 90t58.5 83q68 62 166 62q51 0 88.5 -15.5t63.5 -41.5q32 -32 41.5 -68t9.5 -68q0 -68 -22.5 -112t-47.5 -68q-40 -39 -85.5 -51.5t-87.5 -12.5zM307 361q-21 0 -52 -8.5t-61 -37.5
q-26 -26 -39.5 -59t-13.5 -71q0 -35 12 -58t24 -36q11 -12 34.5 -25.5t61.5 -13.5q39 0 67 14t46 34q23 25 36.5 60t13.5 71q0 32 -10 55t-24 37q-16 17 -40 27.5t-55 10.5zM240 617q2 -12 8 -23.5t14 -19.5q7 -6 19.5 -11.5t34.5 -5.5q38 0 61 18q11 8 18.5 19.5t12.5 22.5
h63q-6 -20 -17 -41t-28 -38q-25 -25 -52.5 -33t-55.5 -8q-38 0 -61.5 10t-36.5 22q-16 15 -26.5 38t-12.5 50h59z" />
    <glyph glyph-name="Ohungarumlaut" unicode="&#x150;" horiz-adv-x="800" 
d="M399 -12q-55 0 -113.5 18t-108.5 69q-15 16 -30.5 37.5t-28 49t-20 61t-7.5 73.5q0 51 10 93.5t26.5 77t37 61t40.5 45.5q110 105 274 105q55 0 113.5 -16.5t110.5 -67.5q16 -16 32 -37t28.5 -48t20 -60t7.5 -73q0 -78 -27.5 -153t-84.5 -130q-44 -42 -114 -73.5
t-166 -31.5zM471 608q-64 0 -118 -21.5t-93 -57.5q-35 -33 -63.5 -87.5t-28.5 -131.5q0 -62 20 -108t49 -76q26 -27 67.5 -47.5t102.5 -20.5q68 0 123.5 22t92.5 58q45 43 68 103.5t23 120.5q0 57 -19.5 102t-50.5 76q-25 25 -67 46.5t-106 21.5zM567 842l-162 -122l-39 26
l136 136zM717 842l-162 -122l-39 26l136 136z" />
    <glyph glyph-name="ohungarumlaut" unicode="&#x151;" horiz-adv-x="528" 
d="M268 -12q-45 0 -81.5 12.5t-66.5 44.5q-22 23 -37.5 58.5t-15.5 86.5q0 45 16.5 90t58.5 83q68 62 166 62q51 0 88.5 -15.5t63.5 -41.5q32 -32 41.5 -68t9.5 -68q0 -68 -22.5 -112t-47.5 -68q-40 -39 -85.5 -51.5t-87.5 -12.5zM307 361q-21 0 -52 -8.5t-61 -37.5
q-26 -26 -39.5 -59t-13.5 -71q0 -35 12 -58t24 -36q11 -12 34.5 -25.5t61.5 -13.5q39 0 67 14t46 34q23 25 36.5 60t13.5 71q0 32 -10 55t-24 37q-16 17 -40 27.5t-55 10.5zM400 634l-154 -136l-38 23l124 145zM532 634l-152 -136l-38 23l124 145z" />
    <glyph glyph-name="OE" unicode="&#x152;" horiz-adv-x="1059" 
d="M1082 597h-267l-24 -198h260l-9 -70h-260l-31 -259h267l-9 -70h-341l15 113q-23 -27 -54 -53t-60 -40q-11 -5 -51 -18.5t-110 -13.5q-27 0 -56 3t-59 12.5t-59.5 26.5t-56.5 45q-15 15 -30.5 36.5t-27.5 49.5t-20 62.5t-8 76.5q0 48 9.5 89t25 74.5t36 61t42.5 48.5
q60 57 131.5 81t140.5 24q42 0 88.5 -12.5t84.5 -38.5q8 -5 34 -28t51 -65l16 133h341zM467 608q-61 0 -114 -21t-93 -58q-35 -33 -63.5 -87.5t-28.5 -131.5q0 -62 20 -108t49 -76q26 -26 68 -47t105 -21q67 0 120.5 22.5t89.5 57.5q45 43 68 103.5t23 120.5q0 57 -19.5 102
t-50.5 76q-24 24 -66.5 46t-107.5 22z" />
    <glyph glyph-name="oe" unicode="&#x153;" horiz-adv-x="854" 
d="M827 106q-14 -24 -35 -48t-42 -38q-30 -20 -62 -26t-58 -6q-36 0 -62.5 8t-45.5 20q-21 14 -37 33.5t-26 39.5q-15 -20 -35 -40t-38 -31q-26 -16 -57.5 -23t-60.5 -7q-44 0 -81 12.5t-67 44.5q-22 23 -37.5 58.5t-15.5 86.5q0 53 19.5 97t53.5 76q65 62 169 62
q27 0 53.5 -6t52.5 -20q26 -15 42 -33t24 -34q16 27 35 43t34 24q22 12 49 19t59 7q48 0 80.5 -15t50.5 -34q23 -23 39 -67t8 -115h-327q-1 -40 9.5 -67t27.5 -44q18 -18 38.5 -24.5t43.5 -6.5q21 0 42.5 4.5t41.5 18.5q16 11 30.5 29t23.5 35zM769 254q-1 26 -11 46.5
t-24 34.5q-18 17 -38 21.5t-40 4.5q-26 0 -49 -6.5t-45 -28.5q-14 -14 -24.5 -32.5t-15.5 -39.5h247zM305 361q-33 0 -62 -12t-50 -33q-22 -22 -36.5 -54.5t-14.5 -74.5q0 -32 10 -55.5t26 -40.5q14 -15 38 -27t59 -12q39 0 66 14.5t44 32.5q25 26 37 60t12 70q0 34 -10 57
t-24 37q-16 17 -40 27.5t-55 10.5z" />
    <glyph glyph-name="Racute" unicode="&#x154;" horiz-adv-x="505" 
d="M275 667q21 0 42.5 -1t43 -6t42.5 -15t39 -27q29 -27 38.5 -58.5t9.5 -60.5q0 -40 -11 -76.5t-42 -65.5q-27 -26 -65 -41t-75 -18l175 -298h-90l-167 292h-19l-36 -292h-74l82 667h107zM204 358h47q12 0 27.5 1t32.5 4.5t33.5 10.5t30.5 19q15 14 27 38t12 57
q0 38 -15 59.5t-30 30.5t-43 14t-51 5h-42zM485 837l-168 -117l-39 32l142 130z" />
    <glyph glyph-name="racute" unicode="&#x155;" horiz-adv-x="296" 
d="M119 415h72l-6 -45q6 10 16 20.5t26 19.5q15 8 29 11.5t31 3.5q35 0 61 -17l-42 -65q-6 5 -16 9.5t-27 4.5q-15 0 -29 -5t-26 -17q-22 -21 -29.5 -53t-11.5 -63l-27 -219h-72zM404 632l-151 -135l-42 24l123 145z" />
    <glyph glyph-name="Rcommaaccent" unicode="&#x156;" horiz-adv-x="505" 
d="M275 667q21 0 42.5 -1t43 -6t42.5 -15t39 -27q29 -27 38.5 -58.5t9.5 -60.5q0 -40 -11 -76.5t-42 -65.5q-27 -26 -65 -41t-75 -18l175 -298h-90l-167 292h-19l-36 -292h-74l82 667h107zM204 358h47q12 0 27.5 1t32.5 4.5t33.5 10.5t30.5 19q15 14 27 38t12 57
q0 38 -15 59.5t-30 30.5t-43 14t-51 5h-42zM237 -50l64 -30l-92 -150l-48 24z" />
    <glyph glyph-name="rcommaaccent" unicode="&#x157;" horiz-adv-x="296" 
d="M119 415h72l-6 -45q6 10 16 20.5t26 19.5q15 8 29 11.5t31 3.5q35 0 61 -17l-42 -65q-6 5 -16 9.5t-27 4.5q-15 0 -29 -5t-26 -17q-22 -21 -29.5 -53t-11.5 -63l-27 -219h-72zM117 -50l64 -30l-92 -150l-48 24z" />
    <glyph glyph-name="Rcaron" unicode="&#x158;" horiz-adv-x="505" 
d="M275 667q21 0 42.5 -1t43 -6t42.5 -15t39 -27q29 -27 38.5 -58.5t9.5 -60.5q0 -40 -11 -76.5t-42 -65.5q-27 -26 -65 -41t-75 -18l175 -298h-90l-167 292h-19l-36 -292h-74l82 667h107zM204 358h47q12 0 27.5 1t32.5 4.5t33.5 10.5t30.5 19q15 14 27 38t12 57
q0 38 -15 59.5t-30 30.5t-43 14t-51 5h-42zM422 881l51 -41l-154 -119l-126 119l53 41l79 -76z" />
    <glyph glyph-name="rcaron" unicode="&#x159;" horiz-adv-x="296" 
d="M119 415h72l-6 -45q6 10 16 20.5t26 19.5q15 8 29 11.5t31 3.5q35 0 61 -17l-42 -65q-6 5 -16 9.5t-27 4.5q-15 0 -29 -5t-26 -17q-22 -21 -29.5 -53t-11.5 -63l-27 -219h-72zM368 654l46 -36l-153 -121l-123 121l46 36l82 -81z" />
    <glyph glyph-name="Sacute" unicode="&#x15a;" horiz-adv-x="518" 
d="M450 535q-6 17 -16 30t-21 22q-19 14 -38.5 17.5t-36.5 3.5q-19 0 -41.5 -5t-42.5 -23q-15 -14 -25 -35t-10 -44q0 -16 6.5 -31.5t21.5 -29.5q10 -9 27.5 -19.5t28.5 -15.5l60 -28q23 -11 45 -24.5t40 -32.5q29 -29 37 -57t8 -60q0 -15 -2 -33t-8 -38t-17 -40.5
t-29 -39.5q-21 -22 -44 -34.5t-46 -19t-44 -8.5t-39 -2q-41 0 -74.5 10t-63.5 40q-22 23 -37 54.5t-19 67.5l74 20q3 -53 36 -87q22 -23 46 -29t49 -6q24 0 52.5 6.5t51.5 30.5q19 20 27.5 46.5t8.5 50.5q0 30 -11 51.5t-25 33.5q-10 9 -29.5 20.5t-35.5 19.5l-53 25
q-14 6 -38 20t-41 31q-14 14 -26 39t-12 64q0 35 11.5 66.5t40.5 59.5q32 31 68.5 43.5t78.5 12.5q22 0 52.5 -5t57.5 -23q20 -13 35.5 -33t24.5 -43zM514 837l-168 -117l-39 32l142 130z" />
    <glyph glyph-name="sacute" unicode="&#x15b;" horiz-adv-x="350" 
d="M276 319q-3 10 -7.5 16.5t-9.5 11.5q-8 8 -16.5 11t-19.5 3t-21 -2.5t-19 -10.5q-16 -15 -16 -37q0 -11 3.5 -17.5t8.5 -11.5q8 -8 19 -13.5t22 -10.5l38 -19q12 -6 27.5 -16.5t25.5 -20.5q15 -17 21 -35.5t6 -38.5q0 -29 -9 -53.5t-26 -42.5q-14 -15 -30 -24t-32 -13.5
t-31 -5.5t-26 -1q-23 0 -44.5 5t-42.5 22q-36 30 -49 79l63 26q3 -11 9.5 -25t15.5 -24q11 -11 23.5 -15t26.5 -4q10 0 26 2.5t30 15.5q11 10 16 24t5 29q0 26 -22 43q-5 5 -18.5 12.5t-24.5 12.5l-23 11q-13 6 -29 16.5t-26 21.5q-13 14 -18 30.5t-5 34.5q0 29 10.5 50
t24.5 35q22 22 46 28.5t48 6.5q20 0 38 -5t37 -20q26 -21 38 -50zM390 632l-151 -135l-42 24l123 145z" />
    <glyph glyph-name="Scircumflex" unicode="&#x15c;" horiz-adv-x="518" 
d="M450 535q-6 17 -16 30t-21 22q-19 14 -38.5 17.5t-36.5 3.5q-19 0 -41.5 -5t-42.5 -23q-15 -14 -25 -35t-10 -44q0 -16 6.5 -31.5t21.5 -29.5q10 -9 27.5 -19.5t28.5 -15.5l60 -28q23 -11 45 -24.5t40 -32.5q29 -29 37 -57t8 -60q0 -15 -2 -33t-8 -38t-17 -40.5
t-29 -39.5q-21 -22 -44 -34.5t-46 -19t-44 -8.5t-39 -2q-41 0 -74.5 10t-63.5 40q-22 23 -37 54.5t-19 67.5l74 20q3 -53 36 -87q22 -23 46 -29t49 -6q24 0 52.5 6.5t51.5 30.5q19 20 27.5 46.5t8.5 50.5q0 30 -11 51.5t-25 33.5q-10 9 -29.5 20.5t-35.5 19.5l-53 25
q-14 6 -38 20t-41 31q-14 14 -26 39t-12 64q0 35 11.5 66.5t40.5 59.5q32 31 68.5 43.5t78.5 12.5q22 0 52.5 -5t57.5 -23q20 -13 35.5 -33t24.5 -43zM265 721l-51 41l154 119l126 -119l-53 -41l-79 76z" />
    <glyph glyph-name="scircumflex" unicode="&#x15d;" horiz-adv-x="350" 
d="M276 319q-3 10 -7.5 16.5t-9.5 11.5q-8 8 -16.5 11t-19.5 3t-21 -2.5t-19 -10.5q-16 -15 -16 -37q0 -11 3.5 -17.5t8.5 -11.5q8 -8 19 -13.5t22 -10.5l38 -19q12 -6 27.5 -16.5t25.5 -20.5q15 -17 21 -35.5t6 -38.5q0 -29 -9 -53.5t-26 -42.5q-14 -15 -30 -24t-32 -13.5
t-31 -5.5t-26 -1q-23 0 -44.5 5t-42.5 22q-36 30 -49 79l63 26q3 -11 9.5 -25t15.5 -24q11 -11 23.5 -15t26.5 -4q10 0 26 2.5t30 15.5q11 10 16 24t5 29q0 26 -22 43q-5 5 -18.5 12.5t-24.5 12.5l-23 11q-13 6 -29 16.5t-26 21.5q-13 14 -18 30.5t-5 34.5q0 29 10.5 50
t24.5 35q22 22 46 28.5t48 6.5q20 0 38 -5t37 -20q26 -21 38 -50zM147 497l-46 36l153 121l123 -121l-46 -36l-82 81z" />
    <glyph glyph-name="Scedilla" unicode="&#x15e;" horiz-adv-x="518" 
d="M450 535q-6 17 -16 30t-21 22q-19 14 -38.5 17.5t-36.5 3.5q-19 0 -41.5 -5t-42.5 -23q-15 -14 -25 -35t-10 -44q0 -16 6.5 -31.5t21.5 -29.5q10 -9 27.5 -19.5t28.5 -15.5l60 -28q23 -11 45 -24.5t40 -32.5q29 -29 37 -57t8 -60q0 -15 -2 -33t-8 -38t-17 -40.5
t-29 -39.5q-21 -22 -44 -34.5t-46 -19t-44 -8.5t-39 -2q-41 0 -74.5 10t-63.5 40q-22 23 -37 54.5t-19 67.5l74 20q3 -53 36 -87q22 -23 46 -29t49 -6q24 0 52.5 6.5t51.5 30.5q19 20 27.5 46.5t8.5 50.5q0 30 -11 51.5t-25 33.5q-10 9 -29.5 20.5t-35.5 19.5l-53 25
q-14 6 -38 20t-41 31q-14 14 -26 39t-12 64q0 35 11.5 66.5t40.5 59.5q32 31 68.5 43.5t78.5 12.5q22 0 52.5 -5t57.5 -23q20 -13 35.5 -33t24.5 -43zM314 -82l-120 -128l-47 26l101 132z" />
    <glyph glyph-name="scedilla" unicode="&#x15f;" horiz-adv-x="350" 
d="M276 319q-3 10 -7.5 16.5t-9.5 11.5q-8 8 -16.5 11t-19.5 3t-21 -2.5t-19 -10.5q-16 -15 -16 -37q0 -11 3.5 -17.5t8.5 -11.5q8 -8 19 -13.5t22 -10.5l38 -19q12 -6 27.5 -16.5t25.5 -20.5q15 -17 21 -35.5t6 -38.5q0 -29 -9 -53.5t-26 -42.5q-14 -15 -30 -24t-32 -13.5
t-31 -5.5t-26 -1q-23 0 -44.5 5t-42.5 22q-36 30 -49 79l63 26q3 -11 9.5 -25t15.5 -24q11 -11 23.5 -15t26.5 -4q10 0 26 2.5t30 15.5q11 10 16 24t5 29q0 26 -22 43q-5 5 -18.5 12.5t-24.5 12.5l-23 11q-13 6 -29 16.5t-26 21.5q-13 14 -18 30.5t-5 34.5q0 29 10.5 50
t24.5 35q22 22 46 28.5t48 6.5q20 0 38 -5t37 -20q26 -21 38 -50zM232 -79l-116 -128l-46 24l100 131z" />
    <glyph glyph-name="Scaron" unicode="&#x160;" horiz-adv-x="518" 
d="M450 535q-6 17 -16 30t-21 22q-19 14 -38.5 17.5t-36.5 3.5q-19 0 -41.5 -5t-42.5 -23q-15 -14 -25 -35t-10 -44q0 -16 6.5 -31.5t21.5 -29.5q10 -9 27.5 -19.5t28.5 -15.5l60 -28q23 -11 45 -24.5t40 -32.5q29 -29 37 -57t8 -60q0 -15 -2 -33t-8 -38t-17 -40.5
t-29 -39.5q-21 -22 -44 -34.5t-46 -19t-44 -8.5t-39 -2q-41 0 -74.5 10t-63.5 40q-22 23 -37 54.5t-19 67.5l74 20q3 -53 36 -87q22 -23 46 -29t49 -6q24 0 52.5 6.5t51.5 30.5q19 20 27.5 46.5t8.5 50.5q0 30 -11 51.5t-25 33.5q-10 9 -29.5 20.5t-35.5 19.5l-53 25
q-14 6 -38 20t-41 31q-14 14 -26 39t-12 64q0 35 11.5 66.5t40.5 59.5q32 31 68.5 43.5t78.5 12.5q22 0 52.5 -5t57.5 -23q20 -13 35.5 -33t24.5 -43zM452 881l51 -41l-154 -119l-126 119l53 41l79 -76z" />
    <glyph glyph-name="scaron" unicode="&#x161;" horiz-adv-x="350" 
d="M276 319q-3 10 -7.5 16.5t-9.5 11.5q-8 8 -16.5 11t-19.5 3t-21 -2.5t-19 -10.5q-16 -15 -16 -37q0 -11 3.5 -17.5t8.5 -11.5q8 -8 19 -13.5t22 -10.5l38 -19q12 -6 27.5 -16.5t25.5 -20.5q15 -17 21 -35.5t6 -38.5q0 -29 -9 -53.5t-26 -42.5q-14 -15 -30 -24t-32 -13.5
t-31 -5.5t-26 -1q-23 0 -44.5 5t-42.5 22q-36 30 -49 79l63 26q3 -11 9.5 -25t15.5 -24q11 -11 23.5 -15t26.5 -4q10 0 26 2.5t30 15.5q11 10 16 24t5 29q0 26 -22 43q-5 5 -18.5 12.5t-24.5 12.5l-23 11q-13 6 -29 16.5t-26 21.5q-13 14 -18 30.5t-5 34.5q0 29 10.5 50
t24.5 35q22 22 46 28.5t48 6.5q20 0 38 -5t37 -20q26 -21 38 -50zM342 654l46 -36l-153 -121l-123 121l46 36l82 -81z" />
    <glyph glyph-name="Tcedilla" unicode="&#x162;" horiz-adv-x="426" 
d="M323 597l-73 -597h-74l73 597h-162l9 70h398l-9 -70h-162zM264 -82l-120 -128l-47 26l101 132z" />
    <glyph glyph-name="tcedilla" unicode="&#x163;" horiz-adv-x="214" 
d="M185 349l-43 -349h-72l43 349h-44l8 66h44l18 150h72l-18 -150h72l-8 -66h-72zM152 -79l-116 -128l-46 24l100 131z" />
    <glyph glyph-name="Tcaron" unicode="&#x164;" horiz-adv-x="426" 
d="M323 597l-73 -597h-74l73 597h-162l9 70h398l-9 -70h-162zM405 881l51 -41l-154 -119l-126 119l53 41l79 -76z" />
    <glyph glyph-name="tcaron" unicode="&#x165;" horiz-adv-x="280" 
d="M185 349l-43 -349h-72l43 349h-44l8 66h44l18 150h72l-18 -150h72l-8 -66h-72zM316 690l64 -30l-94 -150l-46 22z" />
    <glyph glyph-name="Utilde" unicode="&#x168;" horiz-adv-x="646" 
d="M194 275q-3 -23 -5 -41.5t-2 -38.5q0 -28 10 -54t33 -47q26 -24 54.5 -30t57.5 -6q12 0 28 1t32.5 5.5t33.5 14t32 26.5q14 16 23 36t14.5 41t8 41t4.5 35l50 409h74l-53 -429q-7 -55 -21 -102t-57 -88q-21 -20 -44 -32t-46 -18t-45 -8t-42 -2q-47 0 -87.5 11.5
t-75.5 44.5q-23 23 -40.5 56.5t-17.5 81.5q0 8 1 22t2 29.5t2 29t2 20.5l48 384h74zM577 807q-7 -14 -15.5 -24t-19.5 -20q-14 -11 -29.5 -19.5t-38.5 -8.5q-18 0 -31 5t-23 10l-21 12q-11 6 -20.5 10.5t-23.5 4.5q-10 0 -17 -3t-15 -11q-5 -5 -11 -13.5t-10 -16.5l-40 36
q8 12 18.5 25.5t21.5 22.5q28 24 64 24q17 0 31.5 -5.5t25.5 -11.5l25 -14q5 -3 14.5 -7t20.5 -4q7 0 16 3t18 11q13 13 21 29z" />
    <glyph glyph-name="utilde" unicode="&#x169;" horiz-adv-x="465" 
d="M163 196q-2 -14 -3 -26.5t-1 -27.5q0 -20 4 -37.5t21 -31.5q12 -11 28.5 -16t33.5 -5q22 0 39 7t28 18q18 18 24 45.5t11 62.5l28 230h72l-29 -238q-5 -42 -14 -79.5t-37 -66.5q-29 -29 -63 -36t-57 -7q-42 0 -71.5 10t-49.5 28q-24 21 -32.5 47t-8.5 58q0 15 2 36t4 35
l26 213h72zM143 531q16 24 40 45q13 11 27 17.5t35 6.5q22 0 37 -6.5t28 -13.5l17 -9q8 -4 17 -7.5t20 -3.5q20 0 35 15q5 5 10.5 13.5t9.5 14.5l37 -34q-7 -12 -16.5 -25.5t-19.5 -21.5q-14 -12 -29 -17t-32 -5t-31 4.5t-24 9.5l-22 11l-22 10t-22 5t-19 -4.5t-15 -11.5
q-9 -8 -15.5 -16.5t-7.5 -10.5z" />
    <glyph glyph-name="Umacron" unicode="&#x16a;" horiz-adv-x="646" 
d="M194 275q-3 -23 -5 -41.5t-2 -38.5q0 -28 10 -54t33 -47q26 -24 54.5 -30t57.5 -6q12 0 28 1t32.5 5.5t33.5 14t32 26.5q14 16 23 36t14.5 41t8 41t4.5 35l50 409h74l-53 -429q-7 -55 -21 -102t-57 -88q-21 -20 -44 -32t-46 -18t-45 -8t-42 -2q-47 0 -87.5 11.5
t-75.5 44.5q-23 23 -40.5 56.5t-17.5 81.5q0 8 1 22t2 29.5t2 29t2 20.5l48 384h74zM261 797h320l-8 -64h-320z" />
    <glyph glyph-name="umacron" unicode="&#x16b;" horiz-adv-x="465" 
d="M163 196q-2 -14 -3 -26.5t-1 -27.5q0 -20 4 -37.5t21 -31.5q12 -11 28.5 -16t33.5 -5q22 0 39 7t28 18q18 18 24 45.5t11 62.5l28 230h72l-29 -238q-5 -42 -14 -79.5t-37 -66.5q-29 -29 -63 -36t-57 -7q-42 0 -71.5 10t-49.5 28q-24 21 -32.5 47t-8.5 58q0 15 2 36t4 35
l26 213h72zM152 573h302l-7 -60h-302z" />
    <glyph glyph-name="Ubreve" unicode="&#x16c;" horiz-adv-x="646" 
d="M194 275q-3 -23 -5 -41.5t-2 -38.5q0 -28 10 -54t33 -47q26 -24 54.5 -30t57.5 -6q12 0 28 1t32.5 5.5t33.5 14t32 26.5q14 16 23 36t14.5 41t8 41t4.5 35l50 409h74l-53 -429q-7 -55 -21 -102t-57 -88q-21 -20 -44 -32t-46 -18t-45 -8t-42 -2q-47 0 -87.5 11.5
t-75.5 44.5q-23 23 -40.5 56.5t-17.5 81.5q0 8 1 22t2 29.5t2 29t2 20.5l48 384h74zM581 841q-8 -32 -23.5 -53.5t-32.5 -33.5q-19 -14 -46.5 -23.5t-62.5 -9.5q-22 0 -51.5 6.5t-55.5 32.5q-12 12 -23.5 32t-14.5 49h64q4 -14 11.5 -24.5t15.5 -16.5q12 -9 27.5 -12
t29.5 -3t30.5 3t28.5 11q23 13 35 42h68z" />
    <glyph glyph-name="ubreve" unicode="&#x16d;" horiz-adv-x="465" 
d="M163 196q-2 -14 -3 -26.5t-1 -27.5q0 -20 4 -37.5t21 -31.5q12 -11 28.5 -16t33.5 -5q22 0 39 7t28 18q18 18 24 45.5t11 62.5l28 230h72l-29 -238q-5 -42 -14 -79.5t-37 -66.5q-29 -29 -63 -36t-57 -7q-42 0 -71.5 10t-49.5 28q-24 21 -32.5 47t-8.5 58q0 15 2 36t4 35
l26 213h72zM215 617q2 -12 8 -23.5t14 -19.5q7 -6 19.5 -11.5t34.5 -5.5q38 0 61 18q11 8 18.5 19.5t12.5 22.5h63q-6 -20 -17 -41t-28 -38q-25 -25 -52.5 -33t-55.5 -8q-38 0 -61.5 10t-36.5 22q-16 15 -26.5 38t-12.5 50h59z" />
    <glyph glyph-name="Uring" unicode="&#x16e;" horiz-adv-x="646" 
d="M194 275q-3 -23 -5 -41.5t-2 -38.5q0 -28 10 -54t33 -47q26 -24 54.5 -30t57.5 -6q12 0 28 1t32.5 5.5t33.5 14t32 26.5q14 16 23 36t14.5 41t8 41t4.5 35l50 409h74l-53 -429q-7 -55 -21 -102t-57 -88q-21 -20 -44 -32t-46 -18t-45 -8t-42 -2q-47 0 -87.5 11.5
t-75.5 44.5q-23 23 -40.5 56.5t-17.5 81.5q0 8 1 22t2 29.5t2 29t2 20.5l48 384h74zM334 809q0 22 8.5 40.5t20.5 30.5t28 19t39 7q25 0 39 -8t22 -16q5 -5 13 -19t8 -39q0 -21 -7.5 -38.5t-20.5 -30.5q-11 -11 -28 -18t-40 -7q-14 0 -29 4t-29 17q-8 8 -16 22t-8 36z
M382 814q0 -7 2 -13.5t8 -12.5q4 -4 10.5 -7.5t17.5 -3.5q19 0 32 12q14 12 14 33q0 19 -12 29q-5 5 -12.5 7.5t-15.5 2.5q-19 0 -31 -12q-3 -3 -8 -11.5t-5 -23.5z" />
    <glyph glyph-name="uring" unicode="&#x16f;" horiz-adv-x="465" 
d="M163 196q-2 -14 -3 -26.5t-1 -27.5q0 -20 4 -37.5t21 -31.5q12 -11 28.5 -16t33.5 -5q22 0 39 7t28 18q18 18 24 45.5t11 62.5l28 230h72l-29 -238q-5 -42 -14 -79.5t-37 -66.5q-29 -29 -63 -36t-57 -7q-42 0 -71.5 10t-49.5 28q-24 21 -32.5 47t-8.5 58q0 15 2 36t4 35
l26 213h72zM210 575q0 22 7.5 40.5t19.5 29.5q14 14 30.5 19t32.5 5q23 0 38 -7t23 -15q14 -14 18 -30t4 -30q0 -19 -5.5 -35t-19.5 -30q-15 -14 -31 -19.5t-36 -5.5q-17 0 -31.5 4t-27.5 17q-8 8 -15 21.5t-7 35.5zM255 579q0 -16 10 -26q10 -12 30 -12q12 0 19.5 4t11.5 8
q13 13 13 34q0 19 -11 28q-5 5 -13 7.5t-16 2.5q-19 0 -31 -12q-7 -7 -10 -16t-3 -18z" />
    <glyph glyph-name="Uhungarumlaut" unicode="&#x170;" horiz-adv-x="646" 
d="M194 275q-3 -23 -5 -41.5t-2 -38.5q0 -28 10 -54t33 -47q26 -24 54.5 -30t57.5 -6q12 0 28 1t32.5 5.5t33.5 14t32 26.5q14 16 23 36t14.5 41t8 41t4.5 35l50 409h74l-53 -429q-7 -55 -21 -102t-57 -88q-21 -20 -44 -32t-46 -18t-45 -8t-42 -2q-47 0 -87.5 11.5
t-75.5 44.5q-23 23 -40.5 56.5t-17.5 81.5q0 8 1 22t2 29.5t2 29t2 20.5l48 384h74zM500 842l-162 -122l-39 26l136 136zM650 842l-162 -122l-39 26l136 136z" />
    <glyph glyph-name="uhungarumlaut" unicode="&#x171;" horiz-adv-x="465" 
d="M163 196q-2 -14 -3 -26.5t-1 -27.5q0 -20 4 -37.5t21 -31.5q12 -11 28.5 -16t33.5 -5q22 0 39 7t28 18q18 18 24 45.5t11 62.5l28 230h72l-29 -238q-5 -42 -14 -79.5t-37 -66.5q-29 -29 -63 -36t-57 -7q-42 0 -71.5 10t-49.5 28q-24 21 -32.5 47t-8.5 58q0 15 2 36t4 35
l26 213h72zM375 634l-154 -136l-38 23l124 145zM507 634l-152 -136l-38 23l124 145z" />
    <glyph glyph-name="Uogonek" unicode="&#x172;" horiz-adv-x="646" 
d="M194 275q-3 -23 -5 -41.5t-2 -38.5q0 -28 10 -54t33 -47q27 -25 56.5 -30.5t55.5 -5.5q29 0 63.5 8t62.5 39q14 15 22.5 33.5t14 38t8 38.5t4.5 35l51 417h74l-53 -429q-3 -22 -6 -45t-10.5 -46.5t-20.5 -46.5t-35 -46q-23 -24 -42.5 -35.5t-38.5 -22.5
q-28 -15 -42.5 -25t-22.5 -18q-14 -14 -18.5 -27t-4.5 -22q0 -11 4.5 -17.5t9.5 -9.5q5 -4 13 -5.5t15 -1.5q13 0 26.5 4t23.5 9l-16 -59q-12 -6 -27 -10t-30 -4q-17 0 -34 5t-28 15q-8 6 -16 20t-8 38q0 31 21 58q11 14 23 24.5t25 18.5q-5 -1 -10 -1h-10q-41 0 -84 13.5
t-75 42.5q-23 21 -40.5 56t-17.5 84q0 7 1 21t2 29t2 28.5t2 20.5l48 384h74z" />
    <glyph glyph-name="uogonek" unicode="&#x173;" horiz-adv-x="465" 
d="M163 196q-2 -14 -3 -26.5t-1 -27.5q0 -20 4 -37.5t21 -31.5q12 -11 28.5 -16t33.5 -5q22 0 39 7t28 18q18 18 24 45.5t11 62.5l28 230h72l-29 -238q-3 -26 -6.5 -47t-9.5 -39t-15.5 -34t-25.5 -32q-9 -9 -19 -17.5t-20 -16.5q-9 -8 -17.5 -15t-16.5 -15
q-19 -20 -24 -34.5t-5 -22.5q0 -14 8 -22t19.5 -10t18.5 -2q11 0 23 2.5t28 10.5l-15 -55q-17 -9 -33 -11.5t-27 -2.5q-22 0 -37.5 7t-25.5 16q-9 9 -15 21t-6 29q0 30 20 59q8 11 19.5 22.5t22.5 19.5q-41 -1 -74 7t-59 31q-24 21 -32.5 47t-8.5 58q0 15 2 36t4 35l26 213
h72z" />
    <glyph glyph-name="Ydieresis" unicode="&#x178;" horiz-adv-x="530" 
d="M262 287l-172 380h84l133 -298l209 298h88l-268 -380l-35 -287h-74zM405 778q0 8 2.5 17.5t12.5 20.5t21 15t21 4q19 0 32 -12q5 -5 9 -12.5t4 -18.5q0 -24 -16 -42q-6 -6 -16 -11.5t-24 -5.5t-22 4.5t-12 8.5q-12 12 -12 32zM215 778q0 8 2.5 17.5t12.5 20.5t21 15t21 4
q19 0 32 -12q5 -5 9 -12.5t4 -18.5q0 -24 -16 -42q-6 -6 -16 -11.5t-24 -5.5t-22 4.5t-12 8.5q-12 12 -12 32z" />
    <glyph glyph-name="Zacute" unicode="&#x179;" horiz-adv-x="536" 
d="M157 70h354l-9 -70h-478l437 597h-317l9 70h441zM523 837l-168 -117l-39 32l142 130z" />
    <glyph glyph-name="zacute" unicode="&#x17a;" horiz-adv-x="460" 
d="M160 66h288l-8 -66h-432l343 349h-242l8 66h386zM454 632l-151 -135l-42 24l123 145z" />
    <glyph glyph-name="Zdotaccent" unicode="&#x17b;" horiz-adv-x="536" 
d="M157 70h354l-9 -70h-478l437 597h-317l9 70h441zM320 776q0 17 6 28t14 19q17 16 41 16q12 0 21 -4t16 -10q8 -8 10.5 -16.5t2.5 -18.5q0 -26 -16 -43q-10 -11 -20 -14.5t-23 -3.5q-26 0 -39 13q-5 5 -9 13t-4 21z" />
    <glyph glyph-name="zdotaccent" unicode="&#x17c;" horiz-adv-x="460" 
d="M160 66h288l-8 -66h-432l343 349h-242l8 66h386zM265 546q0 14 4.5 24.5t12.5 18.5q17 17 42 17q13 0 21 -4t13 -9t9 -13t4 -22q0 -15 -5.5 -25.5t-11.5 -16.5q-10 -10 -19.5 -13t-20.5 -3q-7 0 -17.5 2t-19.5 11q-2 3 -7 11t-5 22z" />
    <glyph glyph-name="Zcaron" unicode="&#x17d;" horiz-adv-x="536" 
d="M157 70h354l-9 -70h-478l437 597h-317l9 70h441zM472 881l51 -41l-154 -119l-126 119l53 41l79 -76z" />
    <glyph glyph-name="zcaron" unicode="&#x17e;" horiz-adv-x="460" 
d="M160 66h288l-8 -66h-432l343 349h-242l8 66h386zM424 654l46 -36l-153 -121l-123 121l46 36l82 -81z" />
    <glyph glyph-name="uni018F" unicode="&#x18f;" horiz-adv-x="759" 
d="M130 518q26 35 58.5 65t64.5 49q38 22 83.5 34t96.5 12q70 0 129.5 -22.5t101.5 -62.5q27 -27 44 -56t26.5 -58.5t12.5 -57.5t3 -52q0 -95 -30.5 -166.5t-74.5 -116.5q-30 -31 -63 -50.5t-66 -30t-66 -14t-64 -3.5q-24 0 -50.5 2.5t-53.5 10.5t-54 23t-52 40
q-37 37 -62 94.5t-25 130.5q0 24 3 46h580q10 63 -8.5 117t-56.5 90q-27 26 -70.5 46t-106.5 20q-40 0 -76 -9t-70 -30q-18 -12 -34 -25.5t-28 -26t-19.5 -22t-10.5 -12.5zM160 265q2 -48 21.5 -88t45.5 -65q19 -18 41 -28.5t44 -16t42 -7.5t36 -2q55 0 102 14t89 55
q26 25 46 59t30 79h-497z" />
    <glyph glyph-name="florin" unicode="&#x192;" horiz-adv-x="568" 
d="M357 355l-85 -329q-11 -41 -26 -80.5t-47 -68.5q-22 -20 -55.5 -33.5t-86.5 -13.5q-13 0 -23 1t-19 3l19 64q5 -1 10.5 -1.5t13.5 -0.5q37 0 59 9t33 20q14 13 28 40.5t29 87.5l77 302h-72l13 60h74l46 179q8 30 21.5 61.5t35.5 51.5q23 21 48.5 27t46.5 6q22 0 38 -3.5
t25 -6.5l-18 -67q-10 5 -21.5 8t-23.5 3q-13 0 -24 -3.5t-21 -12.5q-13 -12 -21.5 -32t-16.5 -52l-42 -159h106l-13 -60h-108z" />
    <glyph glyph-name="uni01CF" unicode="&#x1cf;" horiz-adv-x="246" 
d="M242 667l-82 -667h-74l82 667h74zM315 881l51 -41l-154 -119l-126 119l53 41l79 -76z" />
    <glyph glyph-name="uni01D0" unicode="&#x1d0;" horiz-adv-x="208" 
d="M191 415l-51 -415h-72l51 415h72zM255 646l42 -35l-131 -106l-105 106l44 35l67 -67z" />
    <glyph glyph-name="uni01DD" unicode="&#x1dd;" horiz-adv-x="483" 
d="M82 307q14 26 33.5 47.5t39.5 35.5q29 20 59.5 27.5t63.5 7.5q34 0 68.5 -9t64.5 -37q35 -32 45.5 -71t10.5 -73q0 -66 -22.5 -121.5t-64.5 -87.5q-35 -26 -71 -32t-65 -6q-31 0 -65.5 8t-64.5 40q-35 36 -44 86.5t-2 97.5h324q4 34 -7 64t-29 47q-14 14 -34.5 22
t-49.5 8q-50 0 -87 -30q-14 -11 -26.5 -27t-20.5 -30zM135 160q1 -23 9.5 -44.5t22.5 -35.5q11 -11 30.5 -19.5t51.5 -8.5q25 0 46 7t37 19t29 33.5t18 48.5h-244z" />
    <glyph glyph-name="Gcaron" unicode="&#x1e6;" horiz-adv-x="760" 
d="M473 335h278l-2 -16q-3 -23 -8.5 -51.5t-16.5 -59t-28.5 -61.5t-44.5 -60q-51 -55 -113 -77t-131 -22q-63 0 -121.5 20t-106.5 68q-37 37 -62.5 91.5t-25.5 131.5q0 90 32 158t78 114q60 61 128.5 84t146.5 23q48 0 90.5 -10t84.5 -36q35 -22 58 -48t37 -51l-61 -50
q-14 27 -33 49t-48 40q-29 19 -60 27.5t-69 8.5q-41 0 -75 -7.5t-61 -19.5t-47.5 -27t-35.5 -29q-46 -46 -67.5 -106.5t-21.5 -117.5q0 -51 18.5 -96.5t50.5 -78.5q40 -42 86.5 -55t91.5 -13q41 0 88.5 12.5t89.5 55.5q29 29 46 66t25 73h-198zM582 881l51 -41l-154 -119
l-126 119l53 41l79 -76z" />
    <glyph glyph-name="gcaron" unicode="&#x1e7;" horiz-adv-x="526" 
d="M437 415h72l-49 -405q-6 -49 -17 -96t-48 -84q-20 -21 -59 -40.5t-103 -19.5q-54 0 -87.5 15t-52.5 34q-17 17 -26.5 37t-14 38.5t-5.5 34.5t-1 25v6h71v-4q0 -22 5 -47t28 -46q20 -18 43 -23.5t43 -5.5q41 0 66 11.5t39 25.5q28 27 35.5 62.5t10.5 64.5l6 60
q-7 -11 -21 -25.5t-38 -26.5q-17 -8 -37.5 -13t-42.5 -5q-87 0 -137 53q-32 33 -42 71t-10 70q0 51 17 99.5t50 82.5q22 23 59 42t95 19q16 0 42 -3t50 -17q13 -7 27 -19t25 -30zM294 361q-59 0 -100 -38q-26 -24 -40 -59t-14 -77q0 -33 10 -59t27 -43q18 -18 40 -25.5
t45 -7.5q38 0 63 11.5t39 24.5q27 25 40 64t13 74q0 26 -9 53t-27 47q-14 14 -34.5 24.5t-52.5 10.5zM418 654l46 -36l-153 -121l-123 121l46 36l82 -81z" />
    <glyph glyph-name="AEacute" unicode="&#x1fc;" horiz-adv-x="900" 
d="M482 187h-284l-102 -187h-82l379 667h293l20 -70h-269l59 -198h264l20 -70h-262l77 -259h271l20 -70h-348zM462 257l-78 261l-145 -261h223zM705 837l-168 -117l-39 32l142 130z" />
    <glyph glyph-name="aeacute" unicode="&#x1fd;" horiz-adv-x="776" 
d="M415 348q14 19 31.5 32.5t34.5 22.5q20 10 44 16t53 6q50 0 82 -15t50 -34q23 -23 39 -67t8 -115h-327v-8q0 -38 11.5 -63.5t25.5 -39.5q18 -18 38.5 -24.5t43.5 -6.5q21 0 42.5 4.5t41.5 18.5q16 11 30.5 29t23.5 35l61 -33q-14 -24 -35 -48t-42 -38q-17 -12 -46.5 -22
t-73.5 -10q-27 0 -55 6t-48 18q-17 10 -32 26t-26 33q-11 -18 -28.5 -35t-36.5 -27q-21 -11 -50.5 -16t-53.5 -5q-26 0 -59 6t-57 23q-16 11 -32 34t-16 61q0 37 16 66.5t42 47.5q11 8 41 21t86 13q39 0 68 -9t53 -26q3 32 -0.5 62t-25.5 50q-11 10 -30.5 17t-53.5 7
q-27 0 -57 -6t-66 -20l8 68q32 11 65.5 16.5t62.5 5.5q26 0 52 -5t47 -17q22 -12 33.5 -27t16.5 -28zM240 196q-4 0 -13.5 -0.5t-21.5 -2.5t-24.5 -7t-23.5 -13q-9 -7 -18 -20t-9 -33q0 -19 8 -31t19 -20q14 -9 34 -13t41 -4q32 0 50 6.5t26 10.5q24 14 31 31t7 31
q0 17 -8 29t-22 20t-35 12t-41 4zM690 254q-1 26 -11 46.5t-24 34.5q-18 17 -38 21.5t-40 4.5q-26 0 -49 -6.5t-45 -28.5q-14 -14 -24.5 -32.5t-15.5 -39.5h247zM602 632l-151 -135l-42 24l123 145z" />
    <glyph glyph-name="Scommaaccent" unicode="&#x218;" horiz-adv-x="518" 
d="M450 535q-6 17 -16 30t-21 22q-19 14 -38.5 17.5t-36.5 3.5q-19 0 -41.5 -5t-42.5 -23q-15 -14 -25 -35t-10 -44q0 -16 6.5 -31.5t21.5 -29.5q10 -9 27.5 -19.5t28.5 -15.5l60 -28q23 -11 45 -24.5t40 -32.5q29 -29 37 -57t8 -60q0 -15 -2 -33t-8 -38t-17 -40.5
t-29 -39.5q-21 -22 -44 -34.5t-46 -19t-44 -8.5t-39 -2q-41 0 -74.5 10t-63.5 40q-22 23 -37 54.5t-19 67.5l74 20q3 -53 36 -87q22 -23 46 -29t49 -6q24 0 52.5 6.5t51.5 30.5q19 20 27.5 46.5t8.5 50.5q0 30 -11 51.5t-25 33.5q-10 9 -29.5 20.5t-35.5 19.5l-53 25
q-14 6 -38 20t-41 31q-14 14 -26 39t-12 64q0 35 11.5 66.5t40.5 59.5q32 31 68.5 43.5t78.5 12.5q22 0 52.5 -5t57.5 -23q20 -13 35.5 -33t24.5 -43zM237 -50l64 -30l-92 -150l-48 24z" />
    <glyph glyph-name="scommaaccent" unicode="&#x219;" horiz-adv-x="350" 
d="M276 319q-3 10 -7.5 16.5t-9.5 11.5q-8 8 -16.5 11t-19.5 3t-21 -2.5t-19 -10.5q-16 -15 -16 -37q0 -11 3.5 -17.5t8.5 -11.5q8 -8 19 -13.5t22 -10.5l38 -19q12 -6 27.5 -16.5t25.5 -20.5q15 -17 21 -35.5t6 -38.5q0 -29 -9 -53.5t-26 -42.5q-14 -15 -30 -24t-32 -13.5
t-31 -5.5t-26 -1q-23 0 -44.5 5t-42.5 22q-36 30 -49 79l63 26q3 -11 9.5 -25t15.5 -24q11 -11 23.5 -15t26.5 -4q10 0 26 2.5t30 15.5q11 10 16 24t5 29q0 26 -22 43q-5 5 -18.5 12.5t-24.5 12.5l-23 11q-13 6 -29 16.5t-26 21.5q-13 14 -18 30.5t-5 34.5q0 29 10.5 50
t24.5 35q22 22 46 28.5t48 6.5q20 0 38 -5t37 -20q26 -21 38 -50zM157 -50l64 -30l-92 -150l-48 24z" />
    <glyph glyph-name="Tcommaaccent" unicode="&#x21a;" horiz-adv-x="426" 
d="M323 597l-73 -597h-74l73 597h-162l9 70h398l-9 -70h-162zM197 -50l64 -30l-92 -150l-48 24z" />
    <glyph glyph-name="tcommaaccent" unicode="&#x21b;" horiz-adv-x="214" 
d="M185 349l-43 -349h-72l43 349h-44l8 66h44l18 150h72l-18 -150h72l-8 -66h-72zM97 -50l64 -30l-92 -150l-48 24z" />
    <glyph glyph-name="uni0228" unicode="&#x228;" horiz-adv-x="482" 
d="M505 597h-272l-24 -198h264l-9 -70h-264l-31 -259h272l-9 -70h-346l82 667h346zM315 -82l-120 -128l-47 26l101 132z" />
    <glyph glyph-name="uni0229" unicode="&#x229;" horiz-adv-x="483" 
d="M456 106q-14 -24 -35 -48t-42 -38q-31 -20 -62.5 -26t-57.5 -6q-37 0 -71.5 10t-65.5 42q-19 20 -37 55.5t-18 93.5q0 54 19 99.5t52 78.5q32 32 67.5 45t77.5 13q53 0 85 -15.5t50 -33.5q23 -23 39 -67t8 -116h-323q-1 -45 11 -70.5t26 -39.5q18 -18 38.5 -24.5
t43.5 -6.5q18 0 39 4.5t41 18.5q16 11 30.5 29t23.5 35zM396 253q-1 23 -10 45t-25 37q-17 17 -38 21.5t-38 4.5q-28 0 -50 -8t-41 -27q-14 -14 -24.5 -32.5t-15.5 -40.5h242zM314 -79l-116 -128l-46 24l100 131z" />
    <glyph glyph-name="uni0237" unicode="&#x237;" horiz-adv-x="207" 
d="M191 415l-80 -645h-72l80 645h72z" />
    <glyph glyph-name="uni0259" unicode="&#x259;" horiz-adv-x="483" 
d="M82 307q14 26 33.5 47.5t39.5 35.5q29 20 59.5 27.5t63.5 7.5q34 0 68.5 -9t64.5 -37q35 -32 45.5 -71t10.5 -73q0 -66 -22.5 -121.5t-64.5 -87.5q-35 -26 -71 -32t-65 -6q-31 0 -65.5 8t-64.5 40q-35 36 -44 86.5t-2 97.5h324q4 34 -7 64t-29 47q-14 14 -34.5 22
t-49.5 8q-50 0 -87 -30q-14 -11 -26.5 -27t-20.5 -30zM135 160q1 -23 9.5 -44.5t22.5 -35.5q11 -11 30.5 -19.5t51.5 -8.5q25 0 46 7t37 19t29 33.5t18 48.5h-244z" />
    <glyph glyph-name="afii57929" unicode="&#x2bc;" 
d="M296 690l64 -30l-94 -150l-46 22z" />
    <glyph glyph-name="circumflex" unicode="&#x2c6;" 
d="M223 497l-46 36l153 121l123 -121l-46 -36l-82 81z" />
    <glyph glyph-name="caron" unicode="&#x2c7;" 
d="M418 654l46 -36l-153 -121l-123 121l46 36l82 -81z" />
    <glyph glyph-name="uni02C9" unicode="&#x2c9;" 
d="M169 573h302l-7 -60h-302z" />
    <glyph glyph-name="breve" unicode="&#x2d8;" 
d="M240 617q2 -12 8 -23.5t14 -19.5q7 -6 19.5 -11.5t34.5 -5.5q38 0 61 18q11 8 18.5 19.5t12.5 22.5h63q-6 -20 -17 -41t-28 -38q-25 -25 -52.5 -33t-55.5 -8q-38 0 -61.5 10t-36.5 22q-16 15 -26.5 38t-12.5 50h59z" />
    <glyph glyph-name="dotaccent" unicode="&#x2d9;" 
d="M265 546q0 14 4.5 24.5t12.5 18.5q17 17 42 17q13 0 21 -4t13 -9t9 -13t4 -22q0 -15 -5.5 -25.5t-11.5 -16.5q-10 -10 -19.5 -13t-20.5 -3q-7 0 -17.5 2t-19.5 11q-2 3 -7 11t-5 22z" />
    <glyph glyph-name="ring" unicode="&#x2da;" 
d="M235 575q0 22 7.5 40.5t19.5 29.5q14 14 30.5 19t32.5 5q23 0 38 -7t23 -15q14 -14 18 -30t4 -30q0 -19 -5.5 -35t-19.5 -30q-15 -14 -31 -19.5t-36 -5.5q-17 0 -31.5 4t-27.5 17q-8 8 -15 21.5t-7 35.5zM280 579q0 -16 10 -26q10 -12 30 -12q12 0 19.5 4t11.5 8
q13 13 13 34q0 19 -11 28q-5 5 -13 7.5t-16 2.5q-19 0 -31 -12q-7 -7 -10 -16t-3 -18z" />
    <glyph glyph-name="ogonek" unicode="&#x2db;" 
d="M335 -172q-17 -9 -33 -11.5t-27 -2.5q-22 0 -37.5 7t-25.5 16q-8 8 -14.5 20t-6.5 30q0 14 6 33.5t26 40.5q10 11 23 21t30 18h58q-12 -8 -26.5 -18t-25.5 -21q-21 -21 -25 -36.5t-4 -20.5q0 -14 8 -22t19.5 -10t18.5 -2q11 0 23 2.5t28 10.5z" />
    <glyph glyph-name="tilde" unicode="&#x2dc;" 
d="M161 531q16 24 40 45q13 11 27 17.5t35 6.5q22 0 37 -6.5t28 -13.5l17 -9q8 -4 17 -7.5t20 -3.5q20 0 35 15q5 5 10.5 13.5t9.5 14.5l37 -34q-7 -12 -16.5 -25.5t-19.5 -21.5q-14 -12 -29 -17t-32 -5t-31 4.5t-24 9.5l-22 11l-22 10t-22 5t-19 -4.5t-15 -11.5
q-9 -8 -15.5 -16.5t-7.5 -10.5z" />
    <glyph glyph-name="hungarumlaut" unicode="&#x2dd;" 
d="M400 634l-154 -136l-38 23l124 145zM532 634l-152 -136l-38 23l124 145z" />
    <glyph glyph-name="acutecomb" unicode="&#x301;" horiz-adv-x="2" 
d="M-58 632l-151 -135l-42 24l123 145z" />
    <glyph glyph-name="uni0394" unicode="&#x394;" horiz-adv-x="668" 
d="M28 0l268 667h76l268 -667h-612zM134 70h400l-200 504z" />
    <glyph glyph-name="uni0394" unicode="&#x2206;" horiz-adv-x="668" 
d="M28 0l268 667h76l268 -667h-612zM134 70h400l-200 504z" />
    <glyph glyph-name="uni03A9" unicode="&#x3a9;" horiz-adv-x="623" 
d="M379 70q35 19 72 49t61 64q18 26 34.5 67.5t16.5 101.5q0 74 -23.5 122t-52.5 75q-26 24 -64 41.5t-89 17.5t-89 -17.5t-64 -41.5q-29 -27 -52.5 -75t-23.5 -122q0 -60 16.5 -101.5t34.5 -67.5q24 -34 61 -64t72 -49v-70h-260v70h179q-38 20 -68.5 46.5t-52.5 56.5
q-32 44 -45 90t-13 96q0 75 25.5 136t66.5 101q30 30 82.5 56t130.5 26t130.5 -26t82.5 -56q41 -40 66.5 -101t25.5 -136q0 -50 -13 -96t-45 -90q-22 -30 -52.5 -56.5t-68.5 -46.5h179v-70h-260v70z" />
    <glyph glyph-name="uni03A9" unicode="&#x2126;" horiz-adv-x="623" 
d="M379 70q35 19 72 49t61 64q18 26 34.5 67.5t16.5 101.5q0 74 -23.5 122t-52.5 75q-26 24 -64 41.5t-89 17.5t-89 -17.5t-64 -41.5q-29 -27 -52.5 -75t-23.5 -122q0 -60 16.5 -101.5t34.5 -67.5q24 -34 61 -64t72 -49v-70h-260v70h179q-38 20 -68.5 46.5t-52.5 56.5
q-32 44 -45 90t-13 96q0 75 25.5 136t66.5 101q30 30 82.5 56t130.5 26t130.5 -26t82.5 -56q41 -40 66.5 -101t25.5 -136q0 -50 -13 -96t-45 -90q-22 -30 -52.5 -56.5t-68.5 -46.5h179v-70h-260v70z" />
    <glyph glyph-name="pi" unicode="&#x3c0;" horiz-adv-x="530" 
d="M145 0v349h-74v66h482v-66h-74v-349h-72v349h-190v-349h-72z" />
    <glyph glyph-name="afii10023" unicode="&#x401;" horiz-adv-x="482" 
d="M505 597h-272l-24 -198h264l-9 -70h-264l-31 -259h272l-9 -70h-346l82 667h346zM399 778q0 8 2.5 17.5t12.5 20.5t21 15t21 4q19 0 32 -12q5 -5 9 -12.5t4 -18.5q0 -24 -16 -42q-6 -6 -16 -11.5t-24 -5.5t-22 4.5t-12 8.5q-12 12 -12 32zM209 778q0 8 2.5 17.5t12.5 20.5
t21 15t21 4q19 0 32 -12q5 -5 9 -12.5t4 -18.5q0 -24 -16 -42q-6 -6 -16 -11.5t-24 -5.5t-22 4.5t-12 8.5q-12 12 -12 32z" />
    <glyph glyph-name="afii10051" unicode="&#x402;" horiz-adv-x="648" 
d="M321 597l-26 -212q40 14 74.5 18.5t59.5 4.5q53 0 88 -14.5t56 -34.5q22 -20 39 -58.5t17 -97.5q0 -45 -15.5 -88t-44.5 -72q-32 -32 -72 -41t-76 -9q-22 0 -42.5 2t-40.5 6l9 69q23 -5 41.5 -6t27.5 -1q23 0 49 6t48 26q25 23 31.5 51.5t6.5 56.5q0 38 -9.5 61.5
t-21.5 37.5q-22 24 -51 30t-53 6q-34 0 -65.5 -5.5t-63.5 -17.5l-39 -315h-74l73 597h-160l9 70h436l-9 -70h-202z" />
    <glyph glyph-name="afii10052" unicode="&#x403;" horiz-adv-x="404" 
d="M168 667h304l-9 -70h-230l-73 -597h-74zM495 837l-168 -117l-39 32l142 130z" />
    <glyph glyph-name="afii10053" unicode="&#x404;" horiz-adv-x="650" 
d="M664 520q-14 16 -33 31.5t-45 29.5t-52 20.5t-60 6.5q-56 0 -103 -14.5t-92 -50.5q-46 -37 -68 -77.5t-30 -85.5h385l-9 -70h-387q-1 -62 20 -109t49 -76q23 -24 63.5 -45.5t104.5 -21.5q38 0 70 7.5t57 20.5q20 11 43.5 27t40.5 32l-11 -92q-20 -14 -43.5 -27t-41.5 -20
q-23 -8 -55.5 -13t-64.5 -5q-63 0 -120.5 19.5t-106.5 70.5q-46 48 -65 103t-19 119q0 49 9 90t24.5 75.5t36 62.5t42.5 49q60 59 127.5 80t142.5 21q29 0 64 -4.5t67 -18.5q16 -7 35 -18.5t36 -24.5z" />
    <glyph glyph-name="afii10054" unicode="&#x405;" horiz-adv-x="518" 
d="M450 535q-6 17 -16 30t-21 22q-19 14 -38.5 17.5t-36.5 3.5q-19 0 -41.5 -5t-42.5 -23q-15 -14 -25 -35t-10 -44q0 -16 6.5 -31.5t21.5 -29.5q10 -9 27.5 -19.5t28.5 -15.5l60 -28q23 -11 45 -24.5t40 -32.5q29 -29 37 -57t8 -60q0 -15 -2 -33t-8 -38t-17 -40.5
t-29 -39.5q-21 -22 -44 -34.5t-46 -19t-44 -8.5t-39 -2q-41 0 -74.5 10t-63.5 40q-22 23 -37 54.5t-19 67.5l74 20q3 -53 36 -87q22 -23 46 -29t49 -6q24 0 52.5 6.5t51.5 30.5q19 20 27.5 46.5t8.5 50.5q0 30 -11 51.5t-25 33.5q-10 9 -29.5 20.5t-35.5 19.5l-53 25
q-14 6 -38 20t-41 31q-14 14 -26 39t-12 64q0 35 11.5 66.5t40.5 59.5q32 31 68.5 43.5t78.5 12.5q22 0 52.5 -5t57.5 -23q20 -13 35.5 -33t24.5 -43z" />
    <glyph glyph-name="afii10055" unicode="&#x406;" horiz-adv-x="246" 
d="M242 667l-82 -667h-74l82 667h74z" />
    <glyph glyph-name="afii10056" unicode="&#x407;" horiz-adv-x="246" 
d="M242 667l-82 -667h-74l82 667h74zM234 778q0 11 4 23t14 21q13 13 33 13q7 0 14.5 -2.5t14.5 -9.5q12 -13 12 -35q0 -23 -16 -41q-14 -14 -34 -14q-18 0 -30 12t-12 33zM112 778q0 11 4 23t14 21q13 13 33 13q7 0 14.5 -2.5t14.5 -9.5q12 -13 12 -35q0 -23 -16 -41
q-14 -14 -34 -14q-18 0 -30 12t-12 33z" />
    <glyph glyph-name="afii10057" unicode="&#x408;" horiz-adv-x="299" 
d="M295 667l-59 -482q-6 -50 -17.5 -90t-37.5 -66q-11 -11 -38 -26t-78 -15q-18 0 -34 3.5t-33 11.5q-12 6 -23.5 14.5t-22.5 19.5l48 58q7 -8 14.5 -14t15.5 -11q11 -6 20 -9t23 -3q15 0 28 4.5t24 15.5t21 35t16 72l59 482h74z" />
    <glyph glyph-name="afii10058" unicode="&#x409;" horiz-adv-x="924" 
d="M558 597h-257l-39 -319q-10 -79 -27 -139.5t-52 -95.5q-23 -23 -56 -36t-71 -13q-14 0 -24 2t-18 4l9 70q17 -6 33 -6q26 0 44 8.5t29 19.5q29 28 40 75t18 102l49 398h406l-34 -277h74q54 0 100.5 -11t79.5 -45q26 -26 35.5 -56t9.5 -63q0 -60 -20 -98.5t-41 -58.5
q-22 -21 -48 -32.5t-52.5 -17t-50.5 -7t-43 -1.5h-166zM569 70h86q13 0 30.5 1t36 4.5t36 10.5t30.5 18q18 16 30 43t12 60q0 21 -5 37t-12 27t-14.5 17.5t-13.5 10.5q-8 5 -32 13t-78 8h-76z" />
    <glyph glyph-name="afii10059" unicode="&#x40a;" horiz-adv-x="939" 
d="M697 390q54 0 100.5 -11t79.5 -45q25 -26 35 -56t10 -65q0 -59 -19.5 -97t-41.5 -58q-22 -21 -48 -32.5t-52.5 -17t-50.5 -7t-43 -1.5h-166l40 320h-342l-39 -320h-74l82 667h74l-34 -277h342l32 277h75l-34 -277h74zM584 70h86q13 0 30.5 1t36 4.5t36 10.5t30.5 18
q18 15 30 41.5t12 60.5q0 43 -16.5 64.5t-28.5 28.5q-8 5 -32 13t-78 8h-76z" />
    <glyph glyph-name="afii10060" unicode="&#x40b;" horiz-adv-x="681" 
d="M321 597l-24 -196q27 4 56.5 5.5t61.5 1.5q78 0 116.5 -12.5t55.5 -24.5q26 -18 40.5 -45t14.5 -65q0 -7 -1 -17l-2 -20t-2 -19t-1 -13l-24 -192h-74l23 182q2 11 3.5 29.5t1.5 29.5q0 27 -10 47t-37 33q-10 5 -33 11t-73 6q-30 0 -64 -2t-60 -5l-41 -331h-74l73 597
h-160l9 70h436l-9 -70h-202z" />
    <glyph glyph-name="afii10061" unicode="&#x40c;" horiz-adv-x="568" 
d="M207 381l319 286h100l-354 -312l278 -355h-98l-235 306l-22 -19l-35 -287h-74l82 667h74zM539 837l-168 -117l-39 32l142 130z" />
    <glyph glyph-name="afii10062" unicode="&#x40e;" horiz-adv-x="568" 
d="M175 667l160 -393l222 393h85l-383 -667h-80l108 186l-197 481h85zM292 841q3 -16 10 -25.5t14 -14.5q8 -7 22 -11.5t36 -4.5q11 0 28 2.5t32 13.5q14 10 20 21.5t8 18.5l67 -23q-6 -18 -20 -38t-42 -36q-23 -13 -47 -18t-48 -5q-22 0 -52 5.5t-56 26.5q-12 10 -24 25.5
t-19 39.5z" />
    <glyph glyph-name="afii10145" unicode="&#x40f;" horiz-adv-x="658" 
d="M168 667h74l-73 -597h338l73 597h74l-82 -667h-208l-19 -160h-70l19 160h-208z" />
    <glyph glyph-name="afii10017" unicode="&#x410;" horiz-adv-x="622" 
d="M479 188h-284l-103 -188h-84l393 699l213 -699h-80zM459 258l-80 267l-146 -267h226z" />
    <glyph glyph-name="afii10018" unicode="&#x411;" horiz-adv-x="532" 
d="M168 667h331l-9 -70h-257l-25 -207h72q55 0 103.5 -11t80.5 -45q28 -29 35.5 -61.5t7.5 -58.5q0 -59 -17 -95.5t-38 -56.5q-18 -18 -41.5 -30t-50 -19t-53.5 -10t-53 -3h-168zM169 70h94q42 0 76 9.5t54 29.5q14 13 25.5 36.5t11.5 60.5q0 40 -14 61t-28 31q-11 8 -35 15
t-69 7h-85z" />
    <glyph glyph-name="afii10019" unicode="&#x412;" horiz-adv-x="532" 
d="M277 667q68 0 107.5 -16.5t58.5 -36.5q17 -17 28 -44t11 -62q0 -23 -6 -49.5t-17 -46.5q-8 -14 -23 -29.5t-39 -26.5q17 -7 35 -18t32 -25q23 -23 32 -50.5t9 -60.5q0 -54 -17.5 -89.5t-43.5 -57.5q-22 -19 -47 -30t-50 -16.5t-47.5 -7t-39.5 -1.5h-174l82 667h109z
M206 374h48q28 0 60 5.5t58 28.5q23 20 29.5 44t6.5 45q0 14 -6 37.5t-31 40.5q-17 12 -41.5 17t-47.5 5h-49zM169 70h90q32 0 67 6t58 23q18 13 32 37.5t14 61.5q0 28 -10.5 51t-38.5 39q-23 14 -51.5 17t-56.5 3h-75z" />
    <glyph glyph-name="afii10020" unicode="&#x413;" horiz-adv-x="404" 
d="M168 667h304l-9 -70h-230l-73 -597h-74z" />
    <glyph glyph-name="afii10021" unicode="&#x414;" horiz-adv-x="640" 
d="M632 667l-73 -597h76l-26 -210h-70l17 140h-472l-17 -140h-70l26 210q18 2 39.5 11t42.5 30q35 35 53 92t27 132l41 332h406zM259 335q-8 -66 -18.5 -108t-24.5 -71t-30.5 -49t-36.5 -37h336l64 527h-258z" />
    <glyph glyph-name="afii10022" unicode="&#x415;" horiz-adv-x="482" 
d="M505 597h-272l-24 -198h264l-9 -70h-264l-31 -259h272l-9 -70h-346l82 667h346z" />
    <glyph glyph-name="afii10024" unicode="&#x416;" horiz-adv-x="810" 
d="M524 667l-35 -286l289 286h92l-320 -311l244 -356h-92l-207 305l-18 -18l-35 -287h-74l35 287l-14 18l-281 -305h-94l334 356l-242 311h90l219 -286l35 286h74z" />
    <glyph glyph-name="afii10025" unicode="&#x417;" horiz-adv-x="555" 
d="M148 581q16 20 36.5 38t43.5 31q28 15 57.5 21.5t60.5 6.5q14 0 31 -1.5t35.5 -6.5t37.5 -15t35 -27q40 -41 40 -103q0 -31 -8.5 -61t-26.5 -52q-14 -17 -35 -29.5t-41 -19.5q28 -5 46.5 -17t28.5 -23q26 -26 33 -54.5t7 -57.5q0 -42 -13 -82t-49 -76q-22 -21 -45.5 -34
t-47 -20t-46.5 -9t-44 -2q-34 0 -77 8.5t-81 37.5q-19 15 -33 34t-23.5 35.5t-14 29t-5.5 15.5l71 32q7 -24 20 -46.5t32 -39.5q28 -24 58 -30t57 -6q28 0 59.5 7.5t60.5 34.5q20 20 32 47t12 61q0 17 -7 43t-36 46q-16 11 -42 18t-70 7h-68l8 70h55q28 0 60.5 6t57.5 27
q17 14 27.5 36t10.5 51q0 27 -10 43.5t-21 26.5q-17 14 -38.5 20t-43.5 6q-28 0 -47.5 -7t-32.5 -15q-16 -10 -29.5 -23.5t-23.5 -26.5z" />
    <glyph glyph-name="afii10026" unicode="&#x418;" horiz-adv-x="710" 
d="M612 509l-530 -539l86 697h74l-63 -511l530 539l-85 -695h-74z" />
    <glyph glyph-name="afii10027" unicode="&#x419;" horiz-adv-x="710" 
d="M612 509l-530 -539l86 697h74l-63 -511l530 539l-85 -695h-74zM374 841q3 -16 10 -25.5t14 -14.5q8 -7 22 -11.5t36 -4.5q11 0 28 2.5t32 13.5q14 10 20 21.5t8 18.5l67 -23q-6 -18 -20 -38t-42 -36q-23 -13 -47 -18t-48 -5q-22 0 -52 5.5t-56 26.5q-12 10 -24 25.5
t-19 39.5z" />
    <glyph glyph-name="afii10028" unicode="&#x41a;" horiz-adv-x="568" 
d="M207 381l319 286h100l-354 -312l278 -355h-98l-235 306l-22 -19l-35 -287h-74l82 667h74z" />
    <glyph glyph-name="afii10029" unicode="&#x41b;" horiz-adv-x="646" 
d="M642 667l-82 -667h-74l73 597h-258l-39 -319q-10 -79 -27 -139.5t-52 -95.5q-23 -23 -56 -36t-71 -13q-14 0 -24 2t-18 4l9 70q17 -6 33 -6q26 0 44 8.5t29 19.5q29 28 40 75t18 102l49 398h406z" />
    <glyph glyph-name="afii10030" unicode="&#x41c;" horiz-adv-x="863" 
d="M63 0l197 704l187 -563l331 564l17 -705h-75l-6 464l-287 -492l-164 492l-123 -464h-77z" />
    <glyph glyph-name="afii10031" unicode="&#x41d;" horiz-adv-x="662" 
d="M209 396h342l33 271h74l-82 -667h-74l40 326h-342l-40 -326h-74l82 667h74z" />
    <glyph glyph-name="afii10032" unicode="&#x41e;" horiz-adv-x="800" 
d="M399 -12q-55 0 -113.5 18t-108.5 69q-15 16 -30.5 37.5t-28 49t-20 61t-7.5 73.5q0 51 10 93.5t26.5 77t37 61t40.5 45.5q110 105 274 105q55 0 113.5 -16.5t110.5 -67.5q16 -16 32 -37t28.5 -48t20 -60t7.5 -73q0 -78 -27.5 -153t-84.5 -130q-44 -42 -114 -73.5
t-166 -31.5zM471 608q-64 0 -118 -21.5t-93 -57.5q-35 -33 -63.5 -87.5t-28.5 -131.5q0 -62 20 -108t49 -76q26 -27 67.5 -47.5t102.5 -20.5q68 0 123.5 22t92.5 58q45 43 68 103.5t23 120.5q0 57 -19.5 102t-50.5 76q-25 25 -67 46.5t-106 21.5z" />
    <glyph glyph-name="afii10033" unicode="&#x41f;" horiz-adv-x="662" 
d="M658 667l-82 -667h-74l73 597h-342l-73 -597h-74l82 667h490z" />
    <glyph glyph-name="afii10034" unicode="&#x420;" horiz-adv-x="457" 
d="M289 667q51 0 93 -13t68 -38q20 -20 33 -52t13 -74q0 -49 -16 -85t-38 -57q-21 -20 -65 -39t-124 -19h-57l-36 -290h-74l82 667h121zM204 360h63q27 0 60.5 6t59.5 30q15 14 25.5 36.5t10.5 55.5q0 34 -11.5 54t-25.5 31q-20 16 -47.5 20t-50.5 4h-55z" />
    <glyph glyph-name="afii10035" unicode="&#x421;" horiz-adv-x="650" 
d="M664 520q-14 15 -33 31t-45 30q-29 15 -56.5 21t-56.5 6q-66 0 -121 -23t-96 -64q-41 -42 -64 -97.5t-23 -116.5t21 -106t49 -74q36 -38 78 -53.5t90 -15.5q38 0 70 7.5t57 20.5q20 11 43.5 27t40.5 32l-11 -92q-20 -14 -43.5 -27t-41.5 -20q-23 -8 -55.5 -13t-64.5 -5
q-74 0 -130 23t-97 65q-46 47 -65 103t-19 120q0 55 11.5 99.5t28 78.5t36.5 59t36 41q60 59 128 80t142 21q29 0 64 -4.5t67 -18.5q16 -7 35 -18.5t36 -24.5z" />
    <glyph glyph-name="afii10036" unicode="&#x422;" horiz-adv-x="426" 
d="M323 597l-73 -597h-74l73 597h-162l9 70h398l-9 -70h-162z" />
    <glyph glyph-name="afii10037" unicode="&#x423;" horiz-adv-x="568" 
d="M175 667l160 -393l222 393h85l-383 -667h-80l108 186l-197 481h85z" />
    <glyph glyph-name="afii10038" unicode="&#x424;" horiz-adv-x="826" 
d="M388 94h-6q-78 0 -137 20.5t-93 54.5q-20 21 -39.5 60t-19.5 102q0 62 21 111.5t61 87.5q51 49 115 66.5t150 17.5h11l10 80h74l-10 -80h5q21 0 49.5 -2.5t59.5 -10t61.5 -22t55.5 -38.5q35 -35 49 -75t14 -85q0 -62 -19.5 -112t-61.5 -90q-53 -49 -120.5 -67t-147.5 -18
h-8l-12 -94h-74zM443 544h-20q-15 0 -39.5 -2t-51.5 -8.5t-54.5 -19t-49.5 -34.5q-27 -27 -42.5 -65t-15.5 -84q0 -51 18.5 -81t36.5 -44t39.5 -22.5t43.5 -13t42 -5.5t34 -1h12zM470 164h20q15 0 35.5 1t43.5 5.5t47 13t45 23.5q34 23 58 64.5t24 102.5q0 28 -6 49t-15 37
t-19.5 26.5t-18.5 16.5q-32 25 -75 33t-79 8h-13z" />
    <glyph glyph-name="afii10039" unicode="&#x425;" horiz-adv-x="502" 
d="M253 345l-139 322h82l107 -251l173 251h84l-223 -322l151 -345h-82l-119 274l-189 -274h-84z" />
    <glyph glyph-name="afii10040" unicode="&#x426;" horiz-adv-x="662" 
d="M168 667h74l-73 -597h338l73 597h74l-73 -597h76l-26 -210h-70l17 140h-492z" />
    <glyph glyph-name="afii10041" unicode="&#x427;" horiz-adv-x="592" 
d="M468 292q-19 -4 -49.5 -8.5t-68.5 -4.5q-36 0 -81.5 6.5t-77.5 25.5q-67 38 -67 117q0 5 0.5 21t5.5 51l20 167h74l-20 -162q-2 -20 -3.5 -33.5t-1.5 -25.5q0 -20 6.5 -39.5t30.5 -35.5q16 -11 43 -16.5t77 -5.5q32 0 60 2.5t60 8.5l38 307h74l-82 -667h-74z" />
    <glyph glyph-name="afii10042" unicode="&#x428;" horiz-adv-x="922" 
d="M168 667h74l-73 -597h264l73 597h74l-73 -597h264l73 597h74l-82 -667h-750z" />
    <glyph glyph-name="afii10043" unicode="&#x429;" horiz-adv-x="926" 
d="M168 667h74l-73 -597h264l73 597h74l-73 -597h264l73 597h74l-73 -597h76l-26 -210h-70l17 140h-756z" />
    <glyph glyph-name="afii10044" unicode="&#x42a;" horiz-adv-x="612" 
d="M247 597h-160l9 70h234l-34 -277h74q54 0 100.5 -11t79.5 -45q26 -26 35.5 -56t9.5 -63q0 -60 -20 -98.5t-41 -58.5q-22 -21 -48 -32.5t-52.5 -17t-50.5 -7t-43 -1.5h-166zM257 70h86q13 0 30.5 1t36 4.5t36 10.5t30.5 18q18 15 30 41.5t12 60.5q0 43 -16.5 64.5
t-28.5 28.5q-8 5 -32 13t-78 8h-76z" />
    <glyph glyph-name="afii10045" unicode="&#x42b;" horiz-adv-x="710" 
d="M706 667l-82 -667h-74l82 667h74zM167 667h75l-34 -277h74q52 0 99.5 -11t80.5 -45q26 -26 35.5 -56t9.5 -63q0 -60 -20 -98.5t-41 -58.5q-22 -21 -48 -32.5t-52.5 -17t-50.5 -7t-43 -1.5h-166zM169 70h86q13 0 30.5 1t36 4.5t36 10.5t30.5 18q18 15 30 41.5t12 60.5
q0 43 -16.5 64.5t-28.5 28.5q-8 5 -32 13t-78 8h-76z" />
    <glyph glyph-name="afii10046" unicode="&#x42c;" horiz-adv-x="524" 
d="M167 667h75l-34 -277h74q54 0 100.5 -11t79.5 -45q26 -26 35.5 -56t9.5 -63q0 -60 -20 -98.5t-41 -58.5q-22 -21 -48 -32.5t-52.5 -17t-50.5 -7t-43 -1.5h-166zM169 70h86q13 0 30.5 1t36 4.5t36 10.5t30.5 18q18 15 30 41.5t12 60.5q0 43 -16.5 64.5t-28.5 28.5
q-8 5 -32 13t-78 8h-76z" />
    <glyph glyph-name="afii10047" unicode="&#x42d;" horiz-adv-x="649" 
d="M125 612q17 10 42.5 23t47.5 21q24 9 55 15.5t69 6.5q72 0 125.5 -21.5t88.5 -53.5q39 -36 63 -91t24 -133q0 -29 -4 -66.5t-16 -78t-34 -80.5t-58 -75q-53 -51 -114 -71t-134 -20q-38 0 -72.5 5.5t-67.5 17.5q-44 15 -83 44l11 90q18 -20 39 -34.5t45 -25.5
q31 -14 63 -20.5t70 -6.5q21 0 45 2.5t48.5 10t49 21t46.5 35.5q27 26 43 55.5t24.5 56t11.5 46t4 25.5h-389l9 70h386q0 56 -20 100t-47 70q-19 19 -40.5 30.5t-42.5 17.5t-41 8t-37 2q-36 0 -68.5 -7t-68.5 -24q-23 -11 -43.5 -25t-40.5 -32z" />
    <glyph glyph-name="afii10048" unicode="&#x42e;" horiz-adv-x="993" 
d="M308 389q14 61 40.5 105.5t53.5 73.5q45 48 110.5 79t154.5 31q73 0 132 -23.5t100 -64.5q15 -15 30 -36t27.5 -48.5t20 -62.5t7.5 -78q0 -94 -33 -164t-79 -115q-53 -51 -115 -74.5t-140 -23.5q-63 0 -123 19.5t-111 73.5q-42 45 -64 103.5t-21 134.5h-99l-39 -319h-74
l82 667h74l-34 -278h100zM659 608q-60 0 -110 -22t-85 -55q-39 -38 -64.5 -96.5t-25.5 -124.5q0 -54 19.5 -101.5t50.5 -79.5q30 -32 76 -51.5t104 -19.5q56 0 106 18.5t87 53.5q39 36 64.5 96t25.5 132q0 49 -16 94t-45 78q-30 34 -78.5 56t-108.5 22z" />
    <glyph glyph-name="afii10049" unicode="&#x42f;" horiz-adv-x="510" 
d="M262 297q-31 4 -60 17t-49 33q-26 25 -34 53.5t-8 60.5q0 56 17 91t37 55q37 38 88 49t117 11h136l-82 -667h-74l36 292h-38l-226 -292h-92zM351 597q-34 0 -69.5 -6.5t-60.5 -32.5q-20 -21 -26 -45t-6 -43q0 -26 8 -49.5t37 -40.5q20 -12 45.5 -17t50.5 -5h64l29 239
h-72z" />
    <glyph glyph-name="afii10065" unicode="&#x430;" horiz-adv-x="528" 
d="M439 415h72l-51 -415h-72l7 58q-10 -14 -23 -27t-29 -22q-23 -13 -45 -17t-41 -4q-38 0 -72 10t-63 41q-23 25 -38.5 61t-15.5 87q0 64 21.5 110t50.5 74q57 54 149 54q21 0 43 -4t45 -16q19 -10 32 -22t23 -27zM295 361q-35 0 -59.5 -12t-40.5 -27q-23 -22 -38 -57
t-15 -73q0 -31 11 -60t32 -49q19 -18 40.5 -24.5t43.5 -6.5q65 0 103 41q23 23 35 60t12 75q0 42 -14 66t-25 34q-13 12 -33.5 22.5t-51.5 10.5z" />
    <glyph glyph-name="afii10066" unicode="&#x431;" horiz-adv-x="529" 
d="M559 700q-6 -15 -15.5 -31.5t-23.5 -29.5q-26 -26 -58.5 -36.5t-64.5 -18.5q-47 -11 -90 -26.5t-72 -43.5q-22 -20 -41.5 -58t-35.5 -107h2q20 28 51 48q24 15 50 21.5t55 6.5q49 0 86.5 -15.5t60.5 -38.5q18 -18 34.5 -50t16.5 -85q0 -66 -21 -110t-47 -70
q-38 -38 -81 -53t-96 -15q-42 0 -79 11.5t-68 46.5q-30 34 -40 73.5t-10 77.5q0 20 2.5 46t6 53.5t8.5 54t10 45.5q11 42 32.5 84.5t51.5 73.5q32 32 68 49.5t65 25.5t59.5 14t55.5 16q18 8 29 17t19 24h80zM304 361q-38 0 -65.5 -13t-46.5 -32q-21 -21 -34.5 -53t-13.5 -72
q0 -35 11 -61.5t28 -43.5q23 -22 48.5 -28t44.5 -6q32 0 61 10t54 36q23 23 36 55.5t13 73.5q0 36 -11.5 59.5t-25.5 37.5q-8 8 -32 22.5t-67 14.5z" />
    <glyph glyph-name="afii10067" unicode="&#x432;" horiz-adv-x="431" 
d="M264 415q23 0 45.5 -4t42.5 -19q19 -14 27 -33t8 -40q0 -16 -4 -31t-12 -27q-16 -23 -40 -33q8 -2 21.5 -8.5t26.5 -20.5q14 -14 19.5 -30.5t5.5 -36.5q0 -29 -9.5 -52t-25.5 -39q-18 -17 -48.5 -29t-72.5 -12h-107h-73l51 415h145zM246 246q12 0 27 2.5t28 13.5
q7 5 12.5 15t5.5 26q0 19 -8.5 28t-14.5 12q-2 1 -13.5 4.5t-40.5 3.5h-59l-13 -105h76zM239 64q14 0 34.5 2.5t34.5 11.5q12 8 19 22t7 29q0 19 -8.5 30t-16.5 16q-7 4 -21 7.5t-43 3.5h-82l-15 -122h91z" />
    <glyph glyph-name="afii10068" unicode="&#x433;" horiz-adv-x="318" 
d="M119 415h246l-8 -66h-174l-43 -349h-72z" />
    <glyph glyph-name="afii10069" unicode="&#x434;" horiz-adv-x="460" 
d="M441 415l-43 -349h62l-22 -176h-66l14 110h-316l-14 -110h-66l22 176q14 1 31.5 7t34.5 23q28 27 35.5 62.5t12.5 71.5l23 185h292zM361 349h-148l-16 -134q-2 -21 -6 -44t-16 -47q-11 -23 -24.5 -37t-22.5 -21h198z" />
    <glyph glyph-name="afii10070" unicode="&#x435;" horiz-adv-x="483" 
d="M456 106q-14 -24 -35 -48t-42 -38q-31 -20 -62.5 -26t-57.5 -6q-37 0 -71.5 10t-65.5 42q-19 20 -37 55.5t-18 93.5q0 54 19 99.5t52 78.5q32 32 67.5 45t77.5 13q53 0 85 -15.5t50 -33.5q23 -23 39 -67t8 -116h-323q-1 -45 11 -70.5t26 -39.5q18 -18 38.5 -24.5
t43.5 -6.5q18 0 39 4.5t41 18.5q16 11 30.5 29t23.5 35zM396 253q-1 23 -10 45t-25 37q-17 17 -38 21.5t-38 4.5q-28 0 -50 -8t-41 -27q-14 -14 -24.5 -32.5t-15.5 -40.5h242z" />
    <glyph glyph-name="afii10072" unicode="&#x436;" horiz-adv-x="596" 
d="M385 415l-21 -170l177 170h84l-207 -196l170 -219h-86l-133 175l-15 -14l-20 -161h-72l20 161l-13 14l-175 -175h-90l227 224l-156 191h82l135 -170l21 170h72z" />
    <glyph glyph-name="afii10073" unicode="&#x437;" horiz-adv-x="404" 
d="M96 350q12 15 28 29t31 23q22 13 44.5 18t48.5 5q23 0 48.5 -6.5t47.5 -28.5q13 -14 20 -30t7 -39q0 -13 -3.5 -29t-15.5 -32q-5 -8 -15 -16t-25 -14q17 -6 28.5 -16t18.5 -18q9 -12 14 -26t5 -32q0 -33 -13.5 -63t-39.5 -51q-30 -24 -65.5 -30t-62.5 -6q-29 0 -56.5 6.5
t-51.5 25.5q-13 10 -22.5 22.5t-16.5 23.5t-10.5 19t-3.5 9l64 26q10 -30 32 -47q17 -13 35.5 -17t34.5 -4q13 0 33.5 2.5t38.5 15.5q11 8 20.5 22.5t9.5 37.5q0 30 -24 45q-14 9 -32.5 11t-28.5 2h-42l8 66h35q4 0 12.5 0.5t18.5 2.5t20.5 5.5t17.5 10.5q5 5 9.5 13.5
t4.5 22.5q0 21 -14 35q-12 12 -27 14.5t-24 2.5q-14 0 -29 -3t-30 -13q-11 -7 -21 -17t-17 -19z" />
    <glyph glyph-name="afii10074" unicode="&#x438;" horiz-adv-x="492" 
d="M191 415l-34 -276l322 308l-55 -447h-72l34 279l-322 -308l55 444h72z" />
    <glyph glyph-name="afii10075" unicode="&#x439;" horiz-adv-x="492" 
d="M191 415l-34 -276l322 308l-55 -447h-72l34 279l-322 -308l55 444h72zM240 617q8 -29 28 -44q11 -8 25 -12t30 -4q14 0 28.5 3.5t26.5 11.5q11 8 19.5 20.5t12.5 24.5l60 -23q-4 -8 -16 -29.5t-38 -40.5q-21 -15 -44 -21t-49 -6q-25 0 -49 5.5t-46 22.5q-14 11 -27 27.5
t-21 41.5z" />
    <glyph glyph-name="afii10076" unicode="&#x43a;" horiz-adv-x="422" 
d="M191 415l-21 -170l189 170h88l-207 -187l174 -228h-90l-140 182l-24 -21l-20 -161h-72l51 415h72z" />
    <glyph glyph-name="afii10077" unicode="&#x43b;" horiz-adv-x="450" 
d="M382 0h-72l43 349h-148l-23 -182q-5 -35 -13.5 -67.5t-35.5 -60.5q-23 -23 -55.5 -34t-69.5 -5l8 66q19 -5 35 0.5t27 14.5q9 8 15 20t9.5 24t5.5 24t3 20l30 246h292z" />
    <glyph glyph-name="afii10078" unicode="&#x43c;" horiz-adv-x="580" 
d="M175 447l130 -338l210 338l45 -447h-72l-23 257l-177 -286l-107 286l-85 -257h-76z" />
    <glyph glyph-name="afii10079" unicode="&#x43d;" horiz-adv-x="476" 
d="M119 415h72l-21 -170h196l21 170h72l-51 -415h-72l22 179h-196l-22 -179h-72z" />
    <glyph glyph-name="afii10080" unicode="&#x43e;" horiz-adv-x="528" 
d="M268 -12q-45 0 -81.5 12.5t-66.5 44.5q-22 23 -37.5 58.5t-15.5 86.5q0 45 16.5 90t58.5 83q68 62 166 62q51 0 88.5 -15.5t63.5 -41.5q32 -32 41.5 -68t9.5 -68q0 -68 -22.5 -112t-47.5 -68q-40 -39 -85.5 -51.5t-87.5 -12.5zM307 361q-21 0 -52 -8.5t-61 -37.5
q-26 -26 -39.5 -59t-13.5 -71q0 -35 12 -58t24 -36q11 -12 34.5 -25.5t61.5 -13.5q39 0 67 14t46 34q23 25 36.5 60t13.5 71q0 32 -10 55t-24 37q-16 17 -40 27.5t-55 10.5z" />
    <glyph glyph-name="afii10081" unicode="&#x43f;" horiz-adv-x="470" 
d="M453 415l-51 -415h-72l43 349h-190l-43 -349h-72l51 415h334z" />
    <glyph glyph-name="afii10082" unicode="&#x440;" horiz-adv-x="528" 
d="M111 -230h-72l80 645h72l-7 -58q14 19 29.5 30.5t28.5 18.5q21 11 41.5 15t43.5 4q27 0 62.5 -8.5t67.5 -39.5q24 -23 39 -57.5t15 -85.5q0 -60 -20 -110t-53 -82q-35 -34 -72.5 -44t-76.5 -10q-20 0 -45.5 4t-49.5 19q-14 9 -26.5 21.5t-20.5 25.5zM287 52
q26 0 49.5 7.5t44.5 27.5q29 26 42.5 65t13.5 77t-12 61.5t-24 35.5q-14 14 -36 24.5t-56 10.5t-58.5 -11.5t-44.5 -32.5q-23 -24 -34.5 -57t-11.5 -69q0 -24 7 -50t27 -49q20 -22 43.5 -31t49.5 -9z" />
    <glyph glyph-name="afii10083" unicode="&#x441;" horiz-adv-x="440" 
d="M432 299q-11 12 -24.5 24t-27.5 20q-15 8 -35 13t-40 5q-35 0 -62 -11.5t-49 -31.5q-20 -20 -36.5 -50.5t-16.5 -75.5q0 -39 13 -64.5t27 -39.5q21 -21 45.5 -28.5t50.5 -7.5q22 0 40 4t37 14q20 11 34 23.5t24 23.5l-10 -86q-31 -23 -60 -32q-18 -6 -37 -8.5t-37 -2.5
q-38 0 -76 11t-70 44q-27 28 -41 65t-14 80q0 48 18.5 94t53.5 80q10 10 25.5 21t36 20.5t47 15.5t59.5 6q32 0 67 -8.5t68 -31.5z" />
    <glyph glyph-name="afii10084" unicode="&#x442;" horiz-adv-x="348" 
d="M253 349l-43 -349h-72l43 349h-130l8 66h332l-8 -66h-130z" />
    <glyph glyph-name="afii10085" unicode="&#x443;" horiz-adv-x="460" 
d="M204 39l-145 376h80l110 -297l172 297h82l-384 -645h-80z" />
    <glyph glyph-name="afii10086" unicode="&#x444;" horiz-adv-x="653" 
d="M289 -7q-59 0 -100 16t-62 36q-25 23 -42 59t-17 83q0 45 15.5 85.5t44.5 72.5q23 26 50 41t55 23t56 10.5t53 2.5l30 245h72l-30 -245q3 0 20.5 -1t42 -6.5t53 -18t52.5 -35.5q20 -20 37.5 -53t17.5 -84t-16.5 -92t-42.5 -68q-39 -42 -94.5 -56.5t-118.5 -14.5h-4
l-28 -223h-72zM333 358q-15 0 -33 -1.5t-37.5 -6.5t-38.5 -14.5t-35 -25.5q-23 -23 -35.5 -55t-12.5 -64q0 -29 10 -52.5t27 -39.5q21 -20 53.5 -31t65.5 -11zM369 57h4q40 0 78.5 10t67.5 39q26 27 34.5 58t8.5 59q0 21 -6 46.5t-30 48.5q-23 21 -56.5 30.5t-63.5 9.5z" />
    <glyph glyph-name="afii10087" unicode="&#x445;" horiz-adv-x="452" 
d="M212 222l-127 193h86l90 -141l126 141h88l-176 -194l145 -221h-86l-110 169l-152 -169h-88z" />
    <glyph glyph-name="afii10088" unicode="&#x446;" horiz-adv-x="474" 
d="M119 415h72l-43 -349h186l43 349h72l-43 -349h68l-22 -176h-66l14 110h-332z" />
    <glyph glyph-name="afii10089" unicode="&#x447;" horiz-adv-x="430" 
d="M310 166q-22 -7 -43.5 -9.5t-39.5 -2.5q-26 0 -57.5 7t-51.5 24q-19 17 -24 36.5t-5 36.5q0 11 1.5 24.5t4.5 36.5l12 96h72l-11 -92q-3 -23 -4 -33t-1 -17q0 -12 4 -22.5t17 -18.5q14 -9 34 -10.5t29 -1.5q29 0 46 4t25 7l23 184h72l-51 -415h-72z" />
    <glyph glyph-name="afii10090" unicode="&#x448;" horiz-adv-x="672" 
d="M119 415h72l-43 -349h160l43 349h72l-43 -349h160l43 349h72l-51 -415h-536z" />
    <glyph glyph-name="afii10091" unicode="&#x449;" horiz-adv-x="680" 
d="M119 415h72l-43 -349h160l43 349h72l-43 -349h160l43 349h72l-43 -349h68l-22 -176h-66l14 110h-538z" />
    <glyph glyph-name="afii10092" unicode="&#x44a;" horiz-adv-x="431" 
d="M141 349h-90l8 66h162l-20 -159h75q21 0 51.5 -4.5t56.5 -27.5q22 -20 28.5 -42t6.5 -43q0 -35 -10.5 -58t-25.5 -38t-32 -23.5t-34.5 -13t-33 -5.5t-26.5 -1h-86h-73zM253 64q19 0 37.5 4t30.5 13q8 6 16 18t8 33q0 20 -7 31t-15 16q-13 9 -31.5 11t-29.5 2h-68
l-16 -128h75z" />
    <glyph glyph-name="afii10093" unicode="&#x44b;" horiz-adv-x="562" 
d="M473 415h72l-51 -415h-72zM119 415h72l-20 -159h75q21 0 51.5 -4.5t56.5 -27.5q22 -20 28.5 -42t6.5 -43q0 -35 -10.5 -58t-25.5 -38t-32 -23.5t-34.5 -13t-33 -5.5t-26.5 -1h-86h-73zM223 64q19 0 37.5 4t30.5 13q8 6 16 18t8 33q0 20 -7 31t-15 16q-13 9 -31.5 11
t-29.5 2h-68l-16 -128h75z" />
    <glyph glyph-name="afii10094" unicode="&#x44c;" horiz-adv-x="401" 
d="M119 415h72l-20 -159h75q21 0 51.5 -4.5t56.5 -27.5q22 -20 28.5 -42t6.5 -43q0 -35 -10.5 -58t-25.5 -38t-32 -23.5t-34.5 -13t-33 -5.5t-26.5 -1h-87h-72zM223 64q19 0 37.5 4t30.5 13q11 8 17.5 21t6.5 30q0 20 -7 31t-15 16q-13 9 -31.5 11t-29.5 2h-68l-16 -128h75z
" />
    <glyph glyph-name="afii10095" unicode="&#x44d;" horiz-adv-x="426" 
d="M91 400q17 8 46.5 16.5t71.5 8.5q53 0 88 -14.5t56 -34.5q35 -32 45.5 -72t10.5 -75q0 -66 -20.5 -108.5t-44.5 -67.5q-38 -38 -82.5 -51.5t-89.5 -13.5q-48 0 -79 9t-50 19l9 70q30 -21 59 -27.5t56 -6.5q28 0 59 7t59 34q15 14 27 36t17 51h-219l8 64h217
q-2 31 -13.5 51t-25.5 32q-23 20 -50.5 27t-54.5 7q-20 0 -48.5 -5.5t-60.5 -25.5z" />
    <glyph glyph-name="afii10096" unicode="&#x44e;" horiz-adv-x="692" 
d="M244 245q10 40 28.5 68t37.5 47q26 26 67 45.5t99 19.5q30 0 53.5 -5.5t41 -14t30 -17.5t19.5 -16q21 -20 38 -55t17 -86q0 -48 -17 -97t-54 -85q-41 -40 -84.5 -50.5t-81.5 -10.5q-44 0 -82.5 11.5t-70.5 45.5q-21 22 -36 56t-15 78h-72l-22 -179h-72l51 415h72
l-21 -170h74zM470 361q-30 0 -57.5 -9.5t-51.5 -33.5q-26 -26 -39 -61.5t-13 -70.5t10.5 -59t24.5 -38q18 -19 44 -28t51 -9q32 0 61 12t49 33q23 23 37 58t14 75q0 32 -10.5 55.5t-24.5 38.5q-12 13 -34.5 25t-60.5 12z" />
    <glyph glyph-name="afii10097" unicode="&#x44f;" horiz-adv-x="408" 
d="M170 171q-2 0 -9.5 1t-18 4.5t-22.5 10t-23 16.5q-17 17 -22 36t-5 35q0 39 12.5 63.5t26.5 37.5q29 29 65.5 34.5t71.5 5.5h145l-51 -415h-72l21 167h-40l-139 -167h-90zM311 351h-74q-14 0 -34 -2.5t-35 -13.5q-16 -11 -20 -24.5t-4 -23.5q0 -11 3.5 -23.5t18.5 -22.5
q14 -9 33 -11.5t33 -2.5h64z" />
    <glyph glyph-name="afii10071" unicode="&#x451;" horiz-adv-x="483" 
d="M456 106q-14 -24 -35 -48t-42 -38q-31 -20 -62.5 -26t-57.5 -6q-37 0 -71.5 10t-65.5 42q-19 20 -37 55.5t-18 93.5q0 54 19 99.5t52 78.5q32 32 67.5 45t77.5 13q53 0 85 -15.5t50 -33.5q23 -23 39 -67t8 -116h-323q-1 -45 11 -70.5t26 -39.5q18 -18 38.5 -24.5
t43.5 -6.5q18 0 39 4.5t41 18.5q16 11 30.5 29t23.5 35zM396 253q-1 23 -10 45t-25 37q-17 17 -38 21.5t-38 4.5q-28 0 -50 -8t-41 -27q-14 -14 -24.5 -32.5t-15.5 -40.5h242zM351 543q0 11 4.5 21.5t12.5 18.5q6 6 16 11.5t24 5.5q18 0 31 -12t13 -32q0 -22 -18 -40
q-16 -16 -38 -16q-17 0 -31 11.5t-14 31.5zM177 543q0 11 4.5 21.5t12.5 18.5q6 6 16 11.5t24 5.5q18 0 31 -12t13 -32q0 -22 -18 -40q-16 -16 -38 -16q-17 0 -31 11.5t-14 31.5z" />
    <glyph glyph-name="afii10099" unicode="&#x452;" horiz-adv-x="469" 
d="M131 514h-98l7 60h98l20 155h72l-20 -155h200l-7 -60h-200l-23 -187q2 2 13.5 15t28.5 24q20 12 39.5 15.5t36.5 3.5q23 0 50 -6.5t50 -29.5q21 -21 27 -45.5t6 -47.5q0 -17 -2 -33t-4 -36l-33 -275q-5 -37 -12 -63.5t-30 -46.5q-21 -20 -44 -26t-47 -6q-15 0 -29 2
t-29 7l9 70q11 -4 23 -6.5t23 -2.5q18 0 28.5 5.5t15.5 10.5q10 10 14 26.5t6 33.5l30 251q5 35 5.5 50.5t0.5 20.5q0 13 -3.5 30.5t-17.5 31.5q-9 9 -23.5 15t-34.5 6q-24 0 -43 -8t-31 -21q-21 -22 -29 -54.5t-12 -60.5l-22 -177h-72z" />
    <glyph glyph-name="afii10100" unicode="&#x453;" horiz-adv-x="318" 
d="M119 415h246l-8 -66h-174l-43 -349h-72zM404 632l-151 -135l-42 24l123 145z" />
    <glyph glyph-name="afii10101" unicode="&#x454;" horiz-adv-x="440" 
d="M432 299q-11 12 -24.5 24t-27.5 20q-15 8 -34.5 13t-39.5 5q-28 0 -56 -9t-50 -28q-17 -14 -30 -34.5t-20 -45.5h217l-8 -64h-218q2 -38 17 -61t23 -31q22 -21 46 -28.5t50 -7.5q22 0 40 4t37 14q20 11 34 23.5t24 23.5l-10 -86q-31 -23 -60 -32q-18 -6 -37 -8.5
t-37 -2.5q-38 0 -76 11t-70 44q-27 28 -41 65t-14 80q0 48 18.5 94t53.5 80q10 10 25.5 21t36 20.5t47 15.5t59.5 6q32 0 67 -8.5t68 -31.5z" />
    <glyph glyph-name="afii10102" unicode="&#x455;" horiz-adv-x="350" 
d="M276 319q-3 10 -7.5 16.5t-9.5 11.5q-8 8 -16.5 11t-19.5 3t-21 -2.5t-19 -10.5q-16 -15 -16 -37q0 -11 3.5 -17.5t8.5 -11.5q8 -8 19 -13.5t22 -10.5l38 -19q12 -6 27.5 -16.5t25.5 -20.5q15 -17 21 -35.5t6 -38.5q0 -29 -9 -53.5t-26 -42.5q-14 -15 -30 -24t-32 -13.5
t-31 -5.5t-26 -1q-23 0 -44.5 5t-42.5 22q-36 30 -49 79l63 26q3 -11 9.5 -25t15.5 -24q11 -11 23.5 -15t26.5 -4q10 0 26 2.5t30 15.5q11 10 16 24t5 29q0 26 -22 43q-5 5 -18.5 12.5t-24.5 12.5l-23 11q-13 6 -29 16.5t-26 21.5q-13 14 -18 30.5t-5 34.5q0 29 10.5 50
t24.5 35q22 22 46 28.5t48 6.5q20 0 38 -5t37 -20q26 -21 38 -50z" />
    <glyph glyph-name="afii10103" unicode="&#x456;" horiz-adv-x="208" 
d="M191 415l-51 -415h-72l51 415h72zM123 566q0 11 4 21t10 17q6 8 17 13.5t26 5.5q20 0 32 -12q13 -13 13 -33q0 -14 -4.5 -23.5t-11.5 -16.5q-10 -11 -21 -14t-19 -3q-20 0 -34 14q-12 12 -12 31z" />
    <glyph glyph-name="afii10104" unicode="&#x457;" horiz-adv-x="208" 
d="M193 415l-51 -415h-72l51 415h72zM184 566q0 10 3 21t10 19q13 17 33 17q17 0 29 -13q4 -5 7.5 -13t3.5 -19t-4 -22.5t-13 -20.5q-12 -12 -28 -12q-10 0 -17 3.5t-12 8.5q-12 12 -12 31zM77 566q0 10 3 21t10 19q13 17 33 17q17 0 29 -13q4 -5 7.5 -13t3.5 -19t-4 -22.5
t-13 -20.5q-12 -12 -28 -12q-10 0 -17 3.5t-12 8.5q-12 12 -12 31z" />
    <glyph glyph-name="afii10105" unicode="&#x458;" horiz-adv-x="207" 
d="M191 415l-80 -645h-72l80 645h72zM122 566q0 11 4 21t10 17q6 8 17 13.5t26 5.5q20 0 32 -12q13 -13 13 -33q0 -14 -4.5 -23.5t-11.5 -16.5q-10 -11 -21 -14t-19 -3q-20 0 -34 14q-12 12 -12 31z" />
    <glyph glyph-name="afii10106" unicode="&#x459;" horiz-adv-x="643" 
d="M353 349h-148l-23 -182q-5 -35 -13.5 -67.5t-35.5 -60.5q-23 -23 -55.5 -34t-69.5 -5l8 66q19 -5 35 0.5t27 14.5q9 8 15 20t9.5 24t5.5 24t3 20l30 246h292l-20 -159h75q21 0 51.5 -4.5t56.5 -27.5q22 -20 28.5 -42t6.5 -43q0 -35 -10.5 -58t-25.5 -38t-32 -23.5
t-34.5 -13t-33 -5.5t-26.5 -1h-159zM465 64q19 0 37.5 4t30.5 13q11 8 17.5 21t6.5 30q0 20 -7 31t-15 16q-13 9 -31.5 11t-29.5 2h-68l-16 -128h75z" />
    <glyph glyph-name="afii10107" unicode="&#x45a;" horiz-adv-x="669" 
d="M360 192h-196l-24 -192h-72l51 415h72l-19 -159h195l20 159h72l-20 -159h75q21 0 51.5 -4.5t56.5 -27.5q22 -20 28.5 -42t6.5 -43q0 -35 -10.5 -58t-25.5 -38t-32 -23.5t-34.5 -13t-33 -5.5t-26.5 -1h-159zM491 64q19 0 37.5 4t30.5 13q11 8 17.5 21t6.5 30q0 20 -7 31
t-15 16q-13 9 -31.5 11t-29.5 2h-68l-16 -128h75z" />
    <glyph glyph-name="afii10108" unicode="&#x45b;" horiz-adv-x="469" 
d="M131 514h-98l7 60h98l20 155h72l-20 -155h200l-7 -60h-200l-23 -187q2 2 13.5 15t28.5 24q20 12 39.5 15.5t36.5 3.5q23 0 50 -6.5t50 -29.5q21 -21 27 -45.5t6 -47.5q0 -14 -1.5 -30t-3.5 -33l-24 -193h-72l20 167q5 35 5.5 50.5t0.5 20.5q0 13 -3.5 30.5t-17.5 31.5
q-9 9 -23.5 15t-34.5 6q-24 0 -43 -8t-31 -21q-21 -22 -29 -54.5t-12 -60.5l-22 -177h-72z" />
    <glyph glyph-name="afii10109" unicode="&#x45c;" horiz-adv-x="422" 
d="M191 415l-21 -170l189 170h88l-207 -187l174 -228h-90l-140 182l-24 -21l-20 -161h-72l51 415h72zM425 632l-151 -135l-42 24l123 145z" />
    <glyph glyph-name="afii10110" unicode="&#x45e;" horiz-adv-x="460" 
d="M204 39l-145 376h80l110 -297l172 297h82l-384 -645h-80zM208 617q8 -29 28 -44q11 -8 25 -12t30 -4q14 0 28.5 3.5t26.5 11.5q11 8 19.5 20.5t12.5 24.5l60 -23q-4 -8 -16 -29.5t-38 -40.5q-21 -15 -44 -21t-49 -6q-25 0 -49 5.5t-46 22.5q-14 11 -27 27.5t-21 41.5z
" />
    <glyph glyph-name="afii10193" unicode="&#x45f;" horiz-adv-x="466" 
d="M119 415h72l-43 -349h186l43 349h72l-51 -415h-132l-14 -120h-66l14 120h-132z" />
    <glyph glyph-name="afii10146" unicode="&#x462;" horiz-adv-x="612" 
d="M237 517h-160l9 70h160l13 107h74l-13 -107h180l-9 -70h-180l-15 -127h74q54 0 100.5 -11t79.5 -45q28 -29 36.5 -60t8.5 -58q0 -53 -17 -92.5t-44 -65.5q-22 -21 -48 -32.5t-52.5 -17t-50.5 -7t-43 -1.5h-166zM257 70h86q13 0 30.5 1t36 4.5t36 10.5t30.5 18
q18 15 30 41.5t12 60.5q0 43 -16.5 64.5t-28.5 28.5q-8 5 -32 13t-78 8h-76z" />
    <glyph glyph-name="afii10194" unicode="&#x463;" horiz-adv-x="431" 
d="M141 349h-90l8 66h90l31 252h72l-31 -252h120l-8 -66h-120l-12 -93h75q21 0 51.5 -4.5t56.5 -27.5q22 -20 28.5 -42t6.5 -43q0 -35 -10.5 -58t-25.5 -38t-32 -23.5t-34.5 -13t-33 -5.5t-26.5 -1h-159zM253 64q19 0 37.5 4t30.5 13q11 8 17.5 21t6.5 30q0 20 -7 31t-15 16
q-13 9 -31.5 11t-29.5 2h-68l-16 -128h75z" />
    <glyph glyph-name="afii10147" unicode="&#x472;" horiz-adv-x="800" 
d="M399 -12q-55 0 -113.5 18t-108.5 69q-15 16 -30.5 37.5t-28 49t-20 61t-7.5 73.5q0 51 10 93.5t26.5 77t37 61t40.5 45.5q110 105 274 105q55 0 113.5 -16.5t110.5 -67.5q16 -16 32 -37t28.5 -48t20 -60t7.5 -73q0 -78 -27.5 -153t-84.5 -130q-44 -42 -114 -73.5
t-166 -31.5zM713 380q0 6 -2.5 23.5t-10 40t-20.5 48t-36 48.5q-25 25 -67 46.5t-106 21.5q-70 0 -123 -23t-88 -56q-29 -27 -51 -64t-33 -85h537zM168 310q-1 -61 20 -108t49 -76q26 -27 67.5 -47.5t102.5 -20.5q68 0 123.5 22t92.5 58q33 32 56 76.5t31 95.5h-542z" />
    <glyph glyph-name="afii10195" unicode="&#x473;" horiz-adv-x="528" 
d="M268 -12q-45 0 -81.5 12.5t-66.5 44.5q-22 23 -37.5 58.5t-15.5 86.5q0 45 16.5 90t58.5 83q68 62 166 62q51 0 88.5 -15.5t63.5 -41.5q32 -32 41.5 -68t9.5 -68q0 -68 -22.5 -112t-47.5 -68q-40 -39 -85.5 -51.5t-87.5 -12.5zM435 244q-2 28 -12 47.5t-21 31.5
q-20 20 -44 29t-53 9q-59 0 -103 -37q-23 -20 -35 -40.5t-17 -39.5h285zM141 180q2 -28 12 -51t24 -38q14 -16 38.5 -27.5t59.5 -11.5q30 0 55.5 9.5t43.5 24.5q19 16 33.5 40.5t21.5 53.5h-288z" />
    <glyph glyph-name="afii10148" unicode="&#x474;" horiz-adv-x="556" 
d="M171 667l125 -509l251 509h83l-357 -707l-183 707h81z" />
    <glyph glyph-name="afii10196" unicode="&#x475;" horiz-adv-x="424" 
d="M137 415l90 -280l158 280h82l-258 -442l-150 442h78z" />
    <glyph glyph-name="afii10050" unicode="&#x490;" horiz-adv-x="404" 
d="M168 667h234l17 140h70l-26 -210h-230l-73 -597h-74z" />
    <glyph glyph-name="afii10098" unicode="&#x491;" horiz-adv-x="328" 
d="M119 415h180l13 110h66l-21 -176h-174l-43 -349h-72z" />
    <glyph glyph-name="uni0492" unicode="&#x492;" horiz-adv-x="404" 
d="M127 334h-86l8 66h86l33 267h304l-9 -70h-230l-24 -197h136l-8 -66h-136l-41 -334h-74z" />
    <glyph glyph-name="uni0493" unicode="&#x493;" horiz-adv-x="318" 
d="M91 188h-68l7 60h68l21 167h246l-8 -66h-174l-13 -101h100l-7 -60h-100l-23 -188h-72z" />
    <glyph glyph-name="uni0494" unicode="&#x494;" horiz-adv-x="560" 
d="M233 597l-26 -212q35 13 68.5 18t63.5 5q55 0 90 -14.5t56 -34.5q22 -20 39 -58.5t17 -97.5q0 -45 -15.5 -88t-44.5 -72q-32 -32 -72 -41t-76 -9q-22 0 -42.5 2t-40.5 6l9 69q23 -5 41.5 -6t27.5 -1q23 0 49 6t48 26q25 23 31.5 51.5t6.5 56.5q0 38 -9.5 61.5t-21.5 37.5
q-22 24 -51 30t-53 6q-34 0 -65.5 -5.5t-63.5 -17.5l-39 -315h-74l82 667h342l-9 -70h-268z" />
    <glyph glyph-name="uni0495" unicode="&#x495;" horiz-adv-x="430" 
d="M119 415h246l-8 -66h-174l-14 -113h12q41 0 85 -11t78 -46q26 -28 35.5 -61t9.5 -65q0 -21 -4 -47.5t-16 -55t-33 -56t-55 -49.5q-23 -15 -46.5 -25t-43.5 -16t-35.5 -8.5t-21.5 -3.5l8 70q24 4 52 13.5t48 24.5q31 23 52 62.5t21 86.5q0 32 -10.5 56t-26.5 38
q-21 19 -47 23t-50 4h-20l-21 -170h-72z" />
    <glyph glyph-name="uni0496" unicode="&#x496;" horiz-adv-x="810" 
d="M524 667l-35 -286l289 286h92l-320 -311l196 -286h57l-26 -210h-70l17 140h-22l-207 305l-18 -18l-35 -287h-74l35 287l-14 18l-281 -305h-94l334 356l-242 311h90l219 -286l35 286h74z" />
    <glyph glyph-name="uni0497" unicode="&#x497;" horiz-adv-x="596" 
d="M385 415l-21 -170l177 170h84l-207 -196l119 -153h58l-22 -176h-66l14 110h-19l-133 175l-15 -14l-20 -161h-72l20 161l-13 14l-175 -175h-90l227 224l-156 191h82l135 -170l21 170h72z" />
    <glyph glyph-name="uni0498" unicode="&#x498;" horiz-adv-x="555" 
d="M148 581q16 20 36.5 38t43.5 31q28 15 57.5 21.5t60.5 6.5q30 0 68 -8.5t68 -37.5q20 -19 31.5 -46t11.5 -65q0 -35 -10 -62.5t-25 -46.5q-14 -17 -35 -29.5t-41 -19.5q28 -5 46.5 -17t28.5 -23q25 -26 32.5 -55t7.5 -55q0 -45 -16 -87t-46 -73q-22 -23 -59.5 -42.5
t-90.5 -21.5l-19 -149h-70l19 150q-33 2 -65 13t-56 31q-26 20 -45.5 51.5t-30.5 62.5l71 32q7 -24 20 -46.5t32 -39.5q28 -24 58 -30t57 -6q28 0 59.5 7.5t60.5 34.5q20 20 32 47t12 61q0 17 -7 43t-36 46q-16 11 -42 18t-70 7h-68l8 70h55q28 0 60.5 6t57.5 27
q17 14 27.5 36t10.5 51q0 27 -10 43.5t-21 26.5q-17 14 -38.5 20t-43.5 6q-28 0 -47.5 -7t-32.5 -15q-16 -10 -29.5 -23.5t-23.5 -26.5z" />
    <glyph glyph-name="uni0499" unicode="&#x499;" horiz-adv-x="404" 
d="M96 350q12 15 28 29t31 23q22 13 45 18t48 5q23 0 48.5 -6.5t47.5 -28.5q15 -16 21 -33t6 -37q0 -16 -4 -31t-15 -29q-5 -8 -15 -16t-25 -14q23 -8 39 -25q15 -16 21 -32t6 -37q0 -34 -12 -59.5t-29 -42.5t-44.5 -30t-65.5 -15l-14 -109h-66l14 111q-29 3 -49.5 14.5
t-33.5 24.5q-20 19 -30 39.5t-12 24.5l64 26q5 -12 13 -25.5t19 -21.5q11 -9 28.5 -15t41.5 -6q32 0 50.5 7.5t29.5 17.5q8 8 15 20.5t7 32.5q0 30 -24 45q-14 9 -32.5 11t-28.5 2h-42l8 66h35q4 0 12.5 0.5t18.5 2.5t20.5 5.5t17.5 10.5q5 5 9.5 13.5t4.5 22.5q0 21 -14 35
q-12 12 -26.5 14.5t-24.5 2.5q-17 0 -31 -3.5t-28 -12.5q-11 -7 -20.5 -16.5t-17.5 -19.5z" />
    <glyph glyph-name="uni049A" unicode="&#x49a;" horiz-adv-x="568" 
d="M207 381l319 286h100l-352 -311l224 -286h63l-26 -210h-70l17 140h-30l-235 306l-22 -19l-35 -287h-74l82 667h74z" />
    <glyph glyph-name="uni049B" unicode="&#x49b;" horiz-adv-x="422" 
d="M191 415l-21 -170l189 170h88l-207 -187l124 -162h58l-22 -176h-66l14 110h-24l-140 182l-24 -21l-20 -161h-72l51 415h72z" />
    <glyph glyph-name="uni049C" unicode="&#x49c;" horiz-adv-x="649" 
d="M242 667l-36 -291h80l17 140h66l-17 -140l269 291h87l-298 -322l227 -345h-95l-198 310l-18 -150h-66l18 150h-80l-38 -310h-74l82 667h74z" />
    <glyph glyph-name="uni049D" unicode="&#x49d;" horiz-adv-x="450" 
d="M191 415l-21 -170h50l12 100h60l-12 -100l130 170h78l-153 -199l109 -216h-78l-93 185l-14 -110h-60l14 110h-50l-23 -185h-72l51 415h72z" />
    <glyph glyph-name="uni04A0" unicode="&#x4a0;" horiz-adv-x="656" 
d="M362 356l278 -356h-100l-235 306l-22 -19l-35 -287h-74l73 597h-160l9 70h234l-35 -286l319 286h100z" />
    <glyph glyph-name="uni04A1" unicode="&#x4a1;" horiz-adv-x="452" 
d="M141 349h-90l8 66h162l-21 -170l189 170h88l-207 -187l174 -228h-90l-140 182l-24 -21l-20 -161h-72z" />
    <glyph glyph-name="uni04A2" unicode="&#x4a2;" horiz-adv-x="666" 
d="M168 667h74l-33 -271h342l33 271h74l-73 -597h76l-26 -210h-70l17 140h-80l40 326h-342l-40 -326h-74z" />
    <glyph glyph-name="uni04A3" unicode="&#x4a3;" horiz-adv-x="484" 
d="M119 415h72l-21 -170h196l21 170h72l-43 -349h68l-22 -176h-66l14 110h-74l22 179h-196l-22 -179h-72z" />
    <glyph glyph-name="uni04A4" unicode="&#x4a4;" horiz-adv-x="820" 
d="M168 667h74l-33 -271h342l33 271h304l-9 -70h-230l-73 -597h-74l40 326h-342l-40 -326h-74z" />
    <glyph glyph-name="uni04A5" unicode="&#x4a5;" horiz-adv-x="586" 
d="M119 415h72l-21 -170h196l21 170h246l-8 -66h-174l-43 -349h-72l22 179h-196l-22 -179h-72z" />
    <glyph glyph-name="uni04AA" unicode="&#x4aa;" horiz-adv-x="650" 
d="M664 520q-14 15 -33 31t-45 30q-29 15 -56.5 21t-56.5 6q-66 0 -121 -23t-96 -64q-41 -42 -64 -97.5t-23 -116.5t21 -106t49 -74q36 -38 78 -53.5t90 -15.5q38 0 70 7.5t57 20.5q20 11 43.5 27t40.5 32l-11 -92q-48 -35 -90 -48t-71 -16l-19 -149h-70l19 150q-21 0 -45 4
t-50.5 13.5t-53 26t-52.5 42.5q-46 48 -65 103.5t-19 118.5q0 56 11.5 100.5t28.5 79t36.5 59t35.5 40.5q58 57 124.5 79t144.5 22q34 0 63.5 -4t61.5 -17q44 -17 78 -45z" />
    <glyph glyph-name="uni04AB" unicode="&#x4ab;" horiz-adv-x="440" 
d="M432 299q-11 12 -24.5 24t-27.5 20q-15 8 -35 13t-40 5q-35 0 -62 -11.5t-49 -31.5q-20 -20 -36.5 -50.5t-16.5 -75.5q0 -39 13 -64.5t27 -39.5q21 -21 45.5 -28.5t50.5 -7.5q22 0 40 4t37 14q20 11 34 23.5t24 23.5l-10 -86q-27 -21 -54 -30t-46 -12l-14 -109h-66
l14 111q-40 3 -68 18.5t-46 33.5q-27 28 -41 65t-14 78q0 49 19 96t53 80q22 21 62 42t103 21q26 0 63 -7.5t75 -32.5z" />
    <glyph glyph-name="uni04AE" unicode="&#x4ae;" horiz-adv-x="530" 
d="M262 287l-172 380h84l133 -298l209 298h88l-268 -380l-35 -287h-74z" />
    <glyph glyph-name="uni04AF" unicode="&#x4af;" horiz-adv-x="424" 
d="M137 415l90 -280l158 280h82l-213 -364l-34 -281h-72l34 281l-123 364h78z" />
    <glyph glyph-name="uni04B0" unicode="&#x4b0;" horiz-adv-x="530" 
d="M254 221h-190l8 66h190l-172 380h84l133 -298l209 298h88l-268 -380h190l-8 -66h-190l-27 -221h-74z" />
    <glyph glyph-name="uni04B1" unicode="&#x4b1;" horiz-adv-x="424" 
d="M137 415l90 -280l158 280h82l-213 -364l-6 -51h120l-8 -66h-120l-21 -164h-72l21 164h-120l8 66h120l6 51l-123 364h78z" />
    <glyph glyph-name="uni04B2" unicode="&#x4b2;" horiz-adv-x="518" 
d="M253 345l-139 322h82l107 -251l173 251h84l-223 -322l122 -275h55l-26 -210h-70l17 140h-29l-119 274l-189 -274h-84z" />
    <glyph glyph-name="uni04B3" unicode="&#x4b3;" horiz-adv-x="452" 
d="M212 222l-127 193h86l90 -141l126 141h88l-176 -194l101 -155h51l-22 -176h-66l14 110h-19l-110 169l-152 -169h-88z" />
    <glyph glyph-name="uni04B6" unicode="&#x4b6;" horiz-adv-x="596" 
d="M432 0l36 292q-19 -4 -49.5 -8.5t-68.5 -4.5q-36 0 -81.5 6.5t-77.5 25.5q-67 38 -67 117q0 5 0.5 21t5.5 51l20 167h74l-20 -162q-2 -20 -3.5 -33.5t-1.5 -25.5q0 -20 6.5 -39.5t30.5 -35.5q16 -11 43 -16.5t77 -5.5q32 0 60 2.5t60 8.5l38 307h74l-73 -597h76l-26 -210
h-70l17 140h-80z" />
    <glyph glyph-name="uni04B7" unicode="&#x4b7;" horiz-adv-x="438" 
d="M413 415l-43 -349h68l-22 -176h-66l14 110h-74l20 166q-22 -7 -43.5 -9.5t-39.5 -2.5q-26 0 -57.5 7t-51.5 24q-19 17 -24 36.5t-5 36.5q0 11 1.5 24.5t4.5 36.5l12 96h72l-11 -92q-3 -23 -4 -33t-1 -17q0 -12 4 -22.5t17 -18.5q14 -9 34 -10.5t29 -1.5q29 0 46 4t25 7
l23 184h72z" />
    <glyph glyph-name="uni04B8" unicode="&#x4b8;" horiz-adv-x="623" 
d="M498 285q-27 -4 -56 -6t-61 -1l-17 -138h-66l17 139q-34 0 -71 9t-61 25q-32 20 -45.5 48.5t-13.5 65.5q0 20 2.5 38.5t4.5 37.5l20 164h74l-20 -161q-4 -29 -5 -41.5t-1 -20.5q0 -17 6 -40t32 -39q14 -9 39 -14t48 -4l18 149h66l-18 -153q28 -1 57 1t59 7l39 316h74
l-82 -667h-74z" />
    <glyph glyph-name="uni04B9" unicode="&#x4b9;" horiz-adv-x="460" 
d="M340 161q-34 -6 -65 -6l-12 -100h-60l12 99q-23 -2 -49 4.5t-43 19.5q-12 10 -23 28t-11 47q0 6 1 18t4 39l13 105h72l-13 -103q-3 -19 -3 -35q0 -10 2.5 -22.5t13.5 -21.5q9 -8 21.5 -10.5t22.5 -1.5l13 104h60l-13 -106q15 0 31.5 1.5t33.5 6.5l23 188h72l-51 -415h-72
z" />
    <glyph glyph-name="uni04BA" unicode="&#x4ba;" horiz-adv-x="593" 
d="M209 401q27 4 56.5 5.5t61.5 1.5q78 0 116.5 -12.5t55.5 -24.5q26 -18 40.5 -45t14.5 -65q0 -7 -1 -17l-2 -20t-2 -19t-1 -13l-24 -192h-74l23 182q2 11 3.5 29.5t1.5 29.5q0 27 -10 47t-37 33q-10 5 -33 11t-73 6q-30 0 -64 -2t-60 -5l-41 -331h-74l82 667h74z" />
    <glyph glyph-name="uni04BB" unicode="&#x4bb;" horiz-adv-x="469" 
d="M158 729h72l-45 -362q2 2 13.5 15t28.5 24q20 12 39.5 15.5t36.5 3.5q23 0 50 -6.5t50 -29.5q21 -21 27 -45.5t6 -47.5q0 -16 -2 -33t-4 -36l-28 -227h-72l25 207q2 13 4 35t2 36q0 13 -3.5 30.5t-17.5 31.5q-9 9 -23.5 15t-34.5 6q-24 0 -43 -8t-31 -21
q-21 -22 -29 -54.5t-12 -60.5l-27 -217h-72z" />
    <glyph glyph-name="uni04C0" unicode="&#x4c0;" horiz-adv-x="246" 
d="M242 667l-82 -667h-74l82 667h74z" />
    <glyph glyph-name="uni04C1" unicode="&#x4c1;" horiz-adv-x="810" 
d="M524 667l-35 -286l289 286h92l-320 -311l244 -356h-92l-207 305l-18 -18l-35 -287h-74l35 287l-14 18l-281 -305h-94l334 356l-242 311h90l219 -286l35 286h74zM423 841q3 -16 10 -25.5t14 -14.5q8 -7 22 -11.5t36 -4.5q11 0 28 2.5t32 13.5q14 10 20 21.5t8 18.5l67 -23
q-6 -18 -20 -38t-42 -36q-23 -13 -47 -18t-48 -5q-22 0 -52 5.5t-56 26.5q-12 10 -24 25.5t-19 39.5z" />
    <glyph glyph-name="uni04C2" unicode="&#x4c2;" horiz-adv-x="596" 
d="M385 415l-21 -170l177 170h84l-207 -196l170 -219h-86l-133 175l-15 -14l-20 -161h-72l20 161l-13 14l-175 -175h-90l227 224l-156 191h82l135 -170l21 170h72zM286 617q8 -29 28 -44q11 -8 25 -12t30 -4q14 0 28.5 3.5t26.5 11.5q11 8 19.5 20.5t12.5 24.5l60 -23
q-4 -8 -16 -29.5t-38 -40.5q-21 -15 -44 -21t-49 -6q-25 0 -49 5.5t-46 22.5q-14 11 -27 27.5t-21 41.5z" />
    <glyph glyph-name="uni04C3" unicode="&#x4c3;" horiz-adv-x="580" 
d="M205 371l315 296h100l-290 -272q43 0 86.5 -19t72.5 -48q24 -24 38.5 -50t22 -52t10 -51t2.5 -47q0 -62 -17 -123t-63 -106q-28 -28 -64.5 -43.5t-83.5 -15.5q-26 0 -46 5.5t-34 10.5l20 70q14 -8 28 -11.5t34 -3.5q30 0 53 10.5t40 27.5q29 29 43 77t14 94q0 54 -15 94
t-39 63q-24 24 -62 37.5t-82 13.5q-22 0 -45.5 -3t-43.5 -8l-39 -317h-74l82 667h74z" />
    <glyph glyph-name="uni04C4" unicode="&#x4c4;" horiz-adv-x="428" 
d="M191 415l-22 -174l190 174h88l-203 -186q30 -6 58 -21t48 -38q24 -28 31.5 -58t7.5 -56q0 -24 -5 -52t-17 -56.5t-33 -55t-53 -47.5q-23 -15 -46.5 -25t-43.5 -16t-35 -8.5t-20 -3.5l8 70q27 4 53 14t45 24q38 28 55.5 69t17.5 78q0 32 -11 56.5t-28 38.5
q-20 17 -49 24.5t-54 7.5h-12l-21 -174h-72l51 415h72z" />
    <glyph glyph-name="uni04C7" unicode="&#x4c7;" horiz-adv-x="662" 
d="M168 667h74l-33 -271h342l33 271h74l-92 -731q-5 -41 -14.5 -77.5t-35.5 -59.5q-13 -11 -34.5 -20t-54.5 -9q-36 0 -67 11l8 70q23 -11 49 -11q17 0 28.5 4.5t19.5 12.5q16 15 21.5 38t7.5 43l48 388h-342l-40 -326h-74z" />
    <glyph glyph-name="uni04C8" unicode="&#x4c8;" horiz-adv-x="476" 
d="M119 415h72l-21 -170h196l21 170h72l-63 -503q-5 -38 -12 -64t-30 -46q-21 -20 -44 -26t-47 -6q-15 0 -29 2t-29 7l9 70q11 -4 23 -6.5t23 -2.5q18 0 28.5 5.5t15.5 10.5q10 11 14 27t6 33l34 263h-196l-22 -179h-72z" />
    <glyph glyph-name="uni04D0" unicode="&#x4d0;" horiz-adv-x="622" 
d="M479 188h-284l-103 -188h-84l393 699l213 -699h-80zM459 258l-80 267l-146 -267h226zM323 841q3 -16 10 -25.5t14 -14.5q8 -7 22 -11.5t36 -4.5q11 0 28 2.5t32 13.5q14 10 20 21.5t8 18.5l67 -23q-6 -18 -20 -38t-42 -36q-23 -13 -47 -18t-48 -5q-22 0 -52 5.5t-56 26.5
q-12 10 -24 25.5t-19 39.5z" />
    <glyph glyph-name="uni04D1" unicode="&#x4d1;" horiz-adv-x="528" 
d="M439 415h72l-51 -415h-72l7 58q-10 -14 -23 -27t-29 -22q-23 -13 -45 -17t-41 -4q-38 0 -72 10t-63 41q-23 25 -38.5 61t-15.5 87q0 64 21.5 110t50.5 74q57 54 149 54q21 0 43 -4t45 -16q19 -10 32 -22t23 -27zM295 361q-35 0 -59.5 -12t-40.5 -27q-23 -22 -38 -57
t-15 -73q0 -31 11 -60t32 -49q19 -18 40.5 -24.5t43.5 -6.5q65 0 103 41q23 23 35 60t12 75q0 42 -14 66t-25 34q-13 12 -33.5 22.5t-51.5 10.5zM228 617q8 -29 28 -44q11 -8 25 -12t30 -4q14 0 28.5 3.5t26.5 11.5q11 8 19.5 20.5t12.5 24.5l60 -23q-4 -8 -16 -29.5
t-38 -40.5q-21 -15 -44 -21t-49 -6q-25 0 -49 5.5t-46 22.5q-14 11 -27 27.5t-21 41.5z" />
    <glyph glyph-name="uni04D2" unicode="&#x4d2;" horiz-adv-x="622" 
d="M479 188h-284l-103 -188h-84l393 699l213 -699h-80zM459 258l-80 267l-146 -267h226zM450 778q0 8 2.5 17.5t12.5 20.5t21 15t21 4q19 0 32 -12q5 -5 9 -12.5t4 -18.5q0 -24 -16 -42q-6 -6 -16 -11.5t-24 -5.5t-22 4.5t-12 8.5q-12 12 -12 32zM260 778q0 8 2.5 17.5
t12.5 20.5t21 15t21 4q19 0 32 -12q5 -5 9 -12.5t4 -18.5q0 -24 -16 -42q-6 -6 -16 -11.5t-24 -5.5t-22 4.5t-12 8.5q-12 12 -12 32z" />
    <glyph glyph-name="uni04D3" unicode="&#x4d3;" horiz-adv-x="528" 
d="M439 415h72l-51 -415h-72l7 58q-10 -14 -23 -27t-29 -22q-23 -13 -45 -17t-41 -4q-38 0 -72 10t-63 41q-23 25 -38.5 61t-15.5 87q0 64 21.5 110t50.5 74q57 54 149 54q21 0 43 -4t45 -16q19 -10 32 -22t23 -27zM295 361q-35 0 -59.5 -12t-40.5 -27q-23 -22 -38 -57
t-15 -73q0 -31 11 -60t32 -49q19 -18 40.5 -24.5t43.5 -6.5q65 0 103 41q23 23 35 60t12 75q0 42 -14 66t-25 34q-13 12 -33.5 22.5t-51.5 10.5zM344 543q0 11 4.5 21.5t12.5 18.5q6 6 16 11.5t24 5.5q18 0 31 -12t13 -32q0 -22 -18 -40q-16 -16 -38 -16q-17 0 -31 11.5
t-14 31.5zM170 543q0 11 4.5 21.5t12.5 18.5q6 6 16 11.5t24 5.5q18 0 31 -12t13 -32q0 -22 -18 -40q-16 -16 -38 -16q-17 0 -31 11.5t-14 31.5z" />
    <glyph glyph-name="uni04D4" unicode="&#x4d4;" horiz-adv-x="900" 
d="M482 187h-284l-102 -187h-82l379 667h293l20 -70h-269l59 -198h264l20 -70h-262l77 -259h271l20 -70h-348zM462 257l-78 261l-145 -261h223z" />
    <glyph glyph-name="uni04D5" unicode="&#x4d5;" horiz-adv-x="776" 
d="M415 348q14 19 31.5 32.5t34.5 22.5q20 10 44 16t53 6q50 0 82 -15t50 -34q23 -23 39 -67t8 -115h-327v-8q0 -38 11.5 -63.5t25.5 -39.5q18 -18 38.5 -24.5t43.5 -6.5q21 0 42.5 4.5t41.5 18.5q16 11 30.5 29t23.5 35l61 -33q-14 -24 -35 -48t-42 -38q-17 -12 -46.5 -22
t-73.5 -10q-27 0 -55 6t-48 18q-17 10 -32 26t-26 33q-11 -18 -28.5 -35t-36.5 -27q-21 -11 -50.5 -16t-53.5 -5q-26 0 -59 6t-57 23q-16 11 -32 34t-16 61q0 37 16 66.5t42 47.5q11 8 41 21t86 13q39 0 68 -9t53 -26q3 32 -0.5 62t-25.5 50q-11 10 -30.5 17t-53.5 7
q-27 0 -57 -6t-66 -20l8 68q32 11 65.5 16.5t62.5 5.5q26 0 52 -5t47 -17q22 -12 33.5 -27t16.5 -28zM240 196q-4 0 -13.5 -0.5t-21.5 -2.5t-24.5 -7t-23.5 -13q-9 -7 -18 -20t-9 -33q0 -19 8 -31t19 -20q14 -9 34 -13t41 -4q32 0 50 6.5t26 10.5q24 14 31 31t7 31
q0 17 -8 29t-22 20t-35 12t-41 4zM690 254q-1 26 -11 46.5t-24 34.5q-18 17 -38 21.5t-40 4.5q-26 0 -49 -6.5t-45 -28.5q-14 -14 -24.5 -32.5t-15.5 -39.5h247z" />
    <glyph glyph-name="uni04D6" unicode="&#x4d6;" horiz-adv-x="482" 
d="M505 597h-272l-24 -198h264l-9 -70h-264l-31 -259h272l-9 -70h-346l82 667h346zM277 841q3 -16 10 -25.5t14 -14.5q8 -7 22 -11.5t36 -4.5q11 0 28 2.5t32 13.5q14 10 20 21.5t8 18.5l67 -23q-6 -18 -20 -38t-42 -36q-23 -13 -47 -18t-48 -5q-22 0 -52 5.5t-56 26.5
q-12 10 -24 25.5t-19 39.5z" />
    <glyph glyph-name="uni04D7" unicode="&#x4d7;" horiz-adv-x="483" 
d="M456 106q-14 -24 -35 -48t-42 -38q-31 -20 -62.5 -26t-57.5 -6q-37 0 -71.5 10t-65.5 42q-19 20 -37 55.5t-18 93.5q0 54 19 99.5t52 78.5q32 32 67.5 45t77.5 13q53 0 85 -15.5t50 -33.5q23 -23 39 -67t8 -116h-323q-1 -45 11 -70.5t26 -39.5q18 -18 38.5 -24.5
t43.5 -6.5q18 0 39 4.5t41 18.5q16 11 30.5 29t23.5 35zM396 253q-1 23 -10 45t-25 37q-17 17 -38 21.5t-38 4.5q-28 0 -50 -8t-41 -27q-14 -14 -24.5 -32.5t-15.5 -40.5h242zM218 617q8 -29 28 -44q11 -8 25 -12t30 -4q14 0 28.5 3.5t26.5 11.5q11 8 19.5 20.5t12.5 24.5
l60 -23q-4 -8 -16 -29.5t-38 -40.5q-21 -15 -44 -21t-49 -6q-25 0 -49 5.5t-46 22.5q-14 11 -27 27.5t-21 41.5z" />
    <glyph glyph-name="uni04D8" unicode="&#x4d8;" horiz-adv-x="759" 
d="M130 518q26 35 58.5 65t64.5 49q38 22 83.5 34t96.5 12q70 0 129.5 -22.5t101.5 -62.5q27 -27 44 -56t26.5 -58.5t12.5 -57.5t3 -52q0 -95 -30.5 -166.5t-74.5 -116.5q-30 -31 -63 -50.5t-66 -30t-66 -14t-64 -3.5q-24 0 -50.5 2.5t-53.5 10.5t-54 23t-52 40
q-37 37 -62 94.5t-25 130.5q0 24 3 46h580q10 63 -8.5 117t-56.5 90q-27 26 -70.5 46t-106.5 20q-40 0 -76 -9t-70 -30q-18 -12 -34 -25.5t-28 -26t-19.5 -22t-10.5 -12.5zM160 265q2 -48 21.5 -88t45.5 -65q19 -18 41 -28.5t44 -16t42 -7.5t36 -2q55 0 102 14t89 55
q26 25 46 59t30 79h-497z" />
    <glyph glyph-name="afii10846" unicode="&#x4d9;" horiz-adv-x="483" 
d="M82 307q14 26 33.5 47.5t39.5 35.5q29 20 59.5 27.5t63.5 7.5q34 0 68.5 -9t64.5 -37q35 -32 45.5 -71t10.5 -73q0 -66 -22.5 -121.5t-64.5 -87.5q-35 -26 -71 -32t-65 -6q-31 0 -65.5 8t-64.5 40q-35 36 -44 86.5t-2 97.5h324q4 34 -7 64t-29 47q-14 14 -34.5 22
t-49.5 8q-50 0 -87 -30q-14 -11 -26.5 -27t-20.5 -30zM135 160q1 -23 9.5 -44.5t22.5 -35.5q11 -11 30.5 -19.5t51.5 -8.5q25 0 46 7t37 19t29 33.5t18 48.5h-244z" />
    <glyph glyph-name="uni04DA" unicode="&#x4da;" horiz-adv-x="759" 
d="M130 518q26 35 58.5 65t64.5 49q38 22 83.5 34t96.5 12q70 0 129.5 -22.5t101.5 -62.5q27 -27 44 -56t26.5 -58.5t12.5 -57.5t3 -52q0 -95 -30.5 -166.5t-74.5 -116.5q-30 -31 -63 -50.5t-66 -30t-66 -14t-64 -3.5q-24 0 -50.5 2.5t-53.5 10.5t-54 23t-52 40
q-37 37 -62 94.5t-25 130.5q0 24 3 46h580q10 63 -8.5 117t-56.5 90q-27 26 -70.5 46t-106.5 20q-40 0 -76 -9t-70 -30q-18 -12 -34 -25.5t-28 -26t-19.5 -22t-10.5 -12.5zM160 265q2 -48 21.5 -88t45.5 -65q19 -18 41 -28.5t44 -16t42 -7.5t36 -2q55 0 102 14t89 55
q26 25 46 59t30 79h-497zM486 778q0 8 2.5 17.5t12.5 20.5t21 15t21 4q19 0 32 -12q5 -5 9 -12.5t4 -18.5q0 -24 -16 -42q-6 -6 -16 -11.5t-24 -5.5t-22 4.5t-12 8.5q-12 12 -12 32zM296 778q0 8 2.5 17.5t12.5 20.5t21 15t21 4q19 0 32 -12q5 -5 9 -12.5t4 -18.5
q0 -24 -16 -42q-6 -6 -16 -11.5t-24 -5.5t-22 4.5t-12 8.5q-12 12 -12 32z" />
    <glyph glyph-name="uni04DB" unicode="&#x4db;" horiz-adv-x="483" 
d="M82 307q14 26 33.5 47.5t39.5 35.5q29 20 59.5 27.5t63.5 7.5q34 0 68.5 -9t64.5 -37q35 -32 45.5 -71t10.5 -73q0 -66 -22.5 -121.5t-64.5 -87.5q-35 -26 -71 -32t-65 -6q-31 0 -65.5 8t-64.5 40q-35 36 -44 86.5t-2 97.5h324q4 34 -7 64t-29 47q-14 14 -34.5 22
t-49.5 8q-50 0 -87 -30q-14 -11 -26.5 -27t-20.5 -30zM135 160q1 -23 9.5 -44.5t22.5 -35.5q11 -11 30.5 -19.5t51.5 -8.5q25 0 46 7t37 19t29 33.5t18 48.5h-244zM328 543q0 11 4.5 21.5t12.5 18.5q6 6 16 11.5t24 5.5q18 0 31 -12t13 -32q0 -22 -18 -40q-16 -16 -38 -16
q-17 0 -31 11.5t-14 31.5zM154 543q0 11 4.5 21.5t12.5 18.5q6 6 16 11.5t24 5.5q18 0 31 -12t13 -32q0 -22 -18 -40q-16 -16 -38 -16q-17 0 -31 11.5t-14 31.5z" />
    <glyph glyph-name="uni04DC" unicode="&#x4dc;" horiz-adv-x="810" 
d="M524 667l-35 -286l289 286h92l-320 -311l244 -356h-92l-207 305l-18 -18l-35 -287h-74l35 287l-14 18l-281 -305h-94l334 356l-242 311h90l219 -286l35 286h74zM545 778q0 8 2.5 17.5t12.5 20.5t21 15t21 4q19 0 32 -12q5 -5 9 -12.5t4 -18.5q0 -24 -16 -42
q-6 -6 -16 -11.5t-24 -5.5t-22 4.5t-12 8.5q-12 12 -12 32zM355 778q0 8 2.5 17.5t12.5 20.5t21 15t21 4q19 0 32 -12q5 -5 9 -12.5t4 -18.5q0 -24 -16 -42q-6 -6 -16 -11.5t-24 -5.5t-22 4.5t-12 8.5q-12 12 -12 32z" />
    <glyph glyph-name="uni04DD" unicode="&#x4dd;" horiz-adv-x="596" 
d="M385 415l-21 -170l177 170h84l-207 -196l170 -219h-86l-133 175l-15 -14l-20 -161h-72l20 161l-13 14l-175 -175h-90l227 224l-156 191h82l135 -170l21 170h72zM402 543q0 11 4.5 21.5t12.5 18.5q6 6 16 11.5t24 5.5q18 0 31 -12t13 -32q0 -22 -18 -40q-16 -16 -38 -16
q-17 0 -31 11.5t-14 31.5zM228 543q0 11 4.5 21.5t12.5 18.5q6 6 16 11.5t24 5.5q18 0 31 -12t13 -32q0 -22 -18 -40q-16 -16 -38 -16q-17 0 -31 11.5t-14 31.5z" />
    <glyph glyph-name="uni04DE" unicode="&#x4de;" horiz-adv-x="555" 
d="M148 581q16 20 36.5 38t43.5 31q28 15 57.5 21.5t60.5 6.5q14 0 31 -1.5t35.5 -6.5t37.5 -15t35 -27q40 -41 40 -103q0 -31 -8.5 -61t-26.5 -52q-14 -17 -35 -29.5t-41 -19.5q28 -5 46.5 -17t28.5 -23q26 -26 33 -54.5t7 -57.5q0 -42 -13 -82t-49 -76q-22 -21 -45.5 -34
t-47 -20t-46.5 -9t-44 -2q-34 0 -77 8.5t-81 37.5q-19 15 -33 34t-23.5 35.5t-14 29t-5.5 15.5l71 32q7 -24 20 -46.5t32 -39.5q28 -24 58 -30t57 -6q28 0 59.5 7.5t60.5 34.5q20 20 32 47t12 61q0 17 -7 43t-36 46q-16 11 -42 18t-70 7h-68l8 70h55q28 0 60.5 6t57.5 27
q17 14 27.5 36t10.5 51q0 27 -10 43.5t-21 26.5q-17 14 -38.5 20t-43.5 6q-28 0 -47.5 -7t-32.5 -15q-16 -10 -29.5 -23.5t-23.5 -26.5zM402 778q0 8 2.5 17.5t12.5 20.5t21 15t21 4q19 0 32 -12q5 -5 9 -12.5t4 -18.5q0 -24 -16 -42q-6 -6 -16 -11.5t-24 -5.5t-22 4.5
t-12 8.5q-12 12 -12 32zM212 778q0 8 2.5 17.5t12.5 20.5t21 15t21 4q19 0 32 -12q5 -5 9 -12.5t4 -18.5q0 -24 -16 -42q-6 -6 -16 -11.5t-24 -5.5t-22 4.5t-12 8.5q-12 12 -12 32z" />
    <glyph glyph-name="uni04DF" unicode="&#x4df;" horiz-adv-x="404" 
d="M96 350q12 15 28 29t31 23q22 13 44.5 18t48.5 5q23 0 48.5 -6.5t47.5 -28.5q13 -14 20 -30t7 -39q0 -13 -3.5 -29t-15.5 -32q-5 -8 -15 -16t-25 -14q17 -6 28.5 -16t18.5 -18q9 -12 14 -26t5 -32q0 -33 -13.5 -63t-39.5 -51q-30 -24 -65.5 -30t-62.5 -6q-29 0 -56.5 6.5
t-51.5 25.5q-13 10 -22.5 22.5t-16.5 23.5t-10.5 19t-3.5 9l64 26q10 -30 32 -47q17 -13 35.5 -17t34.5 -4q13 0 33.5 2.5t38.5 15.5q11 8 20.5 22.5t9.5 37.5q0 30 -24 45q-14 9 -32.5 11t-28.5 2h-42l8 66h35q4 0 12.5 0.5t18.5 2.5t20.5 5.5t17.5 10.5q5 5 9.5 13.5
t4.5 22.5q0 21 -14 35q-12 12 -27 14.5t-24 2.5q-14 0 -29 -3t-30 -13q-11 -7 -21 -17t-17 -19zM281 543q0 11 4.5 21.5t12.5 18.5q6 6 16 11.5t24 5.5q18 0 31 -12t13 -32q0 -22 -18 -40q-16 -16 -38 -16q-17 0 -31 11.5t-14 31.5zM107 543q0 11 4.5 21.5t12.5 18.5
q6 6 16 11.5t24 5.5q18 0 31 -12t13 -32q0 -22 -18 -40q-16 -16 -38 -16q-17 0 -31 11.5t-14 31.5z" />
    <glyph glyph-name="uni04E2" unicode="&#x4e2;" horiz-adv-x="710" 
d="M612 509l-530 -539l86 697h74l-63 -511l530 539l-85 -695h-74zM303 797h320l-8 -64h-320z" />
    <glyph glyph-name="uni04E3" unicode="&#x4e3;" horiz-adv-x="492" 
d="M191 415l-34 -276l322 308l-55 -447h-72l34 279l-322 -308l55 444h72zM159 573h302l-7 -60h-302z" />
    <glyph glyph-name="uni04E4" unicode="&#x4e4;" horiz-adv-x="710" 
d="M612 509l-530 -539l86 697h74l-63 -511l530 539l-85 -695h-74zM505 778q0 8 2.5 17.5t12.5 20.5t21 15t21 4q19 0 32 -12q5 -5 9 -12.5t4 -18.5q0 -24 -16 -42q-6 -6 -16 -11.5t-24 -5.5t-22 4.5t-12 8.5q-12 12 -12 32zM315 778q0 8 2.5 17.5t12.5 20.5t21 15t21 4
q19 0 32 -12q5 -5 9 -12.5t4 -18.5q0 -24 -16 -42q-6 -6 -16 -11.5t-24 -5.5t-22 4.5t-12 8.5q-12 12 -12 32z" />
    <glyph glyph-name="uni04E5" unicode="&#x4e5;" horiz-adv-x="492" 
d="M191 415l-34 -276l322 308l-55 -447h-72l34 279l-322 -308l55 444h72zM350 543q0 11 4.5 21.5t12.5 18.5q6 6 16 11.5t24 5.5q18 0 31 -12t13 -32q0 -22 -18 -40q-16 -16 -38 -16q-17 0 -31 11.5t-14 31.5zM176 543q0 11 4.5 21.5t12.5 18.5q6 6 16 11.5t24 5.5
q18 0 31 -12t13 -32q0 -22 -18 -40q-16 -16 -38 -16q-17 0 -31 11.5t-14 31.5z" />
    <glyph glyph-name="uni04E6" unicode="&#x4e6;" horiz-adv-x="800" 
d="M399 -12q-55 0 -113.5 18t-108.5 69q-15 16 -30.5 37.5t-28 49t-20 61t-7.5 73.5q0 51 10 93.5t26.5 77t37 61t40.5 45.5q110 105 274 105q55 0 113.5 -16.5t110.5 -67.5q16 -16 32 -37t28.5 -48t20 -60t7.5 -73q0 -78 -27.5 -153t-84.5 -130q-44 -42 -114 -73.5
t-166 -31.5zM471 608q-64 0 -118 -21.5t-93 -57.5q-35 -33 -63.5 -87.5t-28.5 -131.5q0 -62 20 -108t49 -76q26 -27 67.5 -47.5t102.5 -20.5q68 0 123.5 22t92.5 58q45 43 68 103.5t23 120.5q0 57 -19.5 102t-50.5 76q-25 25 -67 46.5t-106 21.5zM523 778q0 8 2.5 17.5
t12.5 20.5t21 15t21 4q19 0 32 -12q5 -5 9 -12.5t4 -18.5q0 -24 -16 -42q-6 -6 -16 -11.5t-24 -5.5t-22 4.5t-12 8.5q-12 12 -12 32zM333 778q0 8 2.5 17.5t12.5 20.5t21 15t21 4q19 0 32 -12q5 -5 9 -12.5t4 -18.5q0 -24 -16 -42q-6 -6 -16 -11.5t-24 -5.5t-22 4.5t-12 8.5
q-12 12 -12 32z" />
    <glyph glyph-name="uni04E7" unicode="&#x4e7;" horiz-adv-x="528" 
d="M268 -12q-45 0 -81.5 12.5t-66.5 44.5q-22 23 -37.5 58.5t-15.5 86.5q0 45 16.5 90t58.5 83q68 62 166 62q51 0 88.5 -15.5t63.5 -41.5q32 -32 41.5 -68t9.5 -68q0 -68 -22.5 -112t-47.5 -68q-40 -39 -85.5 -51.5t-87.5 -12.5zM307 361q-21 0 -52 -8.5t-61 -37.5
q-26 -26 -39.5 -59t-13.5 -71q0 -35 12 -58t24 -36q11 -12 34.5 -25.5t61.5 -13.5q39 0 67 14t46 34q23 25 36.5 60t13.5 71q0 32 -10 55t-24 37q-16 17 -40 27.5t-55 10.5zM366 543q0 11 4.5 21.5t12.5 18.5q6 6 16 11.5t24 5.5q18 0 31 -12t13 -32q0 -22 -18 -40
q-16 -16 -38 -16q-17 0 -31 11.5t-14 31.5zM192 543q0 11 4.5 21.5t12.5 18.5q6 6 16 11.5t24 5.5q18 0 31 -12t13 -32q0 -22 -18 -40q-16 -16 -38 -16q-17 0 -31 11.5t-14 31.5z" />
    <glyph glyph-name="uni04E8" unicode="&#x4e8;" horiz-adv-x="800" 
d="M399 -12q-55 0 -113.5 18t-108.5 69q-15 16 -30.5 37.5t-28 49t-20 61t-7.5 73.5q0 51 10 93.5t26.5 77t37 61t40.5 45.5q110 105 274 105q55 0 113.5 -16.5t110.5 -67.5q16 -16 32 -37t28.5 -48t20 -60t7.5 -73q0 -78 -27.5 -153t-84.5 -130q-44 -42 -114 -73.5
t-166 -31.5zM713 380q0 6 -2.5 23.5t-10 40t-20.5 48t-36 48.5q-25 25 -67 46.5t-106 21.5q-70 0 -123 -23t-88 -56q-29 -27 -51 -64t-33 -85h537zM168 310q-1 -61 20 -108t49 -76q26 -27 67.5 -47.5t102.5 -20.5q68 0 123.5 22t92.5 58q33 32 56 76.5t31 95.5h-542z" />
    <glyph glyph-name="uni04E9" unicode="&#x4e9;" horiz-adv-x="528" 
d="M268 -12q-45 0 -81.5 12.5t-66.5 44.5q-22 23 -37.5 58.5t-15.5 86.5q0 45 16.5 90t58.5 83q68 62 166 62q51 0 88.5 -15.5t63.5 -41.5q32 -32 41.5 -68t9.5 -68q0 -68 -22.5 -112t-47.5 -68q-40 -39 -85.5 -51.5t-87.5 -12.5zM435 244q-2 28 -12 47.5t-21 31.5
q-20 20 -44 29t-53 9q-59 0 -103 -37q-23 -20 -35 -40.5t-17 -39.5h285zM141 180q2 -28 12 -51t24 -38q14 -16 38.5 -27.5t59.5 -11.5q30 0 55.5 9.5t43.5 24.5q19 16 33.5 40.5t21.5 53.5h-288z" />
    <glyph glyph-name="uni04EA" unicode="&#x4ea;" horiz-adv-x="800" 
d="M399 -12q-55 0 -113.5 18t-108.5 69q-15 16 -30.5 37.5t-28 49t-20 61t-7.5 73.5q0 51 10 93.5t26.5 77t37 61t40.5 45.5q110 105 274 105q55 0 113.5 -16.5t110.5 -67.5q16 -16 32 -37t28.5 -48t20 -60t7.5 -73q0 -78 -27.5 -153t-84.5 -130q-44 -42 -114 -73.5
t-166 -31.5zM713 380q0 6 -2.5 23.5t-10 40t-20.5 48t-36 48.5q-25 25 -67 46.5t-106 21.5q-70 0 -123 -23t-88 -56q-29 -27 -51 -64t-33 -85h537zM168 310q-1 -61 20 -108t49 -76q26 -27 67.5 -47.5t102.5 -20.5q68 0 123.5 22t92.5 58q33 32 56 76.5t31 95.5h-542z
M523 778q0 8 2.5 17.5t12.5 20.5t21 15t21 4q19 0 32 -12q5 -5 9 -12.5t4 -18.5q0 -24 -16 -42q-6 -6 -16 -11.5t-24 -5.5t-22 4.5t-12 8.5q-12 12 -12 32zM333 778q0 8 2.5 17.5t12.5 20.5t21 15t21 4q19 0 32 -12q5 -5 9 -12.5t4 -18.5q0 -24 -16 -42q-6 -6 -16 -11.5
t-24 -5.5t-22 4.5t-12 8.5q-12 12 -12 32z" />
    <glyph glyph-name="uni04EB" unicode="&#x4eb;" horiz-adv-x="528" 
d="M268 -12q-45 0 -81.5 12.5t-66.5 44.5q-22 23 -37.5 58.5t-15.5 86.5q0 45 16.5 90t58.5 83q68 62 166 62q51 0 88.5 -15.5t63.5 -41.5q32 -32 41.5 -68t9.5 -68q0 -68 -22.5 -112t-47.5 -68q-40 -39 -85.5 -51.5t-87.5 -12.5zM435 244q-2 28 -12 47.5t-21 31.5
q-20 20 -44 29t-53 9q-59 0 -103 -37q-23 -20 -35 -40.5t-17 -39.5h285zM141 180q2 -28 12 -51t24 -38q14 -16 38.5 -27.5t59.5 -11.5q30 0 55.5 9.5t43.5 24.5q19 16 33.5 40.5t21.5 53.5h-288zM354 543q0 11 4.5 21.5t12.5 18.5q6 6 16 11.5t24 5.5q18 0 31 -12t13 -32
q0 -22 -18 -40q-16 -16 -38 -16q-17 0 -31 11.5t-14 31.5zM180 543q0 11 4.5 21.5t12.5 18.5q6 6 16 11.5t24 5.5q18 0 31 -12t13 -32q0 -22 -18 -40q-16 -16 -38 -16q-17 0 -31 11.5t-14 31.5z" />
    <glyph glyph-name="uni04EE" unicode="&#x4ee;" horiz-adv-x="568" 
d="M175 667l160 -393l222 393h85l-383 -667h-80l108 186l-197 481h85zM223 797h320l-8 -64h-320z" />
    <glyph glyph-name="uni04EF" unicode="&#x4ef;" horiz-adv-x="460" 
d="M204 39l-145 376h80l110 -297l172 297h82l-384 -645h-80zM139 573h302l-7 -60h-302z" />
    <glyph glyph-name="uni04F0" unicode="&#x4f0;" horiz-adv-x="568" 
d="M175 667l160 -393l222 393h85l-383 -667h-80l108 186l-197 481h85zM420 778q0 8 2.5 17.5t12.5 20.5t21 15t21 4q19 0 32 -12q5 -5 9 -12.5t4 -18.5q0 -24 -16 -42q-6 -6 -16 -11.5t-24 -5.5t-22 4.5t-12 8.5q-12 12 -12 32zM230 778q0 8 2.5 17.5t12.5 20.5t21 15t21 4
q19 0 32 -12q5 -5 9 -12.5t4 -18.5q0 -24 -16 -42q-6 -6 -16 -11.5t-24 -5.5t-22 4.5t-12 8.5q-12 12 -12 32z" />
    <glyph glyph-name="uni04F1" unicode="&#x4f1;" horiz-adv-x="460" 
d="M204 39l-145 376h80l110 -297l172 297h82l-384 -645h-80zM334 543q0 11 4.5 21.5t12.5 18.5q6 6 16 11.5t24 5.5q18 0 31 -12t13 -32q0 -22 -18 -40q-16 -16 -38 -16q-17 0 -31 11.5t-14 31.5zM160 543q0 11 4.5 21.5t12.5 18.5q6 6 16 11.5t24 5.5q18 0 31 -12t13 -32
q0 -22 -18 -40q-16 -16 -38 -16q-17 0 -31 11.5t-14 31.5z" />
    <glyph glyph-name="uni04F2" unicode="&#x4f2;" horiz-adv-x="568" 
d="M175 667l160 -393l222 393h85l-383 -667h-80l108 186l-197 481h85zM451 842l-162 -122l-39 26l136 136zM601 842l-162 -122l-39 26l136 136z" />
    <glyph glyph-name="uni04F3" unicode="&#x4f3;" horiz-adv-x="460" 
d="M204 39l-145 376h80l110 -297l172 297h82l-384 -645h-80zM365 634l-154 -136l-38 23l124 145zM497 634l-152 -136l-38 23l124 145z" />
    </font>
</defs>
</svg>
